<svg width="16" height="16" viewBox="0 0 16 16" fill="none" xmlns="http://www.w3.org/2000/svg">
<path fill-rule="evenodd" clip-rule="evenodd" d="M7.99992 14.6666C11.6818 14.6666 14.6666 11.6818 14.6666 7.99992C14.6666 4.31802 11.6818 1.33325 7.99992 1.33325C4.31802 1.33325 1.33325 4.31802 1.33325 7.99992C1.33325 11.6818 4.31802 14.6666 7.99992 14.6666ZM8.49992 5.99992C8.49992 5.72378 8.27606 5.49992 7.99992 5.49992C7.72378 5.49992 7.49992 5.72378 7.49992 5.99992L7.49992 7.49994H5.99992C5.72378 7.49994 5.49992 7.72379 5.49992 7.99994C5.49992 8.27608 5.72378 8.49994 5.99992 8.49994H7.49992V9.99992C7.49992 10.2761 7.72378 10.4999 7.99992 10.4999C8.27606 10.4999 8.49992 10.2761 8.49992 9.99992L8.49992 8.49994H9.99992C10.2761 8.49994 10.4999 8.27608 10.4999 7.99994C10.4999 7.72379 10.2761 7.49994 9.99992 7.49994H8.49992V5.99992Z" fill="#3E3E3E"/>
</svg>
