<svg width="16" height="16" viewBox="0 0 16 16" fill="none" xmlns="http://www.w3.org/2000/svg">
<g clip-path="url(#clip0_8394_15024)">
<path d="M10.2667 2C10.1081 2.28406 9.96671 2.57742 9.8434 2.87848C8.6317 2.68685 7.39742 2.68685 6.18573 2.87848C6.06242 2.57742 5.92107 2.28406 5.76247 2C4.62107 2.19502 3.51149 2.54429 2.46418 3.0382C0.591377 5.74095 -0.257954 9.0222 0.0683309 12.2942C1.28881 13.2117 2.65861 13.9114 4.11732 14.3626C4.44947 13.9238 4.74591 13.4591 5.00378 12.973C4.52786 12.7975 4.07043 12.5755 3.63815 12.3101C3.75671 12.2312 3.86886 12.1431 3.97357 12.0466C5.23415 12.6538 6.61536 12.9691 8.01456 12.9691C9.41376 12.9691 10.795 12.6538 12.0556 12.0466C12.1674 12.1424 12.2792 12.2303 12.391 12.3101C11.9563 12.5734 11.4994 12.7979 11.0253 12.981C11.2725 13.4781 11.561 13.9537 11.8879 14.4025C13.3447 13.9529 14.7122 13.253 15.9289 12.3341C16.263 9.06153 15.413 5.7776 13.533 3.07813C12.4975 2.574 11.3988 2.21137 10.2667 2ZM5.36316 10.4254C4.96352 10.3967 4.59053 10.2143 4.3225 9.9165C4.05446 9.61869 3.91223 9.22862 3.92565 8.82817C3.9102 8.4272 4.05174 8.03601 4.32017 7.73775C4.58861 7.43949 4.96278 7.25767 5.36316 7.23094C5.76354 7.25767 6.13771 7.43949 6.40614 7.73775C6.67458 8.03601 6.81611 8.4272 6.80067 8.82817C6.81611 9.22914 6.67458 9.62033 6.40614 9.91859C6.13771 10.2169 5.76354 10.3987 5.36316 10.4254ZM10.666 10.4254C10.2663 10.3967 9.89334 10.2143 9.62531 9.9165C9.35728 9.61869 9.21504 9.22862 9.22846 8.82817C9.21302 8.4272 9.35455 8.03601 9.62299 7.73775C9.89142 7.43949 10.2656 7.25767 10.666 7.23094C11.0671 7.25567 11.4425 7.4369 11.7113 7.73562C11.9802 8.03434 12.121 8.42667 12.1035 8.82817C12.121 9.22967 11.9802 9.622 11.7113 9.92072C11.4425 10.2194 11.0671 10.4007 10.666 10.4254Z" fill="#535353"/>
</g>
<defs>
<clipPath id="clip0_8394_15024">
<rect width="16" height="16" fill="white"/>
</clipPath>
</defs>
</svg>
