<svg width="25" height="24" viewBox="0 0 25 24" fill="none" xmlns="http://www.w3.org/2000/svg">
<path fill-rule="evenodd" clip-rule="evenodd" d="M14.511 12.3335C14.3731 11.9435 14.1177 11.6058 13.78 11.367C13.4422 11.1281 13.0387 10.9999 12.625 11V10.5H11.625V11C11.0946 11 10.5859 11.2107 10.2108 11.5858C9.83571 11.9609 9.625 12.4696 9.625 13C9.625 13.5304 9.83571 14.0391 10.2108 14.4142C10.5859 14.7893 11.0946 15 11.625 15V17C11.19 17 10.8195 16.7225 10.6815 16.3335C10.661 16.2699 10.628 16.211 10.5844 16.1603C10.5407 16.1097 10.4874 16.0683 10.4275 16.0386C10.3676 16.0089 10.3023 15.9916 10.2356 15.9875C10.1689 15.9835 10.102 15.9929 10.039 16.0152C9.97592 16.0375 9.91799 16.0721 9.8686 16.1172C9.8192 16.1622 9.77934 16.2167 9.75137 16.2775C9.72341 16.3382 9.7079 16.4039 9.70578 16.4707C9.70365 16.5376 9.71495 16.6041 9.739 16.6665C9.87686 17.0565 10.1323 17.3942 10.47 17.633C10.8078 17.8719 11.2113 18.0001 11.625 18V18.5H12.625V18C13.1554 18 13.6641 17.7893 14.0392 17.4142C14.4143 17.0391 14.625 16.5304 14.625 16C14.625 15.4696 14.4143 14.9609 14.0392 14.5858C13.6641 14.2107 13.1554 14 12.625 14V12C12.8318 11.9999 13.0335 12.064 13.2024 12.1834C13.3713 12.3027 13.499 12.4715 13.568 12.6665C13.6122 12.7915 13.7042 12.8939 13.8238 12.9511C13.8831 12.9795 13.9473 12.9958 14.0129 12.9993C14.0785 13.0028 14.1441 12.9934 14.206 12.9715C14.2679 12.9496 14.3249 12.9158 14.3738 12.8719C14.4226 12.828 14.4623 12.7749 14.4906 12.7157C14.519 12.6564 14.5353 12.5922 14.5388 12.5266C14.5423 12.461 14.5329 12.3954 14.511 12.3335ZM11.625 12C11.3598 12 11.1054 12.1054 10.9179 12.2929C10.7304 12.4804 10.625 12.7348 10.625 13C10.625 13.2652 10.7304 13.5196 10.9179 13.7071C11.1054 13.8946 11.3598 14 11.625 14V12ZM12.625 17C12.8902 17 13.1446 16.8946 13.3321 16.7071C13.5196 16.5196 13.625 16.2652 13.625 16C13.625 15.7348 13.5196 15.4804 13.3321 15.2929C13.1446 15.1054 12.8902 15 12.625 15V17Z" fill="#535353" stroke="#535353" stroke-width="0.5"/>
<path fill-rule="evenodd" clip-rule="evenodd" d="M6.7015 4.3105C7.9285 3.71 9.9415 3 12.1445 3C14.3015 3 16.2615 3.6805 17.482 4.273L17.551 4.3065C17.919 4.4885 18.216 4.6605 18.425 4.8L16.578 7.5C20.836 11.853 24.125 20.9985 12.1445 20.9985C0.164 20.9985 3.3645 12.019 7.6595 7.5L5.8245 4.8C5.966 4.7075 6.1455 4.6 6.3595 4.486C6.4655 4.429 6.5795 4.37017 6.7015 4.3105ZM15.391 7.4645L16.8695 5.303C15.4945 5.402 13.8585 5.725 12.2835 6.181C11.1585 6.506 9.9085 6.4565 8.751 6.243C8.4593 6.18899 8.16962 6.12462 7.8825 6.05L8.8425 7.4635C10.9 8.196 13.333 8.196 15.391 7.4645ZM8.265 8.315C10.6725 9.245 13.566 9.245 15.9735 8.314C16.9782 9.37356 17.8188 10.5774 18.4675 11.8855C19.1435 13.2645 19.5115 14.643 19.4515 15.831C19.3935 16.9775 18.9425 17.957 17.9125 18.685C16.839 19.4435 15.0335 19.9985 12.144 19.9985C9.2515 19.9985 7.4375 19.453 6.354 18.703C5.3165 17.9845 4.861 17.018 4.7965 15.887C4.729 14.712 5.089 13.3405 5.7625 11.952C6.405 10.628 7.3015 9.3535 8.265 8.315ZM7.69 4.958C8.09 5.077 8.508 5.1805 8.932 5.259C10.007 5.457 11.085 5.486 12.005 5.2195C13.0771 4.90705 14.1675 4.66141 15.27 4.484C14.35 4.207 13.274 4 12.144 4C10.4215 4 8.815 4.4805 7.69 4.958Z" fill="#535353" stroke="#535353" stroke-width="0.5"/>
</svg>
