<svg xmlns="http://www.w3.org/2000/svg" width="25" height="24" viewBox="0 0 25 24" fill="none">
    <path fillRule="evenodd" clipRule="evenodd"
        d="M12.5194 3C10.2609 3 8.20337 3.746 6.98587 4.3555C6.87587 4.4105 6.7732 4.46417 6.67787 4.5165C6.48887 4.6195 6.32787 4.7155 6.19987 4.8L7.58487 6.839L8.23687 7.0985C10.7849 8.384 14.2019 8.384 16.7504 7.0985L17.4904 6.7145L18.7999 4.8C18.5283 4.62355 18.2463 4.46376 17.9554 4.3215C16.7439 3.7185 14.7354 3 12.5199 3M9.29887 5.308C8.80854 5.21572 8.32417 5.09417 7.84837 4.944C8.98887 4.4375 10.6884 3.9 12.5199 3.9C13.7884 3.9 14.9879 4.158 15.9799 4.485C14.8174 4.6485 13.5769 4.926 12.3949 5.2675C11.4649 5.5365 10.3779 5.5075 9.29887 5.308ZM17.2789 7.84L17.1559 7.902C14.3529 9.316 10.6349 9.316 7.83187 7.902L7.71537 7.843C3.50387 12.4635 0.288869 20.9985 12.5194 20.9985C24.7499 20.9985 21.4569 12.305 17.2789 7.84ZM11.9999 12C11.7347 12 11.4803 12.1054 11.2928 12.2929C11.1052 12.4804 10.9999 12.7348 10.9999 13C10.9999 13.2652 11.1052 13.5196 11.2928 13.7071C11.4803 13.8946 11.7347 14 11.9999 14V12ZM12.9999 11V10.5H11.9999V11C11.4694 11 10.9607 11.2107 10.5857 11.5858C10.2106 11.9609 9.99987 12.4696 9.99987 13C9.99987 13.5304 10.2106 14.0391 10.5857 14.4142C10.9607 14.7893 11.4694 15 11.9999 15V17C11.5649 17 11.1944 16.7225 11.0564 16.3335C11.0359 16.2699 11.0029 16.211 10.9592 16.1603C10.9156 16.1097 10.8623 16.0683 10.8024 16.0386C10.7424 16.0089 10.6772 15.9916 10.6105 15.9875C10.5437 15.9835 10.4769 15.9929 10.4138 16.0152C10.3508 16.0375 10.2929 16.0721 10.2435 16.1172C10.1941 16.1622 10.1542 16.2167 10.1262 16.2775C10.0983 16.3382 10.0828 16.4039 10.0806 16.4707C10.0785 16.5376 10.0898 16.6041 10.1139 16.6665C10.2517 17.0565 10.5071 17.3942 10.8449 17.633C11.1827 17.8719 11.5862 18.0001 11.9999 18V18.5H12.9999V18C13.5303 18 14.039 17.7893 14.4141 17.4142C14.7892 17.0391 14.9999 16.5304 14.9999 16C14.9999 15.4696 14.7892 14.9609 14.4141 14.5858C14.039 14.2107 13.5303 14 12.9999 14V12C13.4349 12 13.8054 12.2775 13.9434 12.6665C13.9638 12.7301 13.9969 12.789 14.0405 12.8397C14.0841 12.8903 14.1375 12.9317 14.1974 12.9614C14.2573 12.9911 14.3225 13.0084 14.3893 13.0125C14.456 13.0165 14.5229 13.0071 14.5859 12.9848C14.6489 12.9625 14.7069 12.9279 14.7563 12.8828C14.8057 12.8378 14.8455 12.7833 14.8735 12.7225C14.9015 12.6618 14.917 12.5961 14.9191 12.5293C14.9212 12.4624 14.9099 12.3959 14.8859 12.3335C14.748 11.9435 14.4926 11.6058 14.1548 11.367C13.8171 11.1281 13.4135 10.9999 12.9999 11ZM12.9999 15V17C13.2651 17 13.5194 16.8946 13.707 16.7071C13.8945 16.5196 13.9999 16.2652 13.9999 16C13.9999 15.7348 13.8945 15.4804 13.707 15.2929C13.5194 15.1054 13.2651 15 12.9999 15Z"
        fill="#9035FF" />
</svg>