<svg width="16" height="16" viewBox="0 0 16 16" fill="none" xmlns="http://www.w3.org/2000/svg">
<path d="M3.16675 8.00008C3.16675 7.54289 3.54289 7.16675 4.00008 7.16675C4.45727 7.16675 4.83341 7.54289 4.83341 8.00008C4.83341 8.45727 4.45727 8.83341 4.00008 8.83341C3.54289 8.83341 3.16675 8.45727 3.16675 8.00008ZM11.1667 8.00008C11.1667 7.54289 11.5429 7.16675 12.0001 7.16675C12.4573 7.16675 12.8334 7.54289 12.8334 8.00008C12.8334 8.45727 12.4573 8.83341 12.0001 8.83341C11.5429 8.83341 11.1667 8.45727 11.1667 8.00008ZM7.16675 8.00008C7.16675 7.54289 7.54289 7.16675 8.00008 7.16675C8.45727 7.16675 8.83341 7.54289 8.83341 8.00008C8.83341 8.45727 8.45727 8.83341 8.00008 8.83341C7.54289 8.83341 7.16675 8.45727 7.16675 8.00008Z" fill="black" stroke="#181818"/>
</svg>
