<svg width="21" height="20" viewBox="0 0 21 20" fill="none" xmlns="http://www.w3.org/2000/svg">
<path d="M12.3334 2.39584C11.3112 2.39584 10.3308 2.80191 9.60805 3.5247C8.88525 4.2475 8.47919 5.22782 8.47919 6.25001V8.39584H6.41669C6.31335 8.39584 6.22919 8.47918 6.22919 8.58334V11.4167C6.22919 11.52 6.31252 11.6042 6.41669 11.6042H8.47919V17.4167C8.47919 17.52 8.56252 17.6042 8.66669 17.6042H11.5C11.6034 17.6042 11.6875 17.5208 11.6875 17.4167V11.6042H13.7684C13.8542 11.6042 13.9292 11.5458 13.95 11.4625L14.6584 8.62918C14.6653 8.60153 14.6659 8.57266 14.66 8.54475C14.6542 8.51685 14.642 8.49065 14.6245 8.46816C14.607 8.44566 14.5846 8.42745 14.5589 8.41492C14.5333 8.40239 14.5052 8.39587 14.4767 8.39584H11.6875V6.25001C11.6875 6.1652 11.7042 6.08122 11.7367 6.00286C11.7691 5.9245 11.8167 5.85331 11.8767 5.79334C11.9367 5.73337 12.0078 5.68579 12.0862 5.65334C12.1646 5.62088 12.2485 5.60418 12.3334 5.60418H14.5C14.6034 5.60418 14.6875 5.52084 14.6875 5.41668V2.58334C14.6875 2.48001 14.6042 2.39584 14.5 2.39584H12.3334Z" fill="#9035FF"/>
</svg>
