<svg xmlns="http://www.w3.org/2000/svg" width="12" height="12" viewBox="0 0 12 12" fill="none">
    <path d="M11.3333 2.66699H5.33325M7.33325 9.33366H1.33325" stroke="white" strokeLinecap="round"
        strokeLinejoin="round" />
    <path
        d="M9.33325 11.334C10.4378 11.334 11.3333 10.4386 11.3333 9.33398C11.3333 8.22941 10.4378 7.33398 9.33325 7.33398C8.22868 7.33398 7.33325 8.22941 7.33325 9.33398C7.33325 10.4386 8.22868 11.334 9.33325 11.334Z"
        stroke="white" strokeLinecap="round" strokeLinejoin="round" />
    <path
        d="M2.66663 4.66699C3.7712 4.66699 4.66663 3.77156 4.66663 2.66699C4.66663 1.56242 3.7712 0.666992 2.66663 0.666992C1.56206 0.666992 0.666626 1.56242 0.666626 2.66699C0.666626 3.77156 1.56206 4.66699 2.66663 4.66699Z"
        stroke="white" strokeLinecap="round" strokeLinejoin="round" />
</svg>