<svg width="33" height="32" viewBox="0 0 33 32" fill="none" xmlns="http://www.w3.org/2000/svg">
<rect x="0.5" width="32" height="32" rx="16" fill="#F4EBFF"/>
<path d="M17.5 10C14.1867 10 11.5 12.6867 11.5 16H9.5L12.0933 18.5933L12.14 18.6867L14.8333 16H12.8333C12.8333 13.42 14.92 11.3333 17.5 11.3333C20.08 11.3333 22.1667 13.42 22.1667 16C22.1667 18.58 20.08 20.6667 17.5 20.6667C16.2133 20.6667 15.0467 20.14 14.2067 19.2933L13.26 20.24C14.3467 21.3267 15.84 22 17.5 22C20.8133 22 23.5 19.3133 23.5 16C23.5 12.6867 20.8133 10 17.5 10ZM16.8333 13.3333V16.6667L19.6867 18.36L20.1667 17.5533L17.8333 16.1667V13.3333H16.8333Z" fill="#9035FF"/>
</svg>
