<svg width="25" height="24" viewBox="0 0 25 24" fill="none" xmlns="http://www.w3.org/2000/svg">
<path d="M9.375 17.25C9.17609 17.25 8.98532 17.329 8.84467 17.4697C8.70402 17.6103 8.625 17.8011 8.625 18C8.625 18.1989 8.70402 18.3897 8.84467 18.5303C8.98532 18.671 9.17609 18.75 9.375 18.75H15.375C15.5739 18.75 15.7647 18.671 15.9053 18.5303C16.046 18.3897 16.125 18.1989 16.125 18C16.125 17.8011 16.046 17.6103 15.9053 17.4697C15.7647 17.329 15.5739 17.25 15.375 17.25H9.375Z" fill="#696969"/>
<path fill-rule="evenodd" clip-rule="evenodd" d="M12.375 1.25C11.65 1.25 10.988 1.45 10.265 1.787C9.56301 2.114 8.75301 2.597 7.73701 3.202L6.28101 4.069C5.16201 4.736 4.27101 5.267 3.59501 5.775C2.89801 6.3 2.37501 6.84 2.03501 7.551C1.69301 8.262 1.60101 9.007 1.63001 9.876C1.65901 10.717 1.80601 11.74 1.99001 13.022L2.28301 15.054C2.52001 16.704 2.70901 18.013 2.99001 19.032C3.28001 20.082 3.69201 20.917 4.43501 21.556C5.17701 22.196 6.06501 22.481 7.15101 22.618C8.20701 22.75 9.53801 22.75 11.217 22.75H13.533C15.213 22.75 16.543 22.75 17.599 22.618C18.685 22.481 19.573 22.196 20.315 21.557C21.058 20.917 21.47 20.083 21.76 19.032C22.041 18.012 22.23 16.704 22.467 15.054L22.759 13.022C22.944 11.74 23.091 10.717 23.119 9.876C23.149 9.006 23.057 8.262 22.716 7.551C22.375 6.84 21.852 6.3 21.155 5.775C20.48 5.267 19.588 4.736 18.469 4.069L17.013 3.202C15.997 2.597 15.187 2.114 14.486 1.787C13.762 1.449 13.1 1.25 12.375 1.25ZM8.47101 4.511C9.52801 3.881 10.274 3.438 10.899 3.146C11.508 2.862 11.946 2.75 12.375 2.75C12.804 2.75 13.242 2.862 13.851 3.146C14.476 3.438 15.221 3.881 16.279 4.511L17.664 5.336C18.829 6.03 19.65 6.52 20.254 6.974C20.841 7.417 21.164 7.783 21.364 8.199C21.563 8.615 21.646 9.093 21.621 9.825C21.595 10.575 21.461 11.516 21.269 12.851L20.989 14.788C20.743 16.502 20.567 17.716 20.314 18.633C20.067 19.529 19.769 20.048 19.337 20.42C18.904 20.793 18.343 21.013 17.412 21.13C16.461 21.249 15.224 21.25 13.482 21.25H11.269C9.52601 21.25 8.28901 21.249 7.33801 21.13C6.40801 21.013 5.84601 20.793 5.41301 20.42C4.98101 20.048 4.68301 19.529 4.43601 18.633C4.18301 17.716 4.00601 16.502 3.76001 14.788L3.48101 12.851C3.28901 11.516 3.15501 10.574 3.12901 9.825C3.10401 9.093 3.18701 8.615 3.38701 8.199C3.58701 7.783 3.90801 7.417 4.49701 6.974C5.10001 6.52 5.92101 6.03 7.08601 5.336L8.47101 4.511Z" fill="#696969"/>
</svg>
