<svg width="25" height="24" viewBox="0 0 25 24" fill="none" xmlns="http://www.w3.org/2000/svg">
<path fill-rule="evenodd" clip-rule="evenodd" d="M2.71001 7.875C2.17001 9.002 2.36001 10.321 2.74001 12.958L3.01801 14.895C3.50501 18.283 3.74901 19.976 4.92401 20.988C6.09901 22 7.82201 22 11.269 22H13.481C16.928 22 18.651 22 19.826 20.988C21.001 19.976 21.245 18.283 21.732 14.895L22.011 12.958C22.391 10.321 22.581 9.002 22.04 7.875C21.499 6.748 20.349 6.062 18.048 4.692L16.663 3.867C14.575 2.622 13.529 2 12.375 2C11.221 2 10.176 2.622 8.08701 3.867L6.70201 4.692C4.40201 6.062 3.25101 6.748 2.71001 7.875ZM8.62501 18C8.62501 17.8011 8.70402 17.6103 8.84468 17.4697C8.98533 17.329 9.17609 17.25 9.37501 17.25H15.375C15.5739 17.25 15.7647 17.329 15.9053 17.4697C16.046 17.6103 16.125 17.8011 16.125 18C16.125 18.1989 16.046 18.3897 15.9053 18.5303C15.7647 18.671 15.5739 18.75 15.375 18.75H9.37501C9.17609 18.75 8.98533 18.671 8.84468 18.5303C8.70402 18.3897 8.62501 18.1989 8.62501 18Z" fill="#9035FF"/>
</svg>
