<svg xmlns="http://www.w3.org/2000/svg" width="41" height="40" viewBox="0 0 41 40" fill="none">
    <path
        d="M26.6783 8.82147L21.6783 3.82147C21.3657 3.50902 20.9419 3.3335 20.4999 3.3335C20.058 3.3335 19.6342 3.50902 19.3216 3.82147L14.3216 8.82147C14.018 9.13581 13.85 9.55682 13.8538 9.99381C13.8576 10.4308 14.0329 10.8488 14.3419 11.1578C14.6509 11.4669 15.0689 11.6421 15.5059 11.6459C15.9429 11.6497 16.3639 11.4817 16.6783 11.1781L18.8333 9.02314V28.3331C18.8333 28.7752 19.0089 29.1991 19.3214 29.5117C19.634 29.8242 20.0579 29.9998 20.4999 29.9998C20.942 29.9998 21.3659 29.8242 21.6785 29.5117C21.991 29.1991 22.1666 28.7752 22.1666 28.3331V9.02314L24.3216 11.1781C24.6359 11.4817 25.057 11.6497 25.4939 11.6459C25.9309 11.6421 26.349 11.4669 26.658 11.1578C26.967 10.8488 27.1423 10.4308 27.1461 9.99381C27.1499 9.55682 26.9819 9.13581 26.6783 8.82147Z"
        fill="#535353" />
    <path
        d="M30.5 15H22.1667V28.3333C22.1667 28.7754 21.9911 29.1993 21.6785 29.5118C21.3659 29.8244 20.942 30 20.5 30C20.058 30 19.634 29.8244 19.3215 29.5118C19.0089 29.1993 18.8333 28.7754 18.8333 28.3333V15H10.5C9.17432 15.0013 7.90332 15.5285 6.96593 16.4659C6.02853 17.4033 5.50132 18.6743 5.5 20V31.6667C5.50132 32.9923 6.02853 34.2633 6.96593 35.2007C7.90332 36.1381 9.17432 36.6653 10.5 36.6667H30.5C31.8257 36.6653 33.0967 36.1381 34.0341 35.2007C34.9715 34.2633 35.4987 32.9923 35.5 31.6667V20C35.4987 18.6743 34.9715 17.4033 34.0341 16.4659C33.0967 15.5285 31.8257 15.0013 30.5 15Z"
        fill="#808080" />
</svg>