<svg xmlns="http://www.w3.org/2000/svg" width="16" height="16" viewBox="0 0 16 16" fill="none">
    <path fill-rule="evenodd" clip-rule="evenodd"
        d="M2.11455 12.5522C2.89559 13.3333 4.15267 13.3333 6.66683 13.3333L9.3335 13.3333C11.8477 13.3333 13.1047 13.3333 13.8858 12.5522C14.6668 11.7712 14.6668 10.5141 14.6668 7.99996C14.6668 5.4858 14.6668 4.22872 13.8858 3.44767C13.1047 2.66663 11.8477 2.66663 9.3335 2.66663H6.66683C4.15267 2.66663 2.89559 2.66663 2.11454 3.44767C1.3335 4.22872 1.3335 5.4858 1.3335 7.99996C1.3335 10.5141 1.3335 11.7712 2.11455 12.5522ZM6.00016 10.8333C5.72402 10.8333 5.50016 11.0571 5.50016 11.3333C5.50016 11.6094 5.72402 11.8333 6.00016 11.8333H10.0002C10.2763 11.8333 10.5002 11.6094 10.5002 11.3333C10.5002 11.0571 10.2763 10.8333 10.0002 10.8333H6.00016Z"
        fill="#3E3E3E" />
</svg>