<svg width="21" height="20" viewBox="0 0 21 20" fill="none" xmlns="http://www.w3.org/2000/svg">
<path d="M6.28333 4.16665C6.28311 4.60867 6.1073 5.03251 5.79459 5.34491C5.48187 5.65732 5.05786 5.8327 4.61583 5.83248C4.1738 5.83226 3.74997 5.65645 3.43756 5.34373C3.12516 5.03102 2.94978 4.60701 2.95 4.16498C2.95022 3.72295 3.12602 3.29912 3.43874 2.98671C3.75146 2.67431 4.17547 2.49892 4.6175 2.49915C5.05952 2.49937 5.48336 2.67517 5.79576 2.98789C6.10817 3.30061 6.28355 3.72462 6.28333 4.16665ZM6.33333 7.06665H3V17.5H6.33333V7.06665ZM11.6 7.06665H8.28333V17.5H11.5667V12.025C11.5667 8.97498 15.5417 8.69165 15.5417 12.025V17.5H18.8333V10.8916C18.8333 5.74998 12.95 5.94165 11.5667 8.46665L11.6 7.06665Z" fill="#9035FF"/>
</svg>
