<svg xmlns="http://www.w3.org/2000/svg" width="24" height="24" viewBox="0 0 24 24" fill="none">
    <path
        d="M19.5 17.9571V18.25H4.5V17.9571L6.35355 16.1036L6.5 15.9571V15.75V10.75C6.5 7.84437 8.02219 5.53092 10.6153 4.91653L11 4.82538V4.43V3.75C11 3.19614 11.4461 2.75 12 2.75C12.5539 2.75 13 3.19614 13 3.75V4.43V4.82506L13.3843 4.91644C15.9681 5.53076 17.5 7.85482 17.5 10.75V15.75V15.9571L17.6464 16.1036L19.5 17.9571ZM13.4135 20.25C13.2061 20.8306 12.6488 21.25 12 21.25C11.3443 21.25 10.7907 20.8313 10.5854 20.25H13.4135Z"
        fill="#9035FF" stroke="#9035FF" />
</svg>