<svg width="16" height="16" viewBox="0 0 16 16" fill="none" xmlns="http://www.w3.org/2000/svg">
<path d="M5.33325 11.9999C4.59992 11.9999 4.00659 12.5999 4.00659 13.3333C4.00659 14.0666 4.59992 14.6666 5.33325 14.6666C6.06659 14.6666 6.66659 14.0666 6.66659 13.3333C6.66659 12.5999 6.06659 11.9999 5.33325 11.9999ZM1.33325 1.33325V2.66659H2.66659L5.06659 7.72659L4.16659 9.35992C4.05992 9.54659 3.99992 9.76659 3.99992 9.99992C3.99992 10.7333 4.59992 11.3333 5.33325 11.3333H13.3333V9.99992H5.61325C5.51992 9.99992 5.44659 9.92659 5.44659 9.83325L5.46659 9.75325L6.06659 8.66659H11.0333C11.5333 8.66659 11.9733 8.39325 12.1999 7.97992L14.5866 3.65325C14.6399 3.55992 14.6666 3.44659 14.6666 3.33325C14.6666 2.96659 14.3666 2.66659 13.9999 2.66659H4.13992L3.51325 1.33325H1.33325ZM11.9999 11.9999C11.2666 11.9999 10.6733 12.5999 10.6733 13.3333C10.6733 14.0666 11.2666 14.6666 11.9999 14.6666C12.7333 14.6666 13.3333 14.0666 13.3333 13.3333C13.3333 12.5999 12.7333 11.9999 11.9999 11.9999Z" fill="#2C2C2C"/>
</svg>
