<svg width="335" height="144" viewBox="0 0 335 144" fill="none" xmlns="http://www.w3.org/2000/svg">
<path d="M335 18C335 12.4087 335 9.61305 334.087 7.4078C332.869 4.46746 330.533 2.13137 327.592 0.913446C325.387 0 322.591 0 317 0H18C12.4087 0 9.61304 0 7.40781 0.913446C4.46747 2.13137 2.13138 4.46746 0.913452 7.4078C0 9.61305 0 12.4087 0 18V126C0 131.591 0 134.387 0.913452 136.592C2.13138 139.533 4.46747 141.869 7.40781 143.087C9.61304 144 12.4087 144 18 144H317C322.591 144 325.387 144 327.592 143.087C330.533 141.869 332.869 139.533 334.087 136.592C335 134.387 335 131.591 335 126V18Z" fill="white"/>
<path d="M335 18C335 12.4087 335 9.61305 334.087 7.4078C332.869 4.46746 330.533 2.13137 327.592 0.913446C325.387 0 322.591 0 317 0H18C12.4087 0 9.61304 0 7.40781 0.913446C4.46747 2.13137 2.13138 4.46746 0.913452 7.4078C0 9.61305 0 12.4087 0 18V126C0 131.591 0 134.387 0.913452 136.592C2.13138 139.533 4.46747 141.869 7.40781 143.087C9.61304 144 12.4087 144 18 144H317C322.591 144 325.387 144 327.592 143.087C330.533 141.869 332.869 139.533 334.087 136.592C335 134.387 335 131.591 335 126V18Z" fill="url(#paint0_radial_7475_19988)"/>
<path d="M335 18C335 12.4087 335 9.61305 334.087 7.4078C332.869 4.46746 330.533 2.13137 327.592 0.913446C325.387 0 322.591 0 317 0H18C12.4087 0 9.61304 0 7.40781 0.913446C4.46747 2.13137 2.13138 4.46746 0.913452 7.4078C0 9.61305 0 12.4087 0 18V126C0 131.591 0 134.387 0.913452 136.592C2.13138 139.533 4.46747 141.869 7.40781 143.087C9.61304 144 12.4087 144 18 144H317C322.591 144 325.387 144 327.592 143.087C330.533 141.869 332.869 139.533 334.087 136.592C335 134.387 335 131.591 335 126V18Z" fill="url(#paint1_radial_7475_19988)"/>
<path d="M335 18C335 12.4087 335 9.61305 334.087 7.4078C332.869 4.46746 330.533 2.13137 327.592 0.913446C325.387 0 322.591 0 317 0H18C12.4087 0 9.61304 0 7.40781 0.913446C4.46747 2.13137 2.13138 4.46746 0.913452 7.4078C0 9.61305 0 12.4087 0 18V126C0 131.591 0 134.387 0.913452 136.592C2.13138 139.533 4.46747 141.869 7.40781 143.087C9.61304 144 12.4087 144 18 144H317C322.591 144 325.387 144 327.592 143.087C330.533 141.869 332.869 139.533 334.087 136.592C335 134.387 335 131.591 335 126V18Z" fill="url(#paint2_radial_7475_19988)"/>
<defs>
<radialGradient id="paint0_radial_7475_19988" cx="0" cy="0" r="1" gradientUnits="userSpaceOnUse" gradientTransform="translate(404.5 -12.5) rotate(150.03) scale(225.551 778.869)">
<stop stop-color="white"/>
<stop offset="1" stop-color="#9035FF"/>
</radialGradient>
<radialGradient id="paint1_radial_7475_19988" cx="0" cy="0" r="1" gradientUnits="userSpaceOnUse" gradientTransform="translate(-16.8554 -162) rotate(57.7887) scale(361.665 1087)">
<stop stop-color="#0065FF"/>
<stop offset="1" stop-color="#0065FF" stop-opacity="0"/>
</radialGradient>
<radialGradient id="paint2_radial_7475_19988" cx="0" cy="0" r="1" gradientUnits="userSpaceOnUse" gradientTransform="translate(2.10681e-06 112.5) rotate(-50.9003) scale(135.301 443.392)">
<stop stop-color="#C4C6FD"/>
<stop offset="1" stop-color="#0065FF" stop-opacity="0"/>
</radialGradient>
</defs>
</svg>
