<svg xmlns="http://www.w3.org/2000/svg" width="25" height="24" viewBox="0 0 25 24" fill="none">
    <path fillRule="evenodd" clipRule="evenodd"
        d="M6.125 5.25C6.125 6.0945 6.404 6.873 6.875 7.5H3.5C3.10218 7.5 2.72064 7.65804 2.43934 7.93934C2.15804 8.22065 2 8.60218 2 9C2 9.39783 2.15804 9.77936 2.43934 10.0607C2.72064 10.342 3.10218 10.5 3.5 10.5H11.375V7.5H13.625V10.5H21.5C21.8978 10.5 22.2794 10.342 22.5607 10.0607C22.842 9.77936 23 9.39783 23 9C23 8.60218 22.842 8.22065 22.5607 7.93934C22.2794 7.65804 21.8978 7.5 21.5 7.5H18.125C18.6935 6.74387 18.9553 5.80079 18.8578 4.85979C18.7603 3.91879 18.3107 3.04943 17.5992 2.42595C16.8876 1.80247 15.9668 1.47095 15.0211 1.49786C14.0755 1.52476 13.1749 1.90808 12.5 2.571C11.9726 2.05401 11.3042 1.70427 10.5787 1.56567C9.8533 1.42706 9.10308 1.50576 8.42219 1.7919C7.7413 2.07803 7.16006 2.55886 6.75139 3.17406C6.34272 3.78926 6.12481 4.51144 6.125 5.25ZM11.3735 5.25V5.193C11.3623 4.89895 11.2649 4.61469 11.0934 4.3756C10.9218 4.1365 10.6837 3.95314 10.4088 3.84835C10.1338 3.74355 9.83409 3.72195 9.54693 3.78623C9.25978 3.8505 8.99787 3.99782 8.79381 4.20984C8.58976 4.42186 8.45257 4.68922 8.39934 4.97862C8.3461 5.26803 8.37916 5.5667 8.4944 5.83746C8.60965 6.10822 8.80198 6.3391 9.04747 6.50135C9.29295 6.66361 9.58074 6.75009 9.875 6.75H11.375L11.3735 5.25ZM15.1235 3.75C14.7354 3.74972 14.3622 3.89991 14.0825 4.169C13.8028 4.4381 13.6382 4.80514 13.6235 5.193L13.625 5.25V6.75H15.1235C15.5213 6.75 15.9029 6.59197 16.1842 6.31066C16.4655 6.02936 16.6235 5.64783 16.6235 5.25C16.6235 4.85218 16.4655 4.47065 16.1842 4.18934C15.9029 3.90804 15.5213 3.75 15.1235 3.75Z"
        fill="#9035FF" />
    <path
        d="M11.375 12.75H3.5V18C3.5 18.7956 3.81607 19.5587 4.37868 20.1213C4.94129 20.6839 5.70435 21 6.5 21H11.375V12.75ZM13.625 21V12.75H21.5V18C21.5 18.7956 21.1839 19.5587 20.6213 20.1213C20.0587 20.6839 19.2956 21 18.5 21H13.625Z"
        fill="#9035FF" />
</svg>