<svg width="25" height="24" viewBox="0 0 25 24" fill="none" xmlns="http://www.w3.org/2000/svg">
<g clip-path="url(#clip0_7688_4196)">
<path d="M21.875 11.25V19.5C21.875 19.8978 21.717 20.2794 21.4357 20.5607C21.1544 20.842 20.7728 21 20.375 21H6.125C5.72718 21 5.34564 20.842 5.06434 20.5607C4.78304 20.2794 4.625 19.8978 4.625 19.5V11.25M12.875 4.875C12.875 4.35583 12.721 3.84831 12.4326 3.41663C12.1442 2.98495 11.7342 2.6485 11.2545 2.44982C10.7749 2.25114 10.2471 2.19915 9.73789 2.30044C9.22869 2.40173 8.76096 2.65173 8.39384 3.01885C8.02673 3.38596 7.77672 3.85369 7.67544 4.36289C7.57415 4.87209 7.62614 5.39989 7.82482 5.87954C8.0235 6.3592 8.35995 6.76917 8.79163 7.05761C9.22331 7.34605 9.73082 7.5 10.25 7.5H12.875M12.875 4.875V7.5M12.875 4.875C12.875 4.35583 13.029 3.84831 13.3174 3.41663C13.6058 2.98495 14.0158 2.6485 14.4955 2.44982C14.9751 2.25114 15.5029 2.19915 16.0121 2.30044C16.5213 2.40173 16.989 2.65173 17.3562 3.01885C17.7233 3.38596 17.9733 3.85369 18.0746 4.36289C18.1758 4.87209 18.1239 5.39989 17.9252 5.87954C17.7265 6.3592 17.3901 6.76917 16.9584 7.05761C16.5267 7.34605 16.0192 7.5 15.5 7.5H12.875M12.875 7.5V21M4.25 11.25H22.25C22.871 11.25 23.375 10.746 23.375 10.125V8.625C23.375 8.004 22.871 7.5 22.25 7.5H4.25C3.629 7.5 3.125 8.004 3.125 8.625V10.125C3.125 10.746 3.629 11.25 4.25 11.25Z" stroke="#535353" stroke-width="1.5" stroke-linecap="round" stroke-linejoin="round"/>
</g>
<defs>
<clipPath id="clip0_7688_4196">
<rect width="24" height="24" fill="white" transform="translate(0.875)"/>
</clipPath>
</defs>
</svg>
