<svg width="24" height="24" viewBox="0 0 24 24" fill="none" xmlns="http://www.w3.org/2000/svg">
<path fill-rule="evenodd" clip-rule="evenodd" d="M5.625 5.24976C5.625 6.09426 5.904 6.87276 6.375 7.49976H3C2.60218 7.49976 2.22064 7.65779 1.93934 7.9391C1.65804 8.2204 1.5 8.60193 1.5 8.99976C1.5 9.39758 1.65804 9.77911 1.93934 10.0604C2.22064 10.3417 2.60218 10.4998 3 10.4998H10.875V7.49976H13.125V10.4998H21C21.3978 10.4998 21.7794 10.3417 22.0607 10.0604C22.342 9.77911 22.5 9.39758 22.5 8.99976C22.5 8.60193 22.342 8.2204 22.0607 7.9391C21.7794 7.65779 21.3978 7.49976 21 7.49976H17.625C18.1935 6.74363 18.4553 5.80054 18.3578 4.85955C18.2603 3.91855 17.8107 3.04918 17.0992 2.4257C16.3876 1.80222 15.4668 1.47071 14.5211 1.49761C13.5755 1.52451 12.6749 1.90784 12 2.57076C11.4726 2.05376 10.8042 1.70403 10.0787 1.56542C9.3533 1.42682 8.60308 1.50552 7.92219 1.79165C7.2413 2.07779 6.66006 2.55861 6.25139 3.17381C5.84272 3.78901 5.62481 4.51119 5.625 5.24976ZM10.8735 5.24976V5.19276C10.8623 4.89871 10.7649 4.61444 10.5934 4.37535C10.4218 4.13626 10.1837 3.9529 9.90878 3.8481C9.63381 3.74331 9.33409 3.7217 9.04693 3.78598C8.75978 3.85026 8.49787 3.99758 8.29381 4.2096C8.08976 4.42162 7.95257 4.68897 7.89934 4.97838C7.8461 5.26779 7.87916 5.56646 7.9944 5.83721C8.10965 6.10797 8.30198 6.33885 8.54747 6.50111C8.79295 6.66337 9.08074 6.74984 9.375 6.74976H10.875L10.8735 5.24976ZM14.6235 3.74976C14.2354 3.74948 13.8622 3.89967 13.5825 4.16876C13.3028 4.43785 13.1382 4.8049 13.1235 5.19276L13.125 5.24976V6.74976H14.6235C15.0213 6.74976 15.4029 6.59172 15.6842 6.31042C15.9655 6.02912 16.1235 5.64758 16.1235 5.24976C16.1235 4.85194 15.9655 4.4704 15.6842 4.1891C15.4029 3.90779 15.0213 3.74976 14.6235 3.74976Z" fill="#181818"/>
<path d="M10.875 12.75H3V18C3 18.7956 3.31607 19.5587 3.87868 20.1213C4.44129 20.6839 5.20435 21 6 21H10.875V12.75ZM13.125 21V12.75H21V18C21 18.7956 20.6839 19.5587 20.1213 20.1213C19.5587 20.6839 18.7956 21 18 21H13.125Z" fill="#181818"/>
</svg>
