<svg width="237" height="147" viewBox="0 0 237 147" fill="none" xmlns="http://www.w3.org/2000/svg">
<g clip-path="url(#clip0_8218_19742)">
<rect width="236.88" height="257.16" rx="7.56" fill="white"/>
<mask id="path-2-inside-1_8218_19742" fill="white">
<path d="M0 0H236.88V36.16H0V0Z"/>
</mask>
<path d="M0 0H236.88V36.16H0V0Z" fill="white"/>
<path d="M236.88 35.53H0V36.79H236.88V35.53Z" fill="#1C1C1C" fill-opacity="0.1" mask="url(#path-2-inside-1_8218_19742)"/>
<path d="M13.4367 21.0801V14.0241H17.7812V15.0926H14.606V16.9674H17.4083V18.0158H14.606V20.0116H17.8115V21.0801H13.4367ZM22.2451 21.0801L22.1947 20.1326V18.4895C22.1947 18.1468 22.1577 17.8612 22.0838 17.6327C22.0166 17.3975 21.9024 17.2194 21.7411 17.0985C21.5865 16.9708 21.3782 16.907 21.1161 16.907C20.8742 16.907 20.6625 16.9574 20.4811 17.0582C20.2996 17.159 20.1451 17.3169 20.0174 17.5319L19.0296 17.169C19.1371 16.9473 19.2782 16.7423 19.4529 16.5542C19.6344 16.3593 19.8595 16.2047 20.1283 16.0905C20.4038 15.9762 20.7331 15.9191 21.1161 15.9191C21.6067 15.9191 22.0166 16.0166 22.3459 16.2114C22.6752 16.3996 22.9171 16.6718 23.0716 17.0279C23.2329 17.3841 23.3136 17.8142 23.3136 18.3182L23.2833 21.0801H22.2451ZM20.7936 21.201C20.1888 21.201 19.7184 21.0666 19.3824 20.7978C19.0531 20.529 18.8884 20.1494 18.8884 19.6588C18.8884 19.1346 19.0632 18.7348 19.4126 18.4593C19.7688 18.1838 20.2627 18.046 20.8944 18.046H22.2451V18.9129H21.2572C20.807 18.9129 20.4912 18.9767 20.3097 19.1044C20.1283 19.2254 20.0376 19.4001 20.0376 19.6286C20.0376 19.8234 20.1148 19.978 20.2694 20.0922C20.4307 20.1998 20.6524 20.2535 20.9347 20.2535C21.19 20.2535 21.4118 20.1964 21.6 20.0822C21.7881 19.9679 21.9326 19.8167 22.0334 19.6286C22.1409 19.4404 22.1947 19.2287 22.1947 18.9935H22.5273C22.5273 19.679 22.3896 20.2199 22.114 20.6164C21.8385 21.0062 21.3984 21.201 20.7936 21.201ZM25.2027 18.3988C25.2027 17.8545 25.3069 17.4076 25.5152 17.0582C25.7235 16.7087 25.9923 16.45 26.3216 16.282C26.6576 16.1073 27.007 16.0199 27.3699 16.0199V17.0985C27.0608 17.0985 26.7685 17.1422 26.4929 17.2295C26.2241 17.3102 26.0057 17.4446 25.8377 17.6327C25.6697 17.8209 25.5857 18.0695 25.5857 18.3786L25.2027 18.3988ZM24.4568 21.0801V16.0401H25.5857V21.0801H24.4568ZM28.1187 21.0801V16.0401H29.1771L29.2476 16.9674V21.0801H28.1187ZM31.5358 21.0801V18.4996H32.6647V21.0801H31.5358ZM31.5358 18.4996C31.5358 18.0964 31.4887 17.7873 31.3947 17.5722C31.3073 17.3505 31.1796 17.1959 31.0116 17.1086C30.8503 17.0212 30.6588 16.9775 30.4371 16.9775C30.0607 16.9708 29.7684 17.0951 29.5601 17.3505C29.3518 17.6058 29.2476 17.9721 29.2476 18.4492H28.8243C28.8243 17.9183 28.9015 17.4647 29.0561 17.0884C29.2107 16.7054 29.4324 16.4164 29.7214 16.2215C30.0103 16.0199 30.3531 15.9191 30.7495 15.9191C31.1527 15.9191 31.4955 15.9998 31.7777 16.161C32.0667 16.3223 32.2851 16.5743 32.4329 16.917C32.5875 17.253 32.6647 17.6932 32.6647 18.2375V18.4996H31.5358ZM36.4514 21.0801V14.0241H38.9412C39.425 14.0241 39.8517 14.1215 40.2213 14.3164C40.5909 14.5113 40.8799 14.7834 41.0882 15.1329C41.2965 15.4756 41.4007 15.8754 41.4007 16.3324C41.4007 16.7759 41.3033 17.1724 41.1084 17.5218C40.9135 17.8713 40.6413 18.1468 40.2919 18.3484C39.9492 18.5433 39.5493 18.6407 39.0924 18.6407H37.6207V21.0801H36.4514ZM37.6207 17.5622H39.0722C39.4082 17.5622 39.6837 17.4479 39.8988 17.2194C40.1138 16.991 40.2213 16.6953 40.2213 16.3324C40.2213 15.9628 40.1004 15.6638 39.8585 15.4353C39.6165 15.2068 39.3041 15.0926 38.921 15.0926H37.6207V17.5622ZM44.4447 21.201C43.9407 21.201 43.4905 21.0902 43.094 20.8684C42.7042 20.6399 42.3985 20.3274 42.1767 19.931C41.9549 19.5345 41.8441 19.0775 41.8441 18.5601C41.8441 18.0426 41.9516 17.5857 42.1666 17.1892C42.3884 16.7927 42.6941 16.4836 43.0839 16.2618C43.4737 16.0334 43.9205 15.9191 44.4245 15.9191C44.9285 15.9191 45.3754 16.0334 45.7652 16.2618C46.1549 16.4836 46.4573 16.7927 46.6724 17.1892C46.8941 17.5857 47.005 18.0426 47.005 18.5601C47.005 19.0775 46.8975 19.5345 46.6825 19.931C46.4674 20.3274 46.165 20.6399 45.7753 20.8684C45.3855 21.0902 44.942 21.201 44.4447 21.201ZM44.4447 20.1628C44.7202 20.1628 44.9655 20.0956 45.1805 19.9612C45.3956 19.8201 45.5636 19.6319 45.6845 19.3967C45.8055 19.1548 45.866 18.8759 45.866 18.5601C45.866 18.2442 45.8021 17.9687 45.6745 17.7335C45.5535 17.4916 45.3855 17.3034 45.1705 17.169C44.9554 17.0279 44.7068 16.9574 44.4245 16.9574C44.1423 16.9574 43.8937 17.0246 43.6786 17.159C43.4636 17.2934 43.2956 17.4815 43.1746 17.7234C43.0537 17.9654 42.9932 18.2442 42.9932 18.5601C42.9932 18.8759 43.0537 19.1548 43.1746 19.3967C43.3023 19.6319 43.4737 19.8201 43.6887 19.9612C43.9105 20.0956 44.1625 20.1628 44.4447 20.1628ZM48.0539 21.0801V16.0401H49.1728V21.0801H48.0539ZM48.6184 15.0825C48.4369 15.0825 48.279 15.0186 48.1446 14.891C48.0169 14.7566 47.9531 14.5986 47.9531 14.4172C47.9531 14.2358 48.0169 14.0812 48.1446 13.9535C48.279 13.8258 48.4369 13.762 48.6184 13.762C48.7998 13.762 48.9544 13.8258 49.0821 13.9535C49.2165 14.0812 49.2837 14.2358 49.2837 14.4172C49.2837 14.5986 49.2165 14.7566 49.0821 14.891C48.9544 15.0186 48.7998 15.0825 48.6184 15.0825ZM50.5033 21.0801V16.0401H51.5617L51.6323 16.9674V21.0801H50.5033ZM53.9205 21.0801V18.4996H55.0494V21.0801H53.9205ZM53.9205 18.4996C53.9205 18.0964 53.8734 17.7873 53.7793 17.5722C53.692 17.3505 53.5643 17.1959 53.3963 17.1086C53.235 17.0212 53.0435 16.9775 52.8217 16.9775C52.4454 16.9708 52.1531 17.0951 51.9448 17.3505C51.7365 17.6058 51.6323 17.9721 51.6323 18.4492H51.2089C51.2089 17.9183 51.2862 17.4647 51.4408 17.0884C51.5953 16.7054 51.8171 16.4164 52.1061 16.2215C52.395 16.0199 52.7377 15.9191 53.1342 15.9191C53.5374 15.9191 53.8801 15.9998 54.1624 16.161C54.4513 16.3223 54.6697 16.5743 54.8176 16.917C54.9721 17.253 55.0494 17.6932 55.0494 18.2375V18.4996H53.9205ZM58.1989 21.201C57.6681 21.201 57.2615 21.07 56.9793 20.8079C56.7037 20.5391 56.566 20.1561 56.566 19.6588V14.4676H57.6849V19.4471C57.6849 19.6823 57.7386 19.8604 57.8461 19.9814C57.9604 20.1023 58.125 20.1628 58.3401 20.1628C58.4073 20.1628 58.4812 20.1494 58.5618 20.1225C58.6425 20.0956 58.7332 20.0452 58.834 19.9713L59.2473 20.8281C59.0725 20.949 58.8978 21.0398 58.7231 21.1002C58.5484 21.1674 58.3737 21.201 58.1989 21.201ZM55.7293 17.0078V16.0401H59.0457V17.0078H55.7293ZM61.9848 21.201C61.6488 21.201 61.3397 21.1506 61.0574 21.0498C60.7752 20.949 60.5333 20.8079 60.3317 20.6265C60.1301 20.4383 59.9755 20.2199 59.868 19.9713L60.8457 19.5378C60.9465 19.726 61.0944 19.8839 61.2893 20.0116C61.4909 20.1393 61.7126 20.2031 61.9545 20.2031C62.2166 20.2031 62.4249 20.1594 62.5795 20.0721C62.7408 19.978 62.8214 19.8503 62.8214 19.689C62.8214 19.5345 62.7609 19.4169 62.64 19.3362C62.519 19.2489 62.3477 19.1783 62.1259 19.1246L61.6521 18.9935C61.175 18.8726 60.8021 18.681 60.5333 18.419C60.2645 18.1502 60.1301 17.8444 60.1301 17.5017C60.1301 16.9977 60.2913 16.6079 60.6139 16.3324C60.9432 16.0569 61.4136 15.9191 62.0251 15.9191C62.3342 15.9191 62.6165 15.9662 62.8718 16.0602C63.1339 16.1476 63.359 16.2753 63.5472 16.4433C63.7353 16.6046 63.8664 16.7961 63.9403 17.0178L63.0029 17.4412C62.9357 17.2732 62.808 17.1455 62.6198 17.0582C62.4317 16.9641 62.2233 16.917 61.9949 16.917C61.7664 16.917 61.5883 16.9674 61.4606 17.0682C61.3329 17.1623 61.2691 17.2967 61.2691 17.4714C61.2691 17.5722 61.3262 17.6663 61.4405 17.7537C61.5547 17.8343 61.7193 17.9015 61.9344 17.9553L62.5291 18.0964C62.8584 18.177 63.1272 18.3047 63.3355 18.4794C63.5438 18.6474 63.6984 18.839 63.7992 19.054C63.9 19.2623 63.9504 19.474 63.9504 19.689C63.9504 19.9914 63.863 20.2569 63.6883 20.4854C63.5203 20.7138 63.2885 20.8919 62.9928 21.0196C62.6971 21.1406 62.3611 21.201 61.9848 21.201Z" fill="#4C4C4C"/>
<rect x="209.16" y="10.52" width="15.12" height="15.12" rx="2.52" fill="#FBFBFB"/>
<path d="M214.519 20.282L216.721 18.08L218.923 20.282M218.923 15.8779L216.72 18.08L214.519 15.8779" stroke="#939393" stroke-width="0.945" stroke-linecap="round" stroke-linejoin="round"/>
<rect width="236.88" height="197.88" transform="translate(0 36.1602)" fill="#F8FAFC"/>
<g filter="url(#filter0_d_8218_19742)">
<path d="M12.6001 60.1002C12.6001 56.5777 12.6001 54.8165 13.1756 53.4272C13.9429 51.5748 15.4146 50.103 17.267 49.3357C18.6563 48.7603 20.4176 48.7603 23.9401 48.7603H212.94C216.463 48.7603 218.224 48.7603 219.613 49.3357C221.466 50.103 222.937 51.5748 223.705 53.4272C224.28 54.8165 224.28 56.5777 224.28 60.1003V89.1003C224.28 92.6228 224.28 94.384 223.705 95.7733C222.937 97.6258 221.466 99.0975 219.613 99.8648C218.224 100.44 216.463 100.44 212.94 100.44H23.9401C20.4176 100.44 18.6563 100.44 17.267 99.8648C15.4146 99.0975 13.9429 97.6258 13.1756 95.7733C12.6001 94.384 12.6001 92.6228 12.6001 89.1003V60.1002Z" fill="white" shape-rendering="crispEdges"/>
<rect x="22.6802" y="62.0005" width="25.2" height="25.2" rx="12.6" fill="#F4EBFF"/>
<circle opacity="0.4" cx="36.5403" cy="72.0803" r="1.26" fill="#9035FF"/>
<ellipse opacity="0.4" cx="36.9604" cy="76.7004" rx="2.1" ry="1.26" fill="#9035FF"/>
<ellipse cx="34.0208" cy="72.0809" rx="1.68" ry="1.68" fill="#9035FF"/>
<ellipse cx="34.0206" cy="76.701" rx="2.94" ry="1.68" fill="#9035FF"/>
<path d="M58.0711 69.9613C57.3923 69.9613 56.7875 69.8067 56.2567 69.4976C55.7325 69.1818 55.3192 68.7517 55.0168 68.2074C54.7211 67.6563 54.5733 67.0247 54.5733 66.3123C54.5733 65.6 54.7211 64.9717 55.0168 64.4274C55.3192 63.8763 55.7325 63.4463 56.2567 63.1371C56.7808 62.8213 57.3823 62.6634 58.061 62.6634C58.5179 62.6634 58.948 62.7474 59.3512 62.9154C59.7544 63.0767 60.1106 63.3018 60.4197 63.5907C60.7355 63.8797 60.9775 64.2157 61.1455 64.5987L60.077 65.0322C59.956 64.7768 59.7914 64.5517 59.5831 64.3568C59.3815 64.1552 59.1496 64.0007 58.8875 63.8931C58.6255 63.7856 58.3499 63.7319 58.061 63.7319C57.6175 63.7319 57.221 63.8427 56.8715 64.0645C56.5288 64.2863 56.2567 64.592 56.0551 64.9818C55.8602 65.3648 55.7627 65.8083 55.7627 66.3123C55.7627 66.8163 55.8602 67.2632 56.0551 67.653C56.2567 68.0427 56.5322 68.3485 56.8816 68.5703C57.2378 68.792 57.641 68.9029 58.0912 68.9029C58.3869 68.9029 58.6624 68.8458 58.9178 68.7315C59.1799 68.6106 59.4117 68.4459 59.6133 68.2376C59.8216 68.0293 59.9863 67.7874 60.1072 67.5119L61.1757 67.9453C61.0077 68.3418 60.7691 68.6946 60.46 69.0037C60.1509 69.3061 59.7914 69.5413 59.3815 69.7093C58.9715 69.8773 58.5347 69.9613 58.0711 69.9613ZM62.8354 67.1591C62.8354 66.6147 62.9396 66.1679 63.1479 65.8184C63.3562 65.469 63.625 65.2103 63.9543 65.0423C64.2903 64.8675 64.6398 64.7802 65.0026 64.7802V65.8587C64.6935 65.8587 64.4012 65.9024 64.1257 65.9898C63.8569 66.0704 63.6385 66.2048 63.4705 66.393C63.3025 66.5811 63.2185 66.8298 63.2185 67.1389L62.8354 67.1591ZM62.0895 69.8403V64.8003H63.2185V69.8403H62.0895ZM67.9992 69.9613C67.5087 69.9613 67.0719 69.8504 66.6888 69.6287C66.3125 69.4002 66.0135 69.0877 65.7917 68.6912C65.5767 68.2947 65.4691 67.8378 65.4691 67.3203C65.4691 66.8029 65.58 66.3459 65.8018 65.9495C66.0235 65.553 66.3259 65.2439 66.709 65.0221C67.0987 64.7936 67.5423 64.6794 68.0395 64.6794C68.4898 64.6794 68.8963 64.797 69.2592 65.0322C69.6221 65.2607 69.9077 65.5933 70.116 66.0301C70.3311 66.4669 70.4386 66.9877 70.4386 67.5925H66.4771L66.6283 67.4514C66.6283 67.7605 66.6955 68.0293 66.8299 68.2578C66.9643 68.4795 67.1424 68.6509 67.3642 68.7719C67.5859 68.8928 67.8312 68.9533 68.1 68.9533C68.4091 68.9533 68.6645 68.8861 68.8661 68.7517C69.0677 68.6106 69.2256 68.4291 69.3399 68.2074L70.3378 68.6307C70.1967 68.8995 70.0152 69.1347 69.7935 69.3363C69.5784 69.5379 69.3197 69.6925 69.0173 69.8C68.7216 69.9075 68.3823 69.9613 67.9992 69.9613ZM66.6989 66.8667L66.5376 66.7256H69.3802L69.229 66.8667C69.229 66.5912 69.1685 66.3661 69.0475 66.1914C68.9266 66.0099 68.772 65.8755 68.5839 65.7882C68.4024 65.6941 68.2109 65.6471 68.0093 65.6471C67.8077 65.6471 67.6061 65.6941 67.4045 65.7882C67.2029 65.8755 67.0349 66.0099 66.9005 66.1914C66.7661 66.3661 66.6989 66.5912 66.6989 66.8667ZM74.3777 69.8403L74.3273 68.8928V67.2498C74.3273 66.9071 74.2903 66.6215 74.2164 66.393C74.1492 66.1578 74.0349 65.9797 73.8737 65.8587C73.7191 65.7311 73.5108 65.6672 73.2487 65.6672C73.0068 65.6672 72.7951 65.7176 72.6137 65.8184C72.4322 65.9192 72.2777 66.0771 72.15 66.2922L71.1621 65.9293C71.2697 65.7075 71.4108 65.5026 71.5855 65.3144C71.7669 65.1195 71.9921 64.965 72.2609 64.8507C72.5364 64.7365 72.8657 64.6794 73.2487 64.6794C73.7393 64.6794 74.1492 64.7768 74.4785 64.9717C74.8077 65.1599 75.0497 65.432 75.2042 65.7882C75.3655 66.1443 75.4461 66.5744 75.4461 67.0784L75.4159 69.8403H74.3777ZM72.9261 69.9613C72.3213 69.9613 71.8509 69.8269 71.5149 69.5581C71.1857 69.2893 71.021 68.9096 71.021 68.4191C71.021 67.8949 71.1957 67.4951 71.5452 67.2195C71.9013 66.944 72.3953 66.8063 73.0269 66.8063H74.3777V67.6731H73.3898C72.9396 67.6731 72.6237 67.737 72.4423 67.8647C72.2609 67.9856 72.1701 68.1603 72.1701 68.3888C72.1701 68.5837 72.2474 68.7383 72.402 68.8525C72.5633 68.96 72.785 69.0138 73.0673 69.0138C73.3226 69.0138 73.5444 68.9567 73.7325 68.8424C73.9207 68.7282 74.0652 68.577 74.166 68.3888C74.2735 68.2007 74.3273 67.989 74.3273 67.7538H74.6599C74.6599 68.4392 74.5221 68.9802 74.2466 69.3767C73.9711 69.7664 73.5309 69.9613 72.9261 69.9613ZM78.5953 69.9613C78.0644 69.9613 77.6578 69.8303 77.3756 69.5682C77.1001 69.2994 76.9623 68.9163 76.9623 68.4191V63.2279H78.0812V68.2074C78.0812 68.4426 78.135 68.6207 78.2425 68.7416C78.3567 68.8626 78.5214 68.9231 78.7364 68.9231C78.8036 68.9231 78.8775 68.9096 78.9582 68.8827C79.0388 68.8559 79.1295 68.8055 79.2303 68.7315L79.6436 69.5883C79.4689 69.7093 79.2942 69.8 79.1194 69.8605C78.9447 69.9277 78.77 69.9613 78.5953 69.9613ZM76.1257 65.768V64.8003H79.442V65.768H76.1257ZM82.7353 69.9613C82.2448 69.9613 81.808 69.8504 81.4249 69.6287C81.0486 69.4002 80.7496 69.0877 80.5278 68.6912C80.3128 68.2947 80.2052 67.8378 80.2052 67.3203C80.2052 66.8029 80.3161 66.3459 80.5379 65.9495C80.7596 65.553 81.062 65.2439 81.4451 65.0221C81.8348 64.7936 82.2784 64.6794 82.7756 64.6794C83.2259 64.6794 83.6324 64.797 83.9953 65.0322C84.3582 65.2607 84.6438 65.5933 84.8521 66.0301C85.0672 66.4669 85.1747 66.9877 85.1747 67.5925H81.2132L81.3644 67.4514C81.3644 67.7605 81.4316 68.0293 81.566 68.2578C81.7004 68.4795 81.8785 68.6509 82.1003 68.7719C82.322 68.8928 82.5673 68.9533 82.8361 68.9533C83.1452 68.9533 83.4006 68.8861 83.6022 68.7517C83.8038 68.6106 83.9617 68.4291 84.076 68.2074L85.0739 68.6307C84.9328 68.8995 84.7513 69.1347 84.5296 69.3363C84.3145 69.5379 84.0558 69.6925 83.7534 69.8C83.4577 69.9075 83.1184 69.9613 82.7353 69.9613ZM81.435 66.8667L81.2737 66.7256H84.1163L83.9651 66.8667C83.9651 66.5912 83.9046 66.3661 83.7836 66.1914C83.6627 66.0099 83.5081 65.8755 83.32 65.7882C83.1385 65.6941 82.947 65.6471 82.7454 65.6471C82.5438 65.6471 82.3422 65.6941 82.1406 65.7882C81.939 65.8755 81.771 66.0099 81.6366 66.1914C81.5022 66.3661 81.435 66.5912 81.435 66.8667ZM91.5452 69.8403L91.4948 68.8928V67.2498C91.4948 66.9071 91.4578 66.6215 91.3839 66.393C91.3167 66.1578 91.2024 65.9797 91.0412 65.8587C90.8866 65.7311 90.6783 65.6672 90.4162 65.6672C90.1743 65.6672 89.9626 65.7176 89.7812 65.8184C89.5997 65.9192 89.4452 66.0771 89.3175 66.2922L88.3296 65.9293C88.4372 65.7075 88.5783 65.5026 88.753 65.3144C88.9344 65.1195 89.1596 64.965 89.4284 64.8507C89.7039 64.7365 90.0332 64.6794 90.4162 64.6794C90.9068 64.6794 91.3167 64.7768 91.646 64.9717C91.9752 65.1599 92.2172 65.432 92.3717 65.7882C92.533 66.1443 92.6136 66.5744 92.6136 67.0784L92.5834 69.8403H91.5452ZM90.0936 69.9613C89.4888 69.9613 89.0184 69.8269 88.6824 69.5581C88.3532 69.2893 88.1885 68.9096 88.1885 68.4191C88.1885 67.8949 88.3632 67.4951 88.7127 67.2195C89.0688 66.944 89.5628 66.8063 90.1944 66.8063H91.5452V67.6731H90.5573C90.1071 67.6731 89.7912 67.737 89.6098 67.8647C89.4284 67.9856 89.3376 68.1603 89.3376 68.3888C89.3376 68.5837 89.4149 68.7383 89.5695 68.8525C89.7308 68.96 89.9525 69.0138 90.2348 69.0138C90.4901 69.0138 90.7119 68.9567 90.9 68.8424C91.0882 68.7282 91.2327 68.577 91.3335 68.3888C91.441 68.2007 91.4948 67.989 91.4948 67.7538H91.8274C91.8274 68.4392 91.6896 68.9802 91.4141 69.3767C91.1386 69.7664 90.6984 69.9613 90.0936 69.9613ZM93.7569 69.8403V64.8003H94.8153L94.8858 65.7277V69.8403H93.7569ZM97.174 69.8403V67.2599H98.3029V69.8403H97.174ZM97.174 67.2599C97.174 66.8567 97.1269 66.5475 97.0329 66.3325C96.9455 66.1107 96.8178 65.9562 96.6498 65.8688C96.4885 65.7815 96.297 65.7378 96.0753 65.7378C95.6989 65.7311 95.4066 65.8554 95.1983 66.1107C94.99 66.3661 94.8858 66.7323 94.8858 67.2095H94.4625C94.4625 66.6786 94.5397 66.225 94.6943 65.8487C94.8489 65.4656 95.0706 65.1767 95.3596 64.9818C95.6485 64.7802 95.9913 64.6794 96.3877 64.6794C96.7909 64.6794 97.1337 64.76 97.4159 64.9213C97.7049 65.0826 97.9233 65.3346 98.0711 65.6773C98.2257 66.0133 98.3029 66.4535 98.3029 66.9978V67.2599H97.174ZM104.952 69.8403L104.902 68.8928V67.2498C104.902 66.9071 104.865 66.6215 104.791 66.393C104.724 66.1578 104.61 65.9797 104.448 65.8587C104.294 65.7311 104.085 65.6672 103.823 65.6672C103.581 65.6672 103.37 65.7176 103.188 65.8184C103.007 65.9192 102.852 66.0771 102.725 66.2922L101.737 65.9293C101.844 65.7075 101.985 65.5026 102.16 65.3144C102.342 65.1195 102.567 64.965 102.836 64.8507C103.111 64.7365 103.44 64.6794 103.823 64.6794C104.314 64.6794 104.724 64.7768 105.053 64.9717C105.382 65.1599 105.624 65.432 105.779 65.7882C105.94 66.1443 106.021 66.5744 106.021 67.0784L105.991 69.8403H104.952ZM103.501 69.9613C102.896 69.9613 102.426 69.8269 102.09 69.5581C101.76 69.2893 101.596 68.9096 101.596 68.4191C101.596 67.8949 101.77 67.4951 102.12 67.2195C102.476 66.944 102.97 66.8063 103.602 66.8063H104.952V67.6731H103.965C103.514 67.6731 103.198 67.737 103.017 67.8647C102.836 67.9856 102.745 68.1603 102.745 68.3888C102.745 68.5837 102.822 68.7383 102.977 68.8525C103.138 68.96 103.36 69.0138 103.642 69.0138C103.897 69.0138 104.119 68.9567 104.307 68.8424C104.495 68.7282 104.64 68.577 104.741 68.3888C104.848 68.2007 104.902 67.989 104.902 67.7538H105.235C105.235 68.4392 105.097 68.9802 104.821 69.3767C104.546 69.7664 104.106 69.9613 103.501 69.9613ZM109.523 69.9613C109.005 69.9613 108.548 69.8504 108.152 69.6287C107.755 69.4002 107.443 69.0877 107.214 68.6912C106.993 68.2947 106.882 67.8378 106.882 67.3203C106.882 66.8029 106.993 66.3459 107.214 65.9495C107.443 65.553 107.752 65.2439 108.142 65.0221C108.538 64.7936 108.992 64.6794 109.503 64.6794C110 64.6794 110.45 64.8003 110.853 65.0423C111.257 65.2775 111.556 65.6168 111.75 66.0603L110.702 66.4635C110.595 66.2418 110.43 66.0637 110.208 65.9293C109.986 65.7949 109.734 65.7277 109.452 65.7277C109.177 65.7277 108.931 65.7983 108.716 65.9394C108.501 66.0738 108.333 66.2619 108.212 66.5039C108.091 66.7391 108.031 67.0112 108.031 67.3203C108.031 67.6295 108.091 67.905 108.212 68.1469C108.34 68.3821 108.511 68.5703 108.726 68.7114C108.948 68.8458 109.197 68.913 109.472 68.913C109.755 68.913 110.007 68.8424 110.228 68.7013C110.45 68.5535 110.615 68.3552 110.722 68.1066L111.771 68.5098C111.576 68.9667 111.277 69.3229 110.873 69.5783C110.477 69.8336 110.027 69.9613 109.523 69.9613ZM115.006 69.9613C114.488 69.9613 114.031 69.8504 113.635 69.6287C113.238 69.4002 112.926 69.0877 112.697 68.6912C112.476 68.2947 112.365 67.8378 112.365 67.3203C112.365 66.8029 112.476 66.3459 112.697 65.9495C112.926 65.553 113.235 65.2439 113.625 65.0221C114.021 64.7936 114.475 64.6794 114.986 64.6794C115.483 64.6794 115.933 64.8003 116.336 65.0423C116.739 65.2775 117.039 65.6168 117.233 66.0603L116.185 66.4635C116.078 66.2418 115.913 66.0637 115.691 65.9293C115.469 65.7949 115.217 65.7277 114.935 65.7277C114.66 65.7277 114.414 65.7983 114.199 65.9394C113.984 66.0738 113.816 66.2619 113.695 66.5039C113.574 66.7391 113.514 67.0112 113.514 67.3203C113.514 67.6295 113.574 67.905 113.695 68.1469C113.823 68.3821 113.994 68.5703 114.209 68.7114C114.431 68.8458 114.68 68.913 114.955 68.913C115.238 68.913 115.49 68.8424 115.711 68.7013C115.933 68.5535 116.098 68.3552 116.205 68.1066L117.254 68.5098C117.059 68.9667 116.76 69.3229 116.356 69.5783C115.96 69.8336 115.51 69.9613 115.006 69.9613ZM120.448 69.9613C119.944 69.9613 119.494 69.8504 119.098 69.6287C118.708 69.4002 118.402 69.0877 118.18 68.6912C117.959 68.2947 117.848 67.8378 117.848 67.3203C117.848 66.8029 117.955 66.3459 118.17 65.9495C118.392 65.553 118.698 65.2439 119.088 65.0221C119.477 64.7936 119.924 64.6794 120.428 64.6794C120.932 64.6794 121.379 64.7936 121.769 65.0221C122.159 65.2439 122.461 65.553 122.676 65.9495C122.898 66.3459 123.009 66.8029 123.009 67.3203C123.009 67.8378 122.901 68.2947 122.686 68.6912C122.471 69.0877 122.169 69.4002 121.779 69.6287C121.389 69.8504 120.946 69.9613 120.448 69.9613ZM120.448 68.9231C120.724 68.9231 120.969 68.8559 121.184 68.7215C121.399 68.5803 121.567 68.3922 121.688 68.157C121.809 67.9151 121.87 67.6362 121.87 67.3203C121.87 67.0045 121.806 66.729 121.678 66.4938C121.557 66.2519 121.389 66.0637 121.174 65.9293C120.959 65.7882 120.71 65.7176 120.428 65.7176C120.146 65.7176 119.897 65.7848 119.682 65.9192C119.467 66.0536 119.299 66.2418 119.178 66.4837C119.057 66.7256 118.997 67.0045 118.997 67.3203C118.997 67.6362 119.057 67.9151 119.178 68.157C119.306 68.3922 119.477 68.5803 119.692 68.7215C119.914 68.8559 120.166 68.9231 120.448 68.9231ZM127.364 69.8403L127.303 68.913V64.8003H128.422V69.8403H127.364ZM123.876 67.3808V64.8003H125.005V67.3808H123.876ZM125.005 67.3808C125.005 67.7773 125.052 68.0864 125.146 68.3082C125.24 68.5299 125.368 68.6845 125.529 68.7719C125.697 68.8592 125.889 68.9029 126.104 68.9029C126.487 68.9096 126.783 68.7853 126.991 68.5299C127.199 68.2746 127.303 67.9083 127.303 67.4312H127.727C127.727 67.9621 127.646 68.4191 127.485 68.8021C127.33 69.1784 127.108 69.4674 126.819 69.669C126.537 69.8639 126.195 69.9613 125.791 69.9613C125.395 69.9613 125.052 69.8807 124.763 69.7194C124.481 69.5581 124.263 69.3061 124.108 68.9634C123.953 68.6207 123.876 68.1805 123.876 67.6429V67.3808H125.005ZM129.677 69.8403V64.8003H130.735L130.806 65.7277V69.8403H129.677ZM133.094 69.8403V67.2599H134.223V69.8403H133.094ZM133.094 67.2599C133.094 66.8567 133.047 66.5475 132.953 66.3325C132.865 66.1107 132.738 65.9562 132.57 65.8688C132.408 65.7815 132.217 65.7378 131.995 65.7378C131.619 65.7311 131.326 65.8554 131.118 66.1107C130.91 66.3661 130.806 66.7323 130.806 67.2095H130.382C130.382 66.6786 130.46 66.225 130.614 65.8487C130.769 65.4656 130.99 65.1767 131.279 64.9818C131.568 64.7802 131.911 64.6794 132.308 64.6794C132.711 64.6794 133.053 64.76 133.336 64.9213C133.625 65.0826 133.843 65.3346 133.991 65.6773C134.145 66.0133 134.223 66.4535 134.223 66.9978V67.2599H133.094ZM137.372 69.9613C136.841 69.9613 136.435 69.8303 136.153 69.5682C135.877 69.2994 135.739 68.9163 135.739 68.4191V63.2279H136.858V68.2074C136.858 68.4426 136.912 68.6207 137.02 68.7416C137.134 68.8626 137.298 68.9231 137.513 68.9231C137.581 68.9231 137.655 68.9096 137.735 68.8827C137.816 68.8559 137.907 68.8055 138.007 68.7315L138.421 69.5883C138.246 69.7093 138.071 69.8 137.896 69.8605C137.722 69.9277 137.547 69.9613 137.372 69.9613ZM134.903 65.768V64.8003H138.219V65.768H134.903Z" fill="#2C2C2C"/>
<path d="M57.7964 86.4662C57.1672 86.4662 56.6116 86.331 56.1294 86.0605C55.6472 85.7841 55.268 85.4078 54.9916 84.9315C54.7211 84.4494 54.5859 83.8996 54.5859 83.2822C54.5859 82.653 54.7211 82.1003 54.9916 81.624C55.268 81.1419 55.6472 80.7655 56.1294 80.4951C56.6116 80.2187 57.1672 80.0805 57.7964 80.0805C58.1257 80.0805 58.4461 80.1364 58.7578 80.2481C59.0694 80.3539 59.3546 80.5009 59.6133 80.6891C59.872 80.8773 60.0808 81.0919 60.2395 81.333L59.6486 81.7387C59.531 81.5505 59.3722 81.3829 59.1723 81.2359C58.9724 81.0831 58.7519 80.9655 58.5108 80.8831C58.2756 80.8008 58.0375 80.7597 57.7964 80.7597C57.3201 80.7597 56.8967 80.8684 56.5263 81.086C56.1559 81.2977 55.8648 81.5917 55.6531 81.968C55.4414 82.3443 55.3356 82.7824 55.3356 83.2822C55.3356 83.7643 55.4385 84.1965 55.6443 84.5787C55.856 84.955 56.147 85.252 56.5175 85.4695C56.8938 85.6871 57.3201 85.7959 57.7964 85.7959C58.1962 85.7959 58.549 85.7136 58.8548 85.5489C59.1664 85.3784 59.4104 85.1461 59.5868 84.8521C59.7632 84.5523 59.8514 84.2083 59.8514 83.8202L60.5659 83.7673C60.5659 84.3082 60.4483 84.7816 60.2131 85.1873C59.9779 85.5871 59.6515 85.9017 59.234 86.131C58.8166 86.3545 58.3373 86.4662 57.7964 86.4662ZM58.3344 83.8555V83.2116H60.5659V83.7937L60.2131 83.8555H58.3344ZM63.4303 86.4662C63.001 86.4662 62.6218 86.3692 62.2925 86.1751C61.9632 85.9752 61.7045 85.7018 61.5163 85.3549C61.3341 85.008 61.2429 84.6081 61.2429 84.1554C61.2429 83.7026 61.3341 83.3028 61.5163 82.9558C61.7045 82.6089 61.9603 82.3384 62.2837 82.1444C62.613 81.9445 62.9893 81.8445 63.4126 81.8445C63.8242 81.8445 64.18 81.9474 64.4799 82.1532C64.7797 82.3531 65.012 82.6354 65.1766 82.9999C65.3413 83.3645 65.4236 83.7937 65.4236 84.2877H61.7809L61.9573 84.1377C61.9573 84.4905 62.0191 84.7933 62.1426 85.0462C62.2719 85.299 62.4513 85.4931 62.6806 85.6283C62.9099 85.7577 63.1716 85.8223 63.4656 85.8223C63.7772 85.8223 64.0389 85.7488 64.2505 85.6018C64.4681 85.4548 64.6357 85.2608 64.7533 85.0197L65.3619 85.3284C65.2501 85.5577 65.1002 85.7577 64.912 85.9282C64.7298 86.0987 64.5122 86.231 64.2594 86.3251C64.0124 86.4192 63.736 86.4662 63.4303 86.4662ZM62.0014 83.8378L61.8162 83.6967H64.8591L64.6739 83.8467C64.6739 83.5644 64.618 83.3204 64.5063 83.1146C64.3946 82.9088 64.2447 82.75 64.0565 82.6383C63.8683 82.5266 63.6508 82.4707 63.4038 82.4707C63.1627 82.4707 62.9334 82.5266 62.7159 82.6383C62.5042 82.75 62.3307 82.9088 62.1955 83.1146C62.0661 83.3145 62.0014 83.5556 62.0014 83.8378ZM67.9717 86.4662C67.5425 86.4662 67.2102 86.3545 66.975 86.131C66.7398 85.9076 66.6222 85.593 66.6222 85.1873V80.5744H67.3278V85.1167C67.3278 85.3402 67.3866 85.5136 67.5042 85.6371C67.6277 85.7547 67.7982 85.8135 68.0158 85.8135C68.0864 85.8135 68.154 85.8047 68.2187 85.7871C68.2892 85.7635 68.3804 85.7106 68.4921 85.6283L68.7655 86.2016C68.6126 86.3016 68.4744 86.3692 68.351 86.4045C68.2275 86.4456 68.1011 86.4662 67.9717 86.4662ZM65.8549 82.5766V81.9504H68.6508V82.5766H65.8549ZM71.7114 86.3604V85.743C71.7114 85.5489 71.7496 85.3578 71.826 85.1697C71.9084 84.9756 72.023 84.7845 72.17 84.5964C72.3229 84.4082 72.5081 84.2318 72.7257 84.0672L74.0046 83.1058C74.1575 82.9999 74.2898 82.8794 74.4015 82.7442C74.5191 82.603 74.6102 82.459 74.6749 82.312C74.7396 82.1591 74.7719 82.0121 74.7719 81.871C74.7719 81.6652 74.7219 81.48 74.622 81.3153C74.522 81.1448 74.3809 81.0096 74.1986 80.9096C74.0163 80.8096 73.8017 80.7597 73.5548 80.7597C73.3137 80.7597 73.102 80.8067 72.9197 80.9008C72.7374 80.989 72.5875 81.1095 72.4699 81.2624C72.3523 81.4094 72.267 81.5682 72.2141 81.7387L71.4556 81.5887C71.5262 81.3241 71.6526 81.0772 71.8349 80.8479C72.023 80.6185 72.2612 80.4333 72.5493 80.2922C72.8374 80.1511 73.1579 80.0805 73.5107 80.0805C73.9223 80.0805 74.278 80.1599 74.5779 80.3187C74.8778 80.4715 75.11 80.6832 75.2747 80.9537C75.4452 81.2183 75.5304 81.5211 75.5304 81.8622C75.5304 82.1856 75.4422 82.4913 75.2658 82.7794C75.0894 83.0676 74.8337 83.3469 74.4985 83.6173L73.2902 84.5346C73.055 84.711 72.8727 84.8962 72.7433 85.0903C72.6198 85.2843 72.5493 85.4872 72.5316 85.6989H75.6186V86.3604H71.7114ZM78.9578 86.4662C78.4874 86.4662 78.0699 86.331 77.7054 86.0605C77.3408 85.7841 77.0556 85.4078 76.8498 84.9315C76.644 84.4494 76.5411 83.8966 76.5411 83.2734C76.5411 82.6501 76.644 82.1003 76.8498 81.624C77.0556 81.1419 77.3379 80.7655 77.6966 80.4951C78.0611 80.2187 78.4815 80.0805 78.9578 80.0805C79.4341 80.0805 79.8516 80.2187 80.2103 80.4951C80.5748 80.7655 80.86 81.1419 81.0658 81.624C81.2775 82.1003 81.3833 82.6501 81.3833 83.2734C81.3833 83.8966 81.2804 84.4494 81.0746 84.9315C80.8688 85.4078 80.5836 85.7841 80.2191 86.0605C79.8545 86.331 79.4341 86.4662 78.9578 86.4662ZM78.9578 85.7959C79.2871 85.7959 79.5782 85.6871 79.831 85.4695C80.0897 85.252 80.2896 84.955 80.4308 84.5787C80.5778 84.2024 80.6513 83.7673 80.6513 83.2734C80.6513 82.7794 80.5778 82.3443 80.4308 81.968C80.2896 81.5858 80.0897 81.2889 79.831 81.0772C79.5782 80.8596 79.2871 80.7508 78.9578 80.7508C78.6285 80.7508 78.3375 80.8596 78.0846 81.0772C77.8318 81.2889 77.6319 81.5858 77.4849 81.968C77.3438 82.3443 77.2732 82.7794 77.2732 83.2734C77.2732 83.7673 77.3438 84.2024 77.4849 84.5787C77.6319 84.955 77.8318 85.252 78.0846 85.4695C78.3434 85.6871 78.6344 85.7959 78.9578 85.7959ZM84.6081 86.4662C84.1377 86.4662 83.7203 86.331 83.3557 86.0605C82.9911 85.7841 82.706 85.4078 82.5002 84.9315C82.2944 84.4494 82.1915 83.8966 82.1915 83.2734C82.1915 82.6501 82.2944 82.1003 82.5002 81.624C82.706 81.1419 82.9882 80.7655 83.3469 80.4951C83.7114 80.2187 84.1319 80.0805 84.6081 80.0805C85.0844 80.0805 85.5019 80.2187 85.8606 80.4951C86.2251 80.7655 86.5103 81.1419 86.7161 81.624C86.9278 82.1003 87.0336 82.6501 87.0336 83.2734C87.0336 83.8966 86.9307 84.4494 86.7249 84.9315C86.5191 85.4078 86.234 85.7841 85.8694 86.0605C85.5048 86.331 85.0844 86.4662 84.6081 86.4662ZM84.6081 85.7959C84.9374 85.7959 85.2285 85.6871 85.4813 85.4695C85.74 85.252 85.94 84.955 86.0811 84.5787C86.2281 84.2024 86.3016 83.7673 86.3016 83.2734C86.3016 82.7794 86.2281 82.3443 86.0811 81.968C85.94 81.5858 85.74 81.2889 85.4813 81.0772C85.2285 80.8596 84.9374 80.7508 84.6081 80.7508C84.2789 80.7508 83.9878 80.8596 83.735 81.0772C83.4821 81.2889 83.2822 81.5858 83.1352 81.968C82.9941 82.3443 82.9235 82.7794 82.9235 83.2734C82.9235 83.7673 82.9941 84.2024 83.1352 84.5787C83.2822 84.955 83.4821 85.252 83.735 85.4695C83.9937 85.6871 84.2847 85.7959 84.6081 85.7959ZM89.7034 86.3604L92.0848 82.9735L94.0429 80.1864H94.9337L92.5876 83.4321L90.6031 86.3604H89.7034ZM94.0429 86.3604L92.0584 83.4321L89.7122 80.1864H90.6031L92.5611 82.9647L94.9425 86.3604H94.0429ZM95.8532 86.3604V80.1864H97.8642C98.264 80.1864 98.6168 80.2687 98.9226 80.4333C99.2342 80.598 99.4753 80.8273 99.6458 81.1213C99.8222 81.4153 99.9104 81.7563 99.9104 82.1444C99.9104 82.5207 99.831 82.8559 99.6723 83.1499C99.5135 83.4439 99.296 83.6761 99.0196 83.8467C98.7432 84.0113 98.4228 84.0936 98.0582 84.0936H96.6029V86.3604H95.8532ZM96.6029 83.4145H98.0582C98.3816 83.4145 98.6462 83.2969 98.852 83.0617C99.0637 82.8206 99.1695 82.5148 99.1695 82.1444C99.1695 81.7622 99.0461 81.4535 98.7991 81.2183C98.5521 80.9831 98.2376 80.8655 97.8554 80.8655H96.6029V83.4145Z" fill="#939393"/>
<rect x="194.04" y="64.52" width="20.16" height="20.16" rx="10.08" fill="#EBFFF7"/>
<path d="M206.344 73.0061C206.529 73.1906 206.529 73.4898 206.344 73.6743L203.824 76.1943C203.643 76.3761 203.349 76.3791 203.163 76.201L201.903 74.9914C201.715 74.8107 201.709 74.5116 201.889 74.3234C202.07 74.1351 202.369 74.129 202.558 74.3097L203.484 75.1987L205.676 73.0061C205.861 72.8215 206.16 72.8215 206.344 73.0061Z" fill="#098849"/>
</g>
<g filter="url(#filter1_d_8218_19742)">
<path d="M12.6001 121.86C12.6001 118.337 12.6001 116.576 13.1756 115.187C13.9429 113.335 15.4146 111.863 17.267 111.095C18.6563 110.52 20.4176 110.52 23.9401 110.52H212.94C216.463 110.52 218.224 110.52 219.613 111.095C221.466 111.863 222.937 113.335 223.705 115.187C224.28 116.576 224.28 118.338 224.28 121.86V149.6C224.28 153.123 224.28 154.884 223.705 156.273C222.937 158.126 221.466 159.597 219.613 160.365C218.224 160.94 216.463 160.94 212.94 160.94H23.9401C20.4176 160.94 18.6563 160.94 17.267 160.365C15.4146 159.597 13.9429 158.126 13.1756 156.273C12.6001 154.884 12.6001 153.123 12.6001 149.6V121.86Z" fill="white" shape-rendering="crispEdges"/>
<rect x="22.6802" y="123.13" width="25.2" height="25.2" rx="12.6" fill="#F4EBFF"/>
<path d="M33.1551 132.79C33.155 133.013 33.0664 133.227 32.9088 133.384C32.7512 133.541 32.5375 133.63 32.3147 133.63C32.0919 133.63 31.8783 133.541 31.7208 133.383C31.5634 133.226 31.475 133.012 31.4751 132.789C31.4752 132.567 31.5638 132.353 31.7214 132.195C31.879 132.038 32.0927 131.95 32.3155 131.95C32.5383 131.95 32.7519 132.038 32.9094 132.196C33.0668 132.354 33.1552 132.567 33.1551 132.79ZM33.1803 134.252H31.5003V139.51H33.1803V134.252ZM35.8347 134.252H34.1631V139.51H35.8179V136.751C35.8179 135.214 37.8213 135.071 37.8213 136.751V139.51H39.4803V136.18C39.4803 133.588 36.5151 133.685 35.8179 134.957L35.8347 134.252Z" fill="#9035FF"/>
<path d="M55.0168 131.6V124.544H56.1861V130.532H59.3815V131.6H55.0168ZM60.2209 131.6V126.56H61.3397V131.6H60.2209ZM60.7853 125.602C60.6039 125.602 60.446 125.539 60.3116 125.411C60.1839 125.277 60.1201 125.119 60.1201 124.937C60.1201 124.756 60.1839 124.601 60.3116 124.474C60.446 124.346 60.6039 124.282 60.7853 124.282C60.9668 124.282 61.1213 124.346 61.249 124.474C61.3834 124.601 61.4506 124.756 61.4506 124.937C61.4506 125.119 61.3834 125.277 61.249 125.411C61.1213 125.539 60.9668 125.602 60.7853 125.602ZM63.7489 130.189L63.0634 129.413L65.6842 126.56H67.045L63.7489 130.189ZM62.6703 131.6V124.544H63.7993V131.6H62.6703ZM65.8757 131.6L64.1017 128.989L64.8375 128.203L67.2164 131.6H65.8757ZM69.9286 131.721C69.438 131.721 69.0012 131.61 68.6182 131.388C68.2419 131.16 67.9428 130.847 67.7211 130.451C67.506 130.054 67.3985 129.598 67.3985 129.08C67.3985 128.563 67.5094 128.106 67.7312 127.709C67.9529 127.313 68.2553 127.004 68.6384 126.782C69.0281 126.553 69.4716 126.439 69.9689 126.439C70.4192 126.439 70.8257 126.557 71.1886 126.792C71.5515 127.02 71.8371 127.353 72.0454 127.79C72.2604 128.227 72.368 128.747 72.368 129.352H68.4065L68.5577 129.211C68.5577 129.52 68.6249 129.789 68.7593 130.018C68.8937 130.239 69.0718 130.411 69.2936 130.532C69.5153 130.653 69.7606 130.713 70.0294 130.713C70.3385 130.713 70.5939 130.646 70.7955 130.511C70.9971 130.37 71.155 130.189 71.2692 129.967L72.2672 130.39C72.126 130.659 71.9446 130.894 71.7228 131.096C71.5078 131.298 71.2491 131.452 70.9467 131.56C70.651 131.667 70.3116 131.721 69.9286 131.721ZM68.6283 128.626L68.467 128.485H71.3096L71.1584 128.626C71.1584 128.351 71.0979 128.126 70.9769 127.951C70.856 127.77 70.7014 127.635 70.5132 127.548C70.3318 127.454 70.1403 127.407 69.9387 127.407C69.7371 127.407 69.5355 127.454 69.3339 127.548C69.1323 127.635 68.9643 127.77 68.8299 127.951C68.6955 128.126 68.6283 128.351 68.6283 128.626ZM78.7384 131.6L78.688 130.653V129.01C78.688 128.667 78.6511 128.381 78.5772 128.153C78.51 127.918 78.3957 127.739 78.2344 127.618C78.0799 127.491 77.8716 127.427 77.6095 127.427C77.3676 127.427 77.1559 127.477 76.9744 127.578C76.793 127.679 76.6384 127.837 76.5108 128.052L75.5229 127.689C75.6304 127.467 75.7716 127.262 75.9463 127.074C76.1277 126.879 76.3528 126.725 76.6216 126.61C76.8972 126.496 77.2264 126.439 77.6095 126.439C78.1 126.439 78.51 126.537 78.8392 126.731C79.1685 126.92 79.4104 127.192 79.565 127.548C79.7263 127.904 79.8069 128.334 79.8069 128.838L79.7767 131.6H78.7384ZM77.2869 131.721C76.6821 131.721 76.2117 131.587 75.8757 131.318C75.5464 131.049 75.3818 130.669 75.3818 130.179C75.3818 129.655 75.5565 129.255 75.906 128.979C76.2621 128.704 76.756 128.566 77.3877 128.566H78.7384V129.433H77.7506C77.3004 129.433 76.9845 129.497 76.8031 129.624C76.6216 129.745 76.5309 129.92 76.5309 130.149C76.5309 130.343 76.6082 130.498 76.7628 130.612C76.924 130.72 77.1458 130.774 77.428 130.774C77.6834 130.774 77.9052 130.716 78.0933 130.602C78.2815 130.488 78.426 130.337 78.5268 130.149C78.6343 129.96 78.688 129.749 78.688 129.514H79.0207C79.0207 130.199 78.8829 130.74 78.6074 131.136C78.3319 131.526 77.8917 131.721 77.2869 131.721ZM83.4319 133.616V126.56H84.4903L84.5609 127.487V133.616H83.4319ZM86.1535 131.721C85.7302 131.721 85.3639 131.614 85.0548 131.398C84.7524 131.177 84.5206 130.868 84.3593 130.471C84.198 130.075 84.1174 129.611 84.1174 129.08C84.1174 128.542 84.198 128.079 84.3593 127.689C84.5206 127.293 84.7524 126.987 85.0548 126.772C85.3639 126.55 85.7302 126.439 86.1535 126.439C86.6105 126.439 87.007 126.55 87.343 126.772C87.6857 126.987 87.9511 127.293 88.1393 127.689C88.3342 128.079 88.4316 128.542 88.4316 129.08C88.4316 129.611 88.3342 130.075 88.1393 130.471C87.9511 130.868 87.6857 131.177 87.343 131.398C87.007 131.614 86.6105 131.721 86.1535 131.721ZM85.8713 130.693C86.1401 130.693 86.3787 130.626 86.587 130.491C86.7953 130.35 86.9599 130.159 87.0809 129.917C87.2086 129.675 87.2724 129.396 87.2724 129.08C87.2724 128.764 87.2119 128.485 87.091 128.243C86.9767 128.002 86.8155 127.813 86.6071 127.679C86.3988 127.545 86.1569 127.477 85.8814 127.477C85.626 127.477 85.3975 127.545 85.1959 127.679C84.9943 127.813 84.8364 128.002 84.7222 128.243C84.6147 128.485 84.5609 128.764 84.5609 129.08C84.5609 129.396 84.6147 129.675 84.7222 129.917C84.8364 130.159 84.991 130.35 85.1859 130.491C85.3875 130.626 85.6159 130.693 85.8713 130.693ZM91.7145 131.721C91.2105 131.721 90.7602 131.61 90.3638 131.388C89.974 131.16 89.6682 130.847 89.4465 130.451C89.2247 130.054 89.1138 129.598 89.1138 129.08C89.1138 128.563 89.2214 128.106 89.4364 127.709C89.6582 127.313 89.9639 127.004 90.3537 126.782C90.7434 126.553 91.1903 126.439 91.6943 126.439C92.1983 126.439 92.6452 126.553 93.035 126.782C93.4247 127.004 93.7271 127.313 93.9422 127.709C94.1639 128.106 94.2748 128.563 94.2748 129.08C94.2748 129.598 94.1673 130.054 93.9522 130.451C93.7372 130.847 93.4348 131.16 93.045 131.388C92.6553 131.61 92.2118 131.721 91.7145 131.721ZM91.7145 130.683C91.99 130.683 92.2353 130.616 92.4503 130.481C92.6654 130.34 92.8334 130.152 92.9543 129.917C93.0753 129.675 93.1358 129.396 93.1358 129.08C93.1358 128.764 93.0719 128.489 92.9442 128.254C92.8233 128.012 92.6553 127.823 92.4402 127.689C92.2252 127.548 91.9766 127.477 91.6943 127.477C91.4121 127.477 91.1634 127.545 90.9484 127.679C90.7334 127.813 90.5654 128.002 90.4444 128.243C90.3234 128.485 90.263 128.764 90.263 129.08C90.263 129.396 90.3234 129.675 90.4444 129.917C90.5721 130.152 90.7434 130.34 90.9585 130.481C91.1802 130.616 91.4322 130.683 91.7145 130.683ZM97.0877 131.721C96.7517 131.721 96.4425 131.671 96.1603 131.57C95.8781 131.469 95.6361 131.328 95.4345 131.146C95.2329 130.958 95.0784 130.74 94.9709 130.491L95.9486 130.058C96.0494 130.246 96.1973 130.404 96.3921 130.532C96.5937 130.659 96.8155 130.723 97.0574 130.723C97.3195 130.723 97.5278 130.679 97.6824 130.592C97.8437 130.498 97.9243 130.37 97.9243 130.209C97.9243 130.054 97.8638 129.937 97.7429 129.856C97.6219 129.769 97.4505 129.698 97.2288 129.645L96.755 129.514C96.2779 129.393 95.9049 129.201 95.6361 128.939C95.3673 128.67 95.2329 128.364 95.2329 128.022C95.2329 127.518 95.3942 127.128 95.7168 126.852C96.0461 126.577 96.5165 126.439 97.128 126.439C97.4371 126.439 97.7193 126.486 97.9747 126.58C98.2368 126.668 98.4619 126.795 98.6501 126.963C98.8382 127.125 98.9693 127.316 99.0432 127.538L98.1057 127.961C98.0385 127.793 97.9109 127.666 97.7227 127.578C97.5345 127.484 97.3262 127.437 97.0977 127.437C96.8693 127.437 96.6912 127.487 96.5635 127.588C96.4358 127.682 96.372 127.817 96.372 127.991C96.372 128.092 96.4291 128.186 96.5433 128.274C96.6576 128.354 96.8222 128.422 97.0373 128.475L97.632 128.616C97.9613 128.697 98.2301 128.825 98.4384 128.999C98.6467 129.167 98.8013 129.359 98.9021 129.574C99.0029 129.782 99.0533 129.994 99.0533 130.209C99.0533 130.511 98.9659 130.777 98.7912 131.005C98.6232 131.234 98.3913 131.412 98.0957 131.54C97.8 131.661 97.464 131.721 97.0877 131.721ZM101.954 131.721C101.424 131.721 101.017 131.59 100.735 131.328C100.459 131.059 100.322 130.676 100.322 130.179V124.988H101.44V129.967C101.44 130.202 101.494 130.38 101.602 130.501C101.716 130.622 101.881 130.683 102.096 130.683C102.163 130.683 102.237 130.669 102.317 130.642C102.398 130.616 102.489 130.565 102.59 130.491L103.003 131.348C102.828 131.469 102.653 131.56 102.479 131.62C102.304 131.687 102.129 131.721 101.954 131.721ZM99.4849 127.528V126.56H102.801V127.528H99.4849ZM108.656 131.721C108.152 131.721 107.701 131.61 107.305 131.388C106.915 131.16 106.609 130.847 106.388 130.451C106.166 130.054 106.055 129.598 106.055 129.08C106.055 128.563 106.162 128.106 106.377 127.709C106.599 127.313 106.905 127.004 107.295 126.782C107.685 126.553 108.131 126.439 108.635 126.439C109.139 126.439 109.586 126.553 109.976 126.782C110.366 127.004 110.668 127.313 110.883 127.709C111.105 128.106 111.216 128.563 111.216 129.08C111.216 129.598 111.108 130.054 110.893 130.451C110.678 130.847 110.376 131.16 109.986 131.388C109.596 131.61 109.153 131.721 108.656 131.721ZM108.656 130.683C108.931 130.683 109.176 130.616 109.391 130.481C109.606 130.34 109.774 130.152 109.895 129.917C110.016 129.675 110.077 129.396 110.077 129.08C110.077 128.764 110.013 128.489 109.885 128.254C109.764 128.012 109.596 127.823 109.381 127.689C109.166 127.548 108.918 127.477 108.635 127.477C108.353 127.477 108.105 127.545 107.889 127.679C107.674 127.813 107.506 128.002 107.385 128.243C107.265 128.485 107.204 128.764 107.204 129.08C107.204 129.396 107.265 129.675 107.385 129.917C107.513 130.152 107.685 130.34 107.9 130.481C108.121 130.616 108.373 130.683 108.656 130.683ZM112.194 131.6V126.56H113.253L113.323 127.487V131.6H112.194ZM115.611 131.6V129.02H116.74V131.6H115.611ZM115.611 129.02C115.611 128.616 115.564 128.307 115.47 128.092C115.383 127.87 115.255 127.716 115.087 127.629C114.926 127.541 114.734 127.498 114.513 127.498C114.136 127.491 113.844 127.615 113.636 127.87C113.427 128.126 113.323 128.492 113.323 128.969H112.9C112.9 128.438 112.977 127.985 113.132 127.608C113.286 127.225 113.508 126.936 113.797 126.742C114.086 126.54 114.429 126.439 114.825 126.439C115.228 126.439 115.571 126.52 115.853 126.681C116.142 126.842 116.361 127.094 116.508 127.437C116.663 127.773 116.74 128.213 116.74 128.758V129.02H115.611ZM120.527 131.6V124.544H121.696V130.532H124.892V131.6H120.527ZM125.731 131.6V126.56H126.85V131.6H125.731ZM126.295 125.602C126.114 125.602 125.956 125.539 125.822 125.411C125.694 125.277 125.63 125.119 125.63 124.937C125.63 124.756 125.694 124.601 125.822 124.474C125.956 124.346 126.114 124.282 126.295 124.282C126.477 124.282 126.631 124.346 126.759 124.474C126.894 124.601 126.961 124.756 126.961 124.937C126.961 125.119 126.894 125.277 126.759 125.411C126.631 125.539 126.477 125.602 126.295 125.602ZM128.18 131.6V126.56H129.239L129.309 127.487V131.6H128.18ZM131.598 131.6V129.02H132.727V131.6H131.598ZM131.598 129.02C131.598 128.616 131.551 128.307 131.456 128.092C131.369 127.87 131.241 127.716 131.073 127.629C130.912 127.541 130.721 127.498 130.499 127.498C130.123 127.491 129.83 127.615 129.622 127.87C129.414 128.126 129.309 128.492 129.309 128.969H128.886C128.886 128.438 128.963 127.985 129.118 127.608C129.272 127.225 129.494 126.936 129.783 126.742C130.072 126.54 130.415 126.439 130.811 126.439C131.215 126.439 131.557 126.52 131.839 126.681C132.128 126.842 132.347 127.094 132.495 127.437C132.649 127.773 132.727 128.213 132.727 128.758V129.02H131.598ZM134.949 130.189L134.263 129.413L136.884 126.56H138.245L134.949 130.189ZM133.87 131.6V124.544H134.999V131.6H133.87ZM137.076 131.6L135.301 128.989L136.037 128.203L138.416 131.6H137.076ZM141.128 131.721C140.638 131.721 140.201 131.61 139.818 131.388C139.442 131.16 139.143 130.847 138.921 130.451C138.706 130.054 138.598 129.598 138.598 129.08C138.598 128.563 138.709 128.106 138.931 127.709C139.153 127.313 139.455 127.004 139.838 126.782C140.228 126.553 140.671 126.439 141.169 126.439C141.619 126.439 142.026 126.557 142.388 126.792C142.751 127.02 143.037 127.353 143.245 127.79C143.46 128.227 143.568 128.747 143.568 129.352H139.606L139.758 129.211C139.758 129.52 139.825 129.789 139.959 130.018C140.094 130.239 140.272 130.411 140.493 130.532C140.715 130.653 140.96 130.713 141.229 130.713C141.538 130.713 141.794 130.646 141.995 130.511C142.197 130.37 142.355 130.189 142.469 129.967L143.467 130.39C143.326 130.659 143.144 130.894 142.923 131.096C142.708 131.298 142.449 131.452 142.147 131.56C141.851 131.667 141.511 131.721 141.128 131.721ZM139.828 128.626L139.667 128.485H142.509L142.358 128.626C142.358 128.351 142.298 128.126 142.177 127.951C142.056 127.77 141.901 127.635 141.713 127.548C141.532 127.454 141.34 127.407 141.139 127.407C140.937 127.407 140.735 127.454 140.534 127.548C140.332 127.635 140.164 127.77 140.03 127.951C139.895 128.126 139.828 128.351 139.828 128.626ZM148.071 131.6L148.021 130.663V124.544H149.14V131.6H148.071ZM146.428 131.721C145.971 131.721 145.572 131.614 145.229 131.398C144.893 131.177 144.627 130.868 144.432 130.471C144.244 130.075 144.15 129.611 144.15 129.08C144.15 128.542 144.244 128.079 144.432 127.689C144.627 127.293 144.893 126.987 145.229 126.772C145.572 126.55 145.971 126.439 146.428 126.439C146.852 126.439 147.215 126.55 147.517 126.772C147.826 126.987 148.061 127.293 148.223 127.689C148.384 128.079 148.464 128.542 148.464 129.08C148.464 129.611 148.384 130.075 148.223 130.471C148.061 130.868 147.826 131.177 147.517 131.398C147.215 131.614 146.852 131.721 146.428 131.721ZM146.711 130.693C146.966 130.693 147.191 130.626 147.386 130.491C147.588 130.35 147.742 130.159 147.85 129.917C147.964 129.675 148.021 129.396 148.021 129.08C148.021 128.764 147.964 128.485 147.85 128.243C147.742 128.002 147.588 127.813 147.386 127.679C147.191 127.545 146.963 127.477 146.7 127.477C146.432 127.477 146.193 127.545 145.985 127.679C145.776 127.813 145.612 128.002 145.491 128.243C145.377 128.485 145.316 128.764 145.309 129.08C145.316 129.396 145.377 129.675 145.491 129.917C145.612 130.159 145.776 130.35 145.985 130.491C146.2 130.626 146.442 130.693 146.711 130.693ZM150.459 131.6V126.56H151.577V131.6H150.459ZM151.023 125.602C150.842 125.602 150.684 125.539 150.549 125.411C150.422 125.277 150.358 125.119 150.358 124.937C150.358 124.756 150.422 124.601 150.549 124.474C150.684 124.346 150.842 124.282 151.023 124.282C151.204 124.282 151.359 124.346 151.487 124.474C151.621 124.601 151.688 124.756 151.688 124.937C151.688 125.119 151.621 125.277 151.487 125.411C151.359 125.539 151.204 125.602 151.023 125.602ZM152.908 131.6V126.56H153.966L154.037 127.487V131.6H152.908ZM156.325 131.6V129.02H157.454V131.6H156.325ZM156.325 129.02C156.325 128.616 156.278 128.307 156.184 128.092C156.097 127.87 155.969 127.716 155.801 127.629C155.64 127.541 155.448 127.498 155.226 127.498C154.85 127.491 154.558 127.615 154.349 127.87C154.141 128.126 154.037 128.492 154.037 128.969H153.614C153.614 128.438 153.691 127.985 153.845 127.608C154 127.225 154.222 126.936 154.511 126.742C154.8 126.54 155.142 126.439 155.539 126.439C155.942 126.439 156.285 126.52 156.567 126.681C156.856 126.842 157.074 127.094 157.222 127.437C157.377 127.773 157.454 128.213 157.454 128.758V129.02H156.325Z" fill="#2C2C2C"/>
<path d="M56.738 146.966C56.491 146.966 56.2382 146.93 55.9795 146.86C55.7266 146.783 55.4855 146.669 55.2562 146.516C55.0328 146.363 54.8476 146.166 54.7006 145.925L55.3003 145.581C55.5061 145.84 55.7296 146.028 55.9706 146.145C56.2117 146.263 56.4616 146.322 56.7203 146.322C57.1261 146.322 57.4553 146.198 57.7082 145.951C57.9669 145.699 58.0963 145.369 58.0963 144.964C58.0963 144.564 57.9728 144.237 57.7258 143.985C57.4789 143.732 57.1555 143.605 56.7556 143.605C56.5381 143.605 56.3234 143.655 56.1118 143.755C55.9001 143.849 55.7354 143.967 55.6178 144.108L54.9475 143.949L55.2474 140.686H58.5373V141.356H55.9089L55.7237 143.323C55.8883 143.223 56.0706 143.144 56.2705 143.085C56.4704 143.026 56.6733 142.997 56.8791 142.997C57.2554 142.997 57.5906 143.079 57.8846 143.244C58.1786 143.408 58.4108 143.638 58.5814 143.932C58.7519 144.226 58.8371 144.564 58.8371 144.946C58.8371 145.346 58.746 145.699 58.5637 146.004C58.3873 146.304 58.1404 146.539 57.8228 146.71C57.5112 146.88 57.1496 146.966 56.738 146.966ZM62.0758 146.966C61.6054 146.966 61.1879 146.83 60.8234 146.56C60.4588 146.284 60.1736 145.907 59.9678 145.431C59.762 144.949 59.6591 144.396 59.6591 143.773C59.6591 143.15 59.762 142.6 59.9678 142.124C60.1736 141.641 60.4559 141.265 60.8145 140.995C61.1791 140.718 61.5995 140.58 62.0758 140.58C62.5521 140.58 62.9696 140.718 63.3282 140.995C63.6928 141.265 63.978 141.641 64.1838 142.124C64.3955 142.6 64.5013 143.15 64.5013 143.773C64.5013 144.396 64.3984 144.949 64.1926 145.431C63.9868 145.907 63.7016 146.284 63.3371 146.56C62.9725 146.83 62.5521 146.966 62.0758 146.966ZM62.0758 146.295C62.4051 146.295 62.6961 146.187 62.949 145.969C63.2077 145.751 63.4076 145.455 63.5487 145.078C63.6957 144.702 63.7692 144.267 63.7692 143.773C63.7692 143.279 63.6957 142.844 63.5487 142.468C63.4076 142.085 63.2077 141.788 62.949 141.577C62.6961 141.359 62.4051 141.25 62.0758 141.25C61.7465 141.25 61.4555 141.359 61.2026 141.577C60.9498 141.788 60.7499 142.085 60.6029 142.468C60.4617 142.844 60.3912 143.279 60.3912 143.773C60.3912 144.267 60.4617 144.702 60.6029 145.078C60.7499 145.455 60.9498 145.751 61.2026 145.969C61.4613 146.187 61.7524 146.295 62.0758 146.295ZM67.1711 146.86L69.5525 143.473L71.5105 140.686H72.4013L70.0552 143.932L68.0707 146.86H67.1711ZM71.5105 146.86L69.526 143.932L67.1799 140.686H68.0707L70.0288 143.464L72.4102 146.86H71.5105ZM73.3209 146.86V140.686H75.3318C75.7317 140.686 76.0845 140.768 76.3902 140.933C76.7019 141.097 76.943 141.327 77.1135 141.621C77.2899 141.915 77.3781 142.256 77.3781 142.644C77.3781 143.02 77.2987 143.355 77.1399 143.649C76.9812 143.943 76.7636 144.176 76.4873 144.346C76.2109 144.511 75.8904 144.593 75.5259 144.593H74.0706V146.86H73.3209ZM74.0706 143.914H75.5259C75.8493 143.914 76.1139 143.796 76.3197 143.561C76.5314 143.32 76.6372 143.014 76.6372 142.644C76.6372 142.262 76.5137 141.953 76.2668 141.718C76.0198 141.483 75.7052 141.365 75.323 141.365H74.0706V143.914Z" fill="#939393"/>
<path fill-rule="evenodd" clip-rule="evenodd" d="M206.882 132.154C207.03 132.026 207.254 132.044 207.381 132.192L210.216 135.5C210.33 135.632 210.33 135.828 210.216 135.961L207.381 139.268C207.254 139.417 207.03 139.434 206.882 139.307C206.733 139.179 206.716 138.956 206.843 138.807L209.48 135.73L206.843 132.653C206.716 132.505 206.733 132.281 206.882 132.154Z" fill="#939393"/>
</g>
</g>
<defs>
<filter id="filter0_d_8218_19742" x="9.82285e-05" y="48.7603" width="236.88" height="81.2902" filterUnits="userSpaceOnUse" color-interpolation-filters="sRGB">
<feFlood flood-opacity="0" result="BackgroundImageFix"/>
<feColorMatrix in="SourceAlpha" type="matrix" values="0 0 0 0 0 0 0 0 0 0 0 0 0 0 0 0 0 0 127 0" result="hardAlpha"/>
<feOffset dy="17.01"/>
<feGaussianBlur stdDeviation="6.3"/>
<feComposite in2="hardAlpha" operator="out"/>
<feColorMatrix type="matrix" values="0 0 0 0 0 0 0 0 0 0 0 0 0 0 0 0 0 0 0.02 0"/>
<feBlend mode="normal" in2="BackgroundImageFix" result="effect1_dropShadow_8218_19742"/>
<feBlend mode="normal" in="SourceGraphic" in2="effect1_dropShadow_8218_19742" result="shape"/>
</filter>
<filter id="filter1_d_8218_19742" x="9.82285e-05" y="110.52" width="236.88" height="80.0299" filterUnits="userSpaceOnUse" color-interpolation-filters="sRGB">
<feFlood flood-opacity="0" result="BackgroundImageFix"/>
<feColorMatrix in="SourceAlpha" type="matrix" values="0 0 0 0 0 0 0 0 0 0 0 0 0 0 0 0 0 0 127 0" result="hardAlpha"/>
<feOffset dy="17.01"/>
<feGaussianBlur stdDeviation="6.3"/>
<feComposite in2="hardAlpha" operator="out"/>
<feColorMatrix type="matrix" values="0 0 0 0 0 0 0 0 0 0 0 0 0 0 0 0 0 0 0.02 0"/>
<feBlend mode="normal" in2="BackgroundImageFix" result="effect1_dropShadow_8218_19742"/>
<feBlend mode="normal" in="SourceGraphic" in2="effect1_dropShadow_8218_19742" result="shape"/>
</filter>
<clipPath id="clip0_8218_19742">
<rect width="236.88" height="257.16" rx="7.56" fill="white"/>
</clipPath>
</defs>
</svg>
