<svg width="273" height="119" viewBox="0 0 273 119" fill="none" xmlns="http://www.w3.org/2000/svg">
<g filter="url(#filter0_d_8218_19592)">
<rect x="16" width="241.448" height="124.67" rx="9.02608" fill="white" shape-rendering="crispEdges"/>
<path d="M32.2724 27.1971C31.776 27.1971 31.3202 27.1385 30.905 27.0211C30.4988 26.9038 30.1377 26.7413 29.8218 26.5337C29.5149 26.3261 29.2577 26.096 29.0501 25.8432C28.8515 25.5815 28.7116 25.3107 28.6304 25.0309L30.1738 24.557C30.2912 24.891 30.5214 25.1843 30.8643 25.4371C31.2073 25.6898 31.6316 25.8207 32.137 25.8297C32.7237 25.8297 33.1886 25.7078 33.5316 25.4641C33.8745 25.2204 34.046 24.9 34.046 24.5029C34.046 24.1418 33.9016 23.8485 33.6128 23.6228C33.324 23.3881 32.9358 23.2076 32.4484 23.0812L31.2841 22.7834C30.8418 22.666 30.4401 22.4945 30.0791 22.2689C29.7271 22.0432 29.4472 21.7589 29.2397 21.4159C29.0411 21.0729 28.9418 20.6668 28.9418 20.1974C28.9418 19.3129 29.2306 18.6269 29.8083 18.1395C30.386 17.643 31.2118 17.3948 32.286 17.3948C32.8907 17.3948 33.4187 17.4896 33.87 17.6791C34.3304 17.8597 34.7095 18.1124 35.0073 18.4373C35.3052 18.7532 35.5263 19.1143 35.6707 19.5205L34.1544 20.0079C34.019 19.6468 33.7843 19.349 33.4503 19.1143C33.1164 18.8796 32.7012 18.7623 32.2047 18.7623C31.6902 18.7623 31.2841 18.8841 30.9862 19.1278C30.6974 19.3715 30.5529 19.71 30.5529 20.1433C30.5529 20.4953 30.6658 20.7706 30.8914 20.9691C31.1261 21.1587 31.442 21.3031 31.8392 21.4024L33.0035 21.6867C33.852 21.8943 34.5109 22.2508 34.9802 22.7563C35.4496 23.2618 35.6843 23.8214 35.6843 24.4352C35.6843 24.9767 35.5534 25.4551 35.2916 25.8703C35.0299 26.2855 34.6418 26.6104 34.1273 26.8451C33.6218 27.0798 33.0035 27.1971 32.2724 27.1971ZM37.0971 27.0347V20.2651H38.5999V27.0347H37.0971ZM37.8553 18.9789C37.6116 18.9789 37.3995 18.8931 37.219 18.7216C37.0475 18.5411 36.9617 18.329 36.9617 18.0853C36.9617 17.8416 37.0475 17.634 37.219 17.4625C37.3995 17.291 37.6116 17.2053 37.8553 17.2053C38.099 17.2053 38.3066 17.291 38.4781 17.4625C38.6586 17.634 38.7489 17.8416 38.7489 18.0853C38.7489 18.329 38.6586 18.5411 38.4781 18.7216C38.3066 18.8931 38.099 18.9789 37.8553 18.9789ZM40.2517 27.0347V17.5573H41.7681V27.0347H40.2517ZM45.4958 27.0347L48.1359 20.2651H49.7065L46.9174 27.0347H45.4958ZM45.3875 27.0347L42.5849 20.2651H44.1419L46.7956 27.0347H45.3875ZM53.3528 27.1971C52.6939 27.1971 52.1072 27.0482 51.5927 26.7503C51.0873 26.4435 50.6856 26.0237 50.3878 25.4912C50.0989 24.9587 49.9545 24.3449 49.9545 23.6499C49.9545 22.9549 50.1034 22.3411 50.4013 21.8086C50.6992 21.276 51.1053 20.8608 51.6198 20.563C52.1433 20.2561 52.7391 20.1026 53.407 20.1026C54.0117 20.1026 54.5578 20.2606 55.0452 20.5765C55.5326 20.8834 55.9162 21.3302 56.196 21.9169C56.4849 22.5036 56.6293 23.2031 56.6293 24.0154H51.3084L51.5115 23.8259C51.5115 24.2411 51.6018 24.6021 51.7823 24.909C51.9628 25.2069 52.202 25.4371 52.4999 25.5995C52.7977 25.762 53.1272 25.8432 53.4882 25.8432C53.9034 25.8432 54.2464 25.753 54.5172 25.5724C54.788 25.3829 55.0001 25.1392 55.1535 24.8413L56.4939 25.41C56.3044 25.771 56.0607 26.0869 55.7628 26.3577C55.474 26.6285 55.1265 26.8361 54.7203 26.9805C54.3231 27.1249 53.8673 27.1971 53.3528 27.1971ZM51.6063 23.0406L51.3897 22.8511H55.2077L55.0046 23.0406C55.0046 22.6706 54.9234 22.3682 54.7609 22.1335C54.5984 21.8898 54.3908 21.7093 54.1381 21.5919C53.8944 21.4656 53.6372 21.4024 53.3664 21.4024C53.0956 21.4024 52.8248 21.4656 52.554 21.5919C52.2832 21.7093 52.0576 21.8898 51.8771 22.1335C51.6965 22.3682 51.6063 22.6706 51.6063 23.0406ZM58.6572 23.4333C58.6572 22.7021 58.7971 22.1019 59.0769 21.6326C59.3567 21.1632 59.7178 20.8157 60.16 20.59C60.6114 20.3554 61.0807 20.238 61.5681 20.238V21.6867C61.1529 21.6867 60.7603 21.7454 60.3902 21.8627C60.0292 21.971 59.7358 22.1516 59.5102 22.4043C59.2845 22.657 59.1717 22.991 59.1717 23.4062L58.6572 23.4333ZM57.6553 27.0347V20.2651H59.1717V27.0347H57.6553ZM68.9671 27.1971C68.4707 27.1971 68.0149 27.1385 67.5997 27.0211C67.1935 26.9038 66.8325 26.7413 66.5166 26.5337C66.2097 26.3261 65.9524 26.096 65.7448 25.8432C65.5463 25.5815 65.4064 25.3107 65.3251 25.0309L66.8686 24.557C66.9859 24.891 67.2161 25.1843 67.5591 25.4371C67.9021 25.6898 68.3263 25.8207 68.8318 25.8297C69.4184 25.8297 69.8833 25.7078 70.2263 25.4641C70.5693 25.2204 70.7408 24.9 70.7408 24.5029C70.7408 24.1418 70.5964 23.8485 70.3075 23.6228C70.0187 23.3881 69.6306 23.2076 69.1432 23.0812L67.9788 22.7834C67.5365 22.666 67.1348 22.4945 66.7738 22.2689C66.4218 22.0432 66.142 21.7589 65.9344 21.4159C65.7358 21.0729 65.6365 20.6668 65.6365 20.1974C65.6365 19.3129 65.9254 18.6269 66.503 18.1395C67.0807 17.643 67.9066 17.3948 68.9807 17.3948C69.5854 17.3948 70.1135 17.4896 70.5648 17.6791C71.0251 17.8597 71.4042 18.1124 71.702 18.4373C71.9999 18.7532 72.221 19.1143 72.3655 19.5205L70.8491 20.0079C70.7137 19.6468 70.479 19.349 70.145 19.1143C69.8111 18.8796 69.3959 18.7623 68.8994 18.7623C68.385 18.7623 67.9788 18.8841 67.6809 19.1278C67.3921 19.3715 67.2477 19.71 67.2477 20.1433C67.2477 20.4953 67.3605 20.7706 67.5862 20.9691C67.8208 21.1587 68.1367 21.3031 68.5339 21.4024L69.6983 21.6867C70.5467 21.8943 71.2056 22.2508 71.675 22.7563C72.1443 23.2618 72.379 23.8214 72.379 24.4352C72.379 24.9767 72.2481 25.4551 71.9864 25.8703C71.7246 26.2855 71.3365 26.6104 70.822 26.8451C70.3165 27.0798 69.6983 27.1971 68.9671 27.1971ZM76.3913 27.1971C75.6783 27.1971 75.1322 27.0211 74.7531 26.6691C74.383 26.3081 74.198 25.7936 74.198 25.1257V18.153H75.7008V24.8413C75.7008 25.1572 75.7731 25.3964 75.9175 25.5589C76.0709 25.7214 76.2921 25.8026 76.5809 25.8026C76.6712 25.8026 76.7704 25.7846 76.8788 25.7485C76.9871 25.7123 77.1089 25.6447 77.2443 25.5454L77.7994 26.6962C77.5647 26.8587 77.3301 26.9805 77.0954 27.0617C76.8607 27.152 76.626 27.1971 76.3913 27.1971ZM73.0743 21.5649V20.2651H77.5286V21.5649H73.0743ZM81.9115 27.1971C81.2345 27.1971 80.6298 27.0482 80.0973 26.7503C79.5737 26.4435 79.1631 26.0237 78.8652 25.4912C78.5673 24.9587 78.4184 24.3449 78.4184 23.6499C78.4184 22.9549 78.5628 22.3411 78.8517 21.8086C79.1495 21.276 79.5602 20.8608 80.0837 20.563C80.6072 20.2561 81.2075 20.1026 81.8844 20.1026C82.5614 20.1026 83.1616 20.2561 83.6851 20.563C84.2086 20.8608 84.6148 21.276 84.9036 21.8086C85.2015 22.3411 85.3504 22.9549 85.3504 23.6499C85.3504 24.3449 85.206 24.9587 84.9172 25.4912C84.6284 26.0237 84.2222 26.4435 83.6987 26.7503C83.1752 27.0482 82.5794 27.1971 81.9115 27.1971ZM81.9115 25.8026C82.2816 25.8026 82.611 25.7123 82.8999 25.5318C83.1887 25.3423 83.4143 25.0895 83.5768 24.7736C83.7393 24.4487 83.8205 24.0741 83.8205 23.6499C83.8205 23.2257 83.7348 22.8556 83.5633 22.5397C83.4008 22.2147 83.1752 21.962 82.8863 21.7815C82.5975 21.5919 82.2635 21.4972 81.8844 21.4972C81.5053 21.4972 81.1714 21.5874 80.8825 21.7679C80.5937 21.9485 80.368 22.2012 80.2056 22.5261C80.0431 22.8511 79.9619 23.2257 79.9619 23.6499C79.9619 24.0741 80.0431 24.4487 80.2056 24.7736C80.3771 25.0895 80.6072 25.3423 80.8961 25.5318C81.1939 25.7123 81.5324 25.8026 81.9115 25.8026ZM86.5291 27.0347V20.2651H87.9507L88.0455 21.5107V27.0347H86.5291ZM91.1188 27.0347V23.5687H92.6352V27.0347H91.1188ZM91.1188 23.5687C91.1188 23.0271 91.0557 22.6119 90.9293 22.3231C90.812 22.0252 90.6405 21.8176 90.4148 21.7003C90.1982 21.5829 89.9409 21.5242 89.6431 21.5242C89.1376 21.5152 88.745 21.6822 88.4652 22.0252C88.1854 22.3682 88.0455 22.8601 88.0455 23.501H87.4768C87.4768 22.7879 87.5806 22.1786 87.7882 21.6732C87.9958 21.1587 88.2937 20.7706 88.6818 20.5088C89.0699 20.238 89.5303 20.1026 90.0628 20.1026C90.6044 20.1026 91.0647 20.2109 91.4438 20.4276C91.8319 20.6442 92.1253 20.9827 92.3238 21.443C92.5314 21.8943 92.6352 22.4855 92.6352 23.2166V23.5687H91.1188ZM97.0551 27.1971C96.3962 27.1971 95.8095 27.0482 95.295 26.7503C94.7896 26.4435 94.3879 26.0237 94.09 25.4912C93.8012 24.9587 93.6568 24.3449 93.6568 23.6499C93.6568 22.9549 93.8057 22.3411 94.1036 21.8086C94.4014 21.276 94.8076 20.8608 95.3221 20.563C95.8456 20.2561 96.4413 20.1026 97.1093 20.1026C97.714 20.1026 98.2601 20.2606 98.7475 20.5765C99.2349 20.8834 99.6185 21.3302 99.8983 21.9169C100.187 22.5036 100.332 23.2031 100.332 24.0154H95.0107L95.2138 23.8259C95.2138 24.2411 95.3041 24.6021 95.4846 24.909C95.6651 25.2069 95.9043 25.4371 96.2022 25.5995C96.5 25.762 96.8295 25.8432 97.1905 25.8432C97.6057 25.8432 97.9487 25.753 98.2195 25.5724C98.4903 25.3829 98.7024 25.1392 98.8558 24.8413L100.196 25.41C100.007 25.771 99.7629 26.0869 99.4651 26.3577C99.1762 26.6285 98.8287 26.8361 98.4226 26.9805C98.0254 27.1249 97.5696 27.1971 97.0551 27.1971ZM95.3086 23.0406L95.0919 22.8511H98.91L98.7069 23.0406C98.7069 22.6706 98.6257 22.3682 98.4632 22.1335C98.3007 21.8898 98.0931 21.7093 97.8404 21.5919C97.5967 21.4656 97.3394 21.4024 97.0687 21.4024C96.7979 21.4024 96.5271 21.4656 96.2563 21.5919C95.9855 21.7093 95.7599 21.8898 95.5794 22.1335C95.3988 22.3682 95.3086 22.6706 95.3086 23.0406Z" fill="#0D0D0D"/>
<path fill-rule="evenodd" clip-rule="evenodd" d="M236.676 18.7645C236.853 18.6124 237.12 18.6329 237.272 18.8104L240.657 22.7593C240.793 22.9177 240.793 23.1515 240.657 23.31L237.272 27.2589C237.12 27.4363 236.853 27.4568 236.676 27.3048C236.498 27.1527 236.478 26.8856 236.63 26.7082L239.778 23.0346L236.63 19.3611C236.478 19.1836 236.498 18.9165 236.676 18.7645Z" fill="#939393"/>
<path d="M31.257 55.0693V53.7154H28.3325V52.885L31.1577 48.7511H32.2589V52.8038H33.4323V53.7154H32.2589V55.0693H31.257ZM29.4427 52.8038H31.257V50.1411L29.4427 52.8038ZM36.6088 55.1776C36.1154 55.1776 35.6761 55.0392 35.291 54.7624C34.9059 54.4796 34.602 54.0945 34.3794 53.6071C34.1627 53.1137 34.0544 52.548 34.0544 51.9102C34.0544 51.2724 34.1627 50.7097 34.3794 50.2223C34.602 49.7289 34.9029 49.3438 35.282 49.067C35.6671 48.7842 36.1094 48.6428 36.6088 48.6428C37.1083 48.6428 37.5505 48.7842 37.9356 49.067C38.3208 49.3438 38.6216 49.7289 38.8383 50.2223C39.0609 50.7097 39.1722 51.2724 39.1722 51.9102C39.1722 52.548 39.0609 53.1137 38.8383 53.6071C38.6216 54.0945 38.3208 54.4796 37.9356 54.7624C37.5566 55.0392 37.1143 55.1776 36.6088 55.1776ZM36.6178 54.2299C36.9127 54.2299 37.1744 54.1306 37.4031 53.932C37.6378 53.7335 37.8183 53.4597 37.9447 53.1107C38.0771 52.7617 38.1432 52.3615 38.1432 51.9102C38.1432 51.4589 38.0771 51.0587 37.9447 50.7097C37.8183 50.3547 37.6378 50.0779 37.4031 49.8793C37.1744 49.6808 36.9097 49.5815 36.6088 49.5815C36.3079 49.5815 36.0432 49.6808 35.8145 49.8793C35.5859 50.0779 35.4053 50.3517 35.273 50.7007C35.1466 51.0497 35.0834 51.4529 35.0834 51.9102C35.0834 52.3615 35.1466 52.7617 35.273 53.1107C35.4053 53.4597 35.5859 53.7335 35.8145 53.932C36.0492 54.1306 36.317 54.2299 36.6178 54.2299ZM40.3594 55.0693L44.8454 48.7511H45.8924L41.3794 55.0693H40.3594ZM44.9266 55.2138C44.6438 55.2138 44.3941 55.1476 44.1775 55.0152C43.9608 54.8828 43.7893 54.6993 43.663 54.4646C43.5426 54.2299 43.4825 53.9651 43.4825 53.6703C43.4825 53.3694 43.5426 53.1047 43.663 52.876C43.7833 52.6473 43.9518 52.4668 44.1684 52.3344C44.3911 52.2021 44.6438 52.1359 44.9266 52.1359C45.2094 52.1359 45.4592 52.2021 45.6758 52.3344C45.8924 52.4668 46.0609 52.6473 46.1813 52.876C46.3076 53.1047 46.3708 53.3694 46.3708 53.6703C46.3708 53.9651 46.3076 54.2299 46.1813 54.4646C46.0609 54.6993 45.8924 54.8828 45.6758 55.0152C45.4592 55.1476 45.2094 55.2138 44.9266 55.2138ZM44.9266 54.5007C45.1252 54.5007 45.2877 54.4225 45.414 54.266C45.5404 54.1096 45.6036 53.911 45.6036 53.6703C45.6036 53.4356 45.5404 53.24 45.414 53.0836C45.2877 52.9211 45.1252 52.8399 44.9266 52.8399C44.7281 52.8399 44.5626 52.9211 44.4302 53.0836C44.3038 53.24 44.2406 53.4356 44.2406 53.6703C44.2406 53.911 44.3038 54.1096 44.4302 54.266C44.5626 54.4225 44.7281 54.5007 44.9266 54.5007ZM41.3523 51.6846C41.0755 51.6846 40.8258 51.6184 40.6031 51.486C40.3865 51.3536 40.218 51.1701 40.0977 50.9354C39.9773 50.7007 39.9172 50.4359 39.9172 50.1411C39.9172 49.8402 39.9773 49.5755 40.0977 49.3468C40.218 49.1181 40.3865 48.9376 40.6031 48.8052C40.8258 48.6729 41.0785 48.6067 41.3613 48.6067C41.6441 48.6067 41.8939 48.6729 42.1105 48.8052C42.3271 48.9376 42.4956 49.1181 42.616 49.3468C42.7363 49.5755 42.7965 49.8402 42.7965 50.1411C42.7965 50.4359 42.7363 50.7007 42.616 50.9354C42.4956 51.1701 42.3241 51.3536 42.1015 51.486C41.8848 51.6184 41.6351 51.6846 41.3523 51.6846ZM41.3523 50.9715C41.5569 50.9715 41.7224 50.8933 41.8487 50.7368C41.9751 50.5804 42.0383 50.3818 42.0383 50.1411C42.0383 49.9064 41.9751 49.7109 41.8487 49.5544C41.7224 49.3979 41.5569 49.3197 41.3523 49.3197C41.1537 49.3197 40.9913 49.3979 40.8649 49.5544C40.7385 49.7109 40.6753 49.9064 40.6753 50.1411C40.6753 50.3818 40.7385 50.5804 40.8649 50.7368C40.9913 50.8933 41.1537 50.9715 41.3523 50.9715ZM52.418 55.1776C51.8102 55.1776 51.2687 55.0392 50.7933 54.7624C50.3239 54.4796 49.9539 54.0945 49.6831 53.6071C49.4183 53.1137 49.2859 52.548 49.2859 51.9102C49.2859 51.2724 49.4183 50.7097 49.6831 50.2223C49.9539 49.7289 50.3239 49.3438 50.7933 49.067C51.2627 48.7842 51.8012 48.6428 52.409 48.6428C52.8182 48.6428 53.2033 48.718 53.5643 48.8684C53.9254 49.0128 54.2443 49.2144 54.5211 49.4732C54.8039 49.7319 55.0205 50.0328 55.171 50.3758L54.2142 50.7639C54.1059 50.5352 53.9584 50.3337 53.7719 50.1591C53.5914 49.9786 53.3838 49.8402 53.1491 49.7439C52.9144 49.6477 52.6677 49.5995 52.409 49.5995C52.0118 49.5995 51.6568 49.6988 51.3439 49.8974C51.037 50.096 50.7933 50.3698 50.6128 50.7188C50.4383 51.0618 50.351 51.4589 50.351 51.9102C50.351 52.3615 50.4383 52.7617 50.6128 53.1107C50.7933 53.4597 51.04 53.7335 51.3529 53.932C51.6718 54.1306 52.0329 54.2299 52.436 54.2299C52.7008 54.2299 52.9475 54.1788 53.1762 54.0765C53.4109 53.9682 53.6185 53.8207 53.799 53.6342C53.9855 53.4476 54.133 53.231 54.2413 52.9843L55.198 53.3724C55.0476 53.7275 54.834 54.0434 54.5572 54.3202C54.2804 54.591 53.9584 54.8016 53.5914 54.952C53.2243 55.1024 52.8332 55.1776 52.418 55.1776ZM58.0923 55.1776C57.641 55.1776 57.2378 55.0784 56.8828 54.8798C56.5338 54.6752 56.26 54.3954 56.0614 54.0404C55.8629 53.6853 55.7636 53.2762 55.7636 52.8128C55.7636 52.3495 55.8598 51.9403 56.0524 51.5853C56.251 51.2302 56.5248 50.9534 56.8738 50.7549C57.2228 50.5503 57.6229 50.448 58.0742 50.448C58.5256 50.448 58.9257 50.5503 59.2747 50.7549C59.6237 50.9534 59.8945 51.2302 60.0871 51.5853C60.2856 51.9403 60.3849 52.3495 60.3849 52.8128C60.3849 53.2762 60.2886 53.6853 60.0961 54.0404C59.9035 54.3954 59.6328 54.6752 59.2837 54.8798C58.9347 55.0784 58.5376 55.1776 58.0923 55.1776ZM58.0923 54.248C58.339 54.248 58.5586 54.1878 58.7512 54.0674C58.9438 53.9411 59.0942 53.7726 59.2025 53.562C59.3108 53.3454 59.365 53.0956 59.365 52.8128C59.365 52.53 59.3078 52.2833 59.1935 52.0727C59.0852 51.8561 58.9347 51.6876 58.7422 51.5672C58.5496 51.4409 58.327 51.3777 58.0742 51.3777C57.8215 51.3777 57.5989 51.4378 57.4063 51.5582C57.2138 51.6785 57.0633 51.847 56.955 52.0637C56.8467 52.2803 56.7925 52.53 56.7925 52.8128C56.7925 53.0956 56.8467 53.3454 56.955 53.562C57.0693 53.7726 57.2228 53.9411 57.4153 54.0674C57.6139 54.1878 57.8396 54.248 58.0923 54.248ZM61.2609 55.0693V50.5563H62.2087L62.2538 51.161C62.3922 50.9264 62.5697 50.7489 62.7864 50.6285C63.003 50.5082 63.2497 50.448 63.5265 50.448C63.8875 50.448 64.1944 50.5292 64.4472 50.6917C64.6999 50.8542 64.8834 51.1009 64.9977 51.4318C65.1301 51.1129 65.3167 50.8692 65.5574 50.7007C65.7981 50.5322 66.0809 50.448 66.4058 50.448C66.9293 50.448 67.3325 50.6165 67.6153 50.9534C67.8981 51.2844 68.0365 51.7959 68.0305 52.4879V55.0693H67.0286V52.7587C67.0286 52.3976 66.9895 52.1208 66.9113 51.9283C66.8331 51.7297 66.7277 51.5913 66.5954 51.5131C66.463 51.4348 66.3095 51.3957 66.135 51.3957C65.8221 51.3897 65.5784 51.501 65.4039 51.7297C65.2354 51.9583 65.1512 52.2863 65.1512 52.7135V55.0693H64.1403V52.7587C64.1403 52.3976 64.1012 52.1208 64.0229 51.9283C63.9507 51.7297 63.8484 51.5913 63.716 51.5131C63.5837 51.4348 63.4302 51.3957 63.2557 51.3957C62.9428 51.3897 62.6991 51.501 62.5246 51.7297C62.3561 51.9583 62.2719 52.2863 62.2719 52.7135V55.0693H61.2609ZM69.1069 56.8746V50.5563H70.0547L70.1179 51.3867V56.8746H69.1069ZM71.544 55.1776C71.1649 55.1776 70.8369 55.0814 70.5601 54.8888C70.2894 54.6902 70.0818 54.4134 69.9373 54.0584C69.7929 53.7034 69.7207 53.2882 69.7207 52.8128C69.7207 52.3314 69.7929 51.9162 69.9373 51.5672C70.0818 51.2122 70.2894 50.9384 70.5601 50.7458C70.8369 50.5473 71.1649 50.448 71.544 50.448C71.9532 50.448 72.3082 50.5473 72.6091 50.7458C72.9159 50.9384 73.1536 51.2122 73.3221 51.5672C73.4966 51.9162 73.5839 52.3314 73.5839 52.8128C73.5839 53.2882 73.4966 53.7034 73.3221 54.0584C73.1536 54.4134 72.9159 54.6902 72.6091 54.8888C72.3082 55.0814 71.9532 55.1776 71.544 55.1776ZM71.2913 54.257C71.5319 54.257 71.7456 54.1968 71.9321 54.0765C72.1186 53.9501 72.2661 53.7786 72.3744 53.562C72.4887 53.3454 72.5459 53.0956 72.5459 52.8128C72.5459 52.53 72.4917 52.2803 72.3834 52.0637C72.2811 51.847 72.1367 51.6785 71.9502 51.5582C71.7636 51.4378 71.547 51.3777 71.3003 51.3777C71.0716 51.3777 70.867 51.4378 70.6865 51.5582C70.506 51.6785 70.3646 51.847 70.2623 52.0637C70.166 52.2803 70.1179 52.53 70.1179 52.8128C70.1179 53.0956 70.166 53.3454 70.2623 53.562C70.3646 53.7786 70.503 53.9501 70.6775 54.0765C70.858 54.1968 71.0626 54.257 71.2913 54.257ZM74.4475 55.0693V48.7511H75.4584V55.0693H74.4475ZM78.5934 55.1776C78.1542 55.1776 77.763 55.0784 77.42 54.8798C77.0831 54.6752 76.8153 54.3954 76.6167 54.0404C76.4242 53.6853 76.3279 53.2762 76.3279 52.8128C76.3279 52.3495 76.4272 51.9403 76.6257 51.5853C76.8243 51.2302 77.0951 50.9534 77.4381 50.7549C77.7871 50.5503 78.1842 50.448 78.6295 50.448C79.0327 50.448 79.3967 50.5533 79.7217 50.7639C80.0466 50.9685 80.3024 51.2663 80.4889 51.6575C80.6815 52.0486 80.7777 52.515 80.7777 53.0565H77.2305L77.3659 52.9302C77.3659 53.207 77.4261 53.4476 77.5464 53.6522C77.6667 53.8508 77.8262 54.0043 78.0248 54.1126C78.2234 54.2209 78.443 54.275 78.6837 54.275C78.9605 54.275 79.1891 54.2149 79.3697 54.0945C79.5502 53.9682 79.6916 53.8057 79.7939 53.6071L80.6875 53.9862C80.5611 54.2269 80.3986 54.4375 80.2001 54.618C80.0075 54.7986 79.7758 54.937 79.5051 55.0332C79.2403 55.1295 78.9364 55.1776 78.5934 55.1776ZM77.4291 52.4066L77.2846 52.2803H79.83L79.6946 52.4066C79.6946 52.1599 79.6405 51.9583 79.5321 51.8019C79.4238 51.6394 79.2854 51.5191 79.1169 51.4409C78.9545 51.3566 78.783 51.3145 78.6025 51.3145C78.4219 51.3145 78.2414 51.3566 78.0609 51.4409C77.8804 51.5191 77.7299 51.6394 77.6096 51.8019C77.4892 51.9583 77.4291 52.1599 77.4291 52.4066ZM83.3482 55.1776C82.8728 55.1776 82.5088 55.0603 82.256 54.8256C82.0093 54.5849 81.886 54.2419 81.886 53.7967V49.1482H82.8879V53.6071C82.8879 53.8177 82.936 53.9772 83.0323 54.0855C83.1346 54.1938 83.282 54.248 83.4746 54.248C83.5347 54.248 83.6009 54.2359 83.6731 54.2119C83.7453 54.1878 83.8266 54.1427 83.9168 54.0765L84.2869 54.8437C84.1305 54.952 83.974 55.0332 83.8176 55.0874C83.6611 55.1476 83.5046 55.1776 83.3482 55.1776ZM81.1368 51.4228V50.5563H84.1064V51.4228H81.1368ZM87.0554 55.1776C86.6161 55.1776 86.225 55.0784 85.882 54.8798C85.545 54.6752 85.2772 54.3954 85.0787 54.0404C84.8861 53.6853 84.7898 53.2762 84.7898 52.8128C84.7898 52.3495 84.8891 51.9403 85.0877 51.5853C85.2863 51.2302 85.557 50.9534 85.9 50.7549C86.249 50.5503 86.6462 50.448 87.0915 50.448C87.4946 50.448 87.8587 50.5533 88.1836 50.7639C88.5086 50.9685 88.7643 51.2663 88.9509 51.6575C89.1434 52.0486 89.2397 52.515 89.2397 53.0565H85.6924L85.8278 52.9302C85.8278 53.207 85.888 53.4476 86.0084 53.6522C86.1287 53.8508 86.2882 54.0043 86.4867 54.1126C86.6853 54.2209 86.9049 54.275 87.1456 54.275C87.4224 54.275 87.6511 54.2149 87.8316 54.0945C88.0121 53.9682 88.1536 53.8057 88.2558 53.6071L89.1494 53.9862C89.0231 54.2269 88.8606 54.4375 88.662 54.618C88.4695 54.7986 88.2378 54.937 87.967 55.0332C87.7022 55.1295 87.3984 55.1776 87.0554 55.1776ZM85.891 52.4066L85.7466 52.2803H88.292L88.1566 52.4066C88.1566 52.1599 88.1024 51.9583 87.9941 51.8019C87.8858 51.6394 87.7474 51.5191 87.5789 51.4409C87.4164 51.3566 87.2449 51.3145 87.0644 51.3145C86.8839 51.3145 86.7034 51.3566 86.5228 51.4409C86.3423 51.5191 86.1919 51.6394 86.0715 51.8019C85.9512 51.9583 85.891 52.1599 85.891 52.4066ZM93.2724 55.0693L93.2272 54.2299V48.7511H94.2291V55.0693H93.2724ZM91.8011 55.1776C91.3919 55.1776 91.0339 55.0814 90.727 54.8888C90.4262 54.6902 90.1885 54.4134 90.014 54.0584C89.8455 53.7034 89.7612 53.2882 89.7612 52.8128C89.7612 52.3314 89.8455 51.9162 90.014 51.5672C90.1885 51.2122 90.4262 50.9384 90.727 50.7458C91.0339 50.5473 91.3919 50.448 91.8011 50.448C92.1802 50.448 92.5052 50.5473 92.7759 50.7458C93.0527 50.9384 93.2633 51.2122 93.4078 51.5672C93.5522 51.9162 93.6244 52.3314 93.6244 52.8128C93.6244 53.2882 93.5522 53.7034 93.4078 54.0584C93.2633 54.4134 93.0527 54.6902 92.7759 54.8888C92.5052 55.0814 92.1802 55.1776 91.8011 55.1776ZM92.0539 54.257C92.2825 54.257 92.4841 54.1968 92.6586 54.0765C92.8391 53.9501 92.9775 53.7786 93.0738 53.562C93.1761 53.3454 93.2272 53.0956 93.2272 52.8128C93.2272 52.53 93.1761 52.2803 93.0738 52.0637C92.9775 51.847 92.8391 51.6785 92.6586 51.5582C92.4841 51.4378 92.2795 51.3777 92.0448 51.3777C91.8041 51.3777 91.5905 51.4378 91.404 51.5582C91.2174 51.6785 91.07 51.847 90.9617 52.0637C90.8594 52.2803 90.8052 52.53 90.7992 52.8128C90.8052 53.0956 90.8594 53.3454 90.9617 53.562C91.07 53.7786 91.2174 53.9501 91.404 54.0765C91.5965 54.1968 91.8132 54.257 92.0539 54.257Z" fill="#9035FF"/>
<rect x="28.0347" y="65.0869" width="217.378" height="4.51304" rx="2.25652" fill="#EFEFEF"/>
<g filter="url(#filter1_d_8218_19592)">
<rect x="28.0347" y="65.0869" width="102.296" height="4.51304" rx="2.25652" fill="#9035FF"/>
</g>
<path d="M29.014 92.6348V85.2635H33.3736V86.0743H29.9091V88.4542H33.0682V89.2545H29.9091V91.8239H33.3947V92.6348H29.014ZM38.247 92.6348L38.2049 91.7713V89.8547C38.2049 89.4405 38.1593 89.1001 38.068 88.8333C37.9768 88.5595 37.8328 88.3524 37.6363 88.212C37.4397 88.0716 37.1835 88.0014 36.8676 88.0014C36.5797 88.0014 36.3305 88.061 36.1199 88.1804C35.9163 88.2927 35.7478 88.4752 35.6144 88.728L34.8562 88.4331C34.9896 88.1874 35.1511 87.9768 35.3406 87.8013C35.5302 87.6188 35.7513 87.4819 36.0041 87.3906C36.2568 87.2923 36.5446 87.2432 36.8676 87.2432C37.359 87.2432 37.7626 87.3415 38.0786 87.538C38.4015 87.7276 38.6437 88.0119 38.8052 88.391C38.9666 88.7631 39.0438 89.2264 39.0368 89.781L39.0263 92.6348H38.247ZM36.6675 92.7611C36.0497 92.7611 35.5653 92.6207 35.2143 92.3399C34.8703 92.0521 34.6983 91.6554 34.6983 91.15C34.6983 90.6164 34.8738 90.2093 35.2248 89.9284C35.5828 89.6406 36.0813 89.4967 36.7201 89.4967H38.226V90.2022H36.9097C36.4183 90.2022 36.0672 90.283 35.8566 90.4444C35.6531 90.6059 35.5513 90.8376 35.5513 91.1394C35.5513 91.4132 35.6531 91.6309 35.8566 91.7923C36.0602 91.9468 36.3445 92.024 36.7096 92.024C37.0115 92.024 37.2747 91.9608 37.4994 91.8345C37.724 91.7011 37.896 91.515 38.0154 91.2763C38.1417 91.0306 38.2049 90.7428 38.2049 90.4128H38.563C38.563 91.1289 38.4015 91.7011 38.0786 92.1293C37.7556 92.5505 37.2853 92.7611 36.6675 92.7611ZM40.8351 89.781C40.8351 89.2124 40.9439 88.7525 41.1615 88.4015C41.3791 88.0435 41.6564 87.7802 41.9934 87.6118C42.3374 87.4362 42.6989 87.3485 43.078 87.3485V88.1383C42.7692 88.1383 42.4708 88.1909 42.183 88.2962C41.9021 88.3945 41.6705 88.5595 41.4879 88.7912C41.3054 89.0228 41.2142 89.3387 41.2142 89.7389L40.8351 89.781ZM40.3717 92.6348V87.3696H41.2142V92.6348H40.3717ZM43.9299 92.6348V87.3696H44.7196L44.7723 88.3384V92.6348H43.9299ZM47.626 92.6348V89.939H48.4685V92.6348H47.626ZM47.626 89.939C47.626 89.4195 47.5664 89.0228 47.447 88.749C47.3277 88.4752 47.1627 88.2892 46.9521 88.1909C46.7415 88.0856 46.5028 88.033 46.236 88.033C45.7727 88.033 45.4111 88.1979 45.1514 88.5279C44.8987 88.8508 44.7723 89.3107 44.7723 89.9074H44.3616C44.3616 89.3528 44.4423 88.8754 44.6038 88.4752C44.7653 88.0751 45.0005 87.7697 45.3093 87.5591C45.6182 87.3485 45.9903 87.2432 46.4256 87.2432C46.8398 87.2432 47.1978 87.3274 47.4997 87.4959C47.8086 87.6574 48.0473 87.9171 48.2157 88.2752C48.3913 88.6332 48.4755 89.1036 48.4685 89.6862V89.939H47.626ZM54.7203 92.7611C54.4254 92.7611 54.1235 92.719 53.8146 92.6348C53.5128 92.5435 53.2249 92.4066 52.9511 92.2241C52.6844 92.0416 52.4632 91.8064 52.2877 91.5185L53.0038 91.1079C53.2495 91.4167 53.5163 91.6414 53.8041 91.7818C54.0919 91.9222 54.3903 91.9924 54.6992 91.9924C55.1836 91.9924 55.5767 91.845 55.8786 91.5501C56.1875 91.2483 56.3419 90.8551 56.3419 90.3707C56.3419 89.8933 56.1945 89.5037 55.8997 89.2018C55.6048 88.9 55.2187 88.749 54.7413 88.749C54.4816 88.749 54.2253 88.8087 53.9726 88.9281C53.7199 89.0404 53.5233 89.1808 53.3829 89.3493L52.5826 89.1597L52.9406 85.2635H56.8685V86.0638H53.7304L53.5093 88.4121C53.7058 88.2927 53.9235 88.1979 54.1621 88.1277C54.4008 88.0575 54.643 88.0224 54.8887 88.0224C55.338 88.0224 55.7382 88.1207 56.0892 88.3173C56.4402 88.5139 56.7175 88.7876 56.9211 89.1387C57.1247 89.4897 57.2265 89.8933 57.2265 90.3497C57.2265 90.827 57.1177 91.2483 56.9001 91.6133C56.6894 91.9713 56.3946 92.2522 56.0155 92.4557C55.6434 92.6593 55.2117 92.7611 54.7203 92.7611ZM61.0932 92.7611C60.5316 92.7611 60.0332 92.5997 59.5979 92.2767C59.1626 91.9468 58.8222 91.4975 58.5765 90.9288C58.3307 90.3532 58.2079 89.6933 58.2079 88.9491C58.2079 88.205 58.3307 87.5486 58.5765 86.9799C58.8222 86.4043 59.1591 85.955 59.5874 85.632C60.0226 85.3021 60.5246 85.1371 61.0932 85.1371C61.6619 85.1371 62.1603 85.3021 62.5885 85.632C63.0238 85.955 63.3643 86.4043 63.61 86.9799C63.8627 87.5486 63.9891 88.205 63.9891 88.9491C63.9891 89.6933 63.8662 90.3532 63.6205 90.9288C63.3748 91.4975 63.0343 91.9468 62.5991 92.2767C62.1638 92.5997 61.6619 92.7611 61.0932 92.7611ZM61.0932 91.9608C61.4864 91.9608 61.8339 91.8309 62.1357 91.5712C62.4446 91.3114 62.6833 90.9569 62.8518 90.5076C63.0273 90.0583 63.1151 89.5388 63.1151 88.9491C63.1151 88.3594 63.0273 87.8399 62.8518 87.3906C62.6833 86.9343 62.4446 86.5798 62.1357 86.327C61.8339 86.0673 61.4864 85.9374 61.0932 85.9374C60.7001 85.9374 60.3526 86.0673 60.0507 86.327C59.7488 86.5798 59.5102 86.9343 59.3346 87.3906C59.1662 87.8399 59.0819 88.3594 59.0819 88.9491C59.0819 89.5388 59.1662 90.0583 59.3346 90.5076C59.5102 90.9569 59.7488 91.3114 60.0507 91.5712C60.3596 91.8309 60.7071 91.9608 61.0932 91.9608ZM67.8393 92.7611C67.2777 92.7611 66.7792 92.5997 66.344 92.2767C65.9087 91.9468 65.5682 91.4975 65.3225 90.9288C65.0768 90.3532 64.9539 89.6933 64.9539 88.9491C64.9539 88.205 65.0768 87.5486 65.3225 86.9799C65.5682 86.4043 65.9052 85.955 66.3334 85.632C66.7687 85.3021 67.2706 85.1371 67.8393 85.1371C68.4079 85.1371 68.9064 85.3021 69.3346 85.632C69.7699 85.955 70.1103 86.4043 70.3561 86.9799C70.6088 87.5486 70.7351 88.205 70.7351 88.9491C70.7351 89.6933 70.6123 90.3532 70.3666 90.9288C70.1209 91.4975 69.7804 91.9468 69.3451 92.2767C68.9099 92.5997 68.4079 92.7611 67.8393 92.7611ZM67.8393 91.9608C68.2324 91.9608 68.5799 91.8309 68.8818 91.5712C69.1907 91.3114 69.4294 90.9569 69.5979 90.5076C69.7734 90.0583 69.8611 89.5388 69.8611 88.9491C69.8611 88.3594 69.7734 87.8399 69.5979 87.3906C69.4294 86.9343 69.1907 86.5798 68.8818 86.327C68.5799 86.0673 68.2324 85.9374 67.8393 85.9374C67.4461 85.9374 67.0986 86.0673 66.7968 86.327C66.4949 86.5798 66.2562 86.9343 66.0807 87.3906C65.9122 87.8399 65.828 88.3594 65.828 88.9491C65.828 89.5388 65.9122 90.0583 66.0807 90.5076C66.2562 90.9569 66.4949 91.3114 66.7968 91.5712C67.1057 91.8309 67.4532 91.9608 67.8393 91.9608ZM71.3209 92.6348L74.1641 88.5911L76.5019 85.2635H77.5654L74.7644 89.1387L72.395 92.6348H71.3209ZM76.5019 92.6348L74.1325 89.1387L71.3314 85.2635H72.395L74.7328 88.5805L77.576 92.6348H76.5019ZM78.6633 92.6348V85.2635H81.0643C81.5416 85.2635 81.9629 85.3617 82.3279 85.5583C82.7 85.7549 82.9878 86.0287 83.1914 86.3797C83.402 86.7307 83.5073 87.1379 83.5073 87.6012C83.5073 88.0505 83.4126 88.4507 83.223 88.8017C83.0335 89.1527 82.7737 89.43 82.4438 89.6336C82.1138 89.8302 81.7312 89.9284 81.2959 89.9284H79.5584V92.6348H78.6633ZM79.5584 89.1176H81.2959C81.6821 89.1176 81.998 88.9772 82.2437 88.6964C82.4964 88.4086 82.6228 88.0435 82.6228 87.6012C82.6228 87.1449 82.4753 86.7763 82.1805 86.4955C81.8856 86.2147 81.5101 86.0743 81.0537 86.0743H79.5584V89.1176ZM87.1211 92.6348V85.2635H87.9635V91.6554L87.9214 92.6348H87.1211ZM89.7432 92.7611C89.3009 92.7611 88.9112 92.6453 88.5743 92.4136C88.2443 92.182 87.9881 91.859 87.8056 91.4448C87.623 91.0236 87.5318 90.5427 87.5318 90.0022C87.5318 89.4546 87.623 88.9737 87.8056 88.5595C87.9881 88.1453 88.2443 87.8224 88.5743 87.5907C88.9112 87.359 89.3009 87.2432 89.7432 87.2432C90.2135 87.2432 90.6277 87.359 90.9857 87.5907C91.3438 87.8224 91.6211 88.1453 91.8176 88.5595C92.0212 88.9737 92.123 89.4546 92.123 90.0022C92.123 90.5427 92.0212 91.0236 91.8176 91.4448C91.6211 91.859 91.3438 92.182 90.9857 92.4136C90.6277 92.6453 90.2135 92.7611 89.7432 92.7611ZM89.5536 91.9924C89.8836 91.9924 90.1749 91.9082 90.4276 91.7397C90.6874 91.5712 90.891 91.336 91.0384 91.0341C91.1928 90.7323 91.2701 90.3883 91.2701 90.0022C91.2701 89.616 91.1964 89.272 91.0489 88.9702C90.9085 88.6683 90.7084 88.4331 90.4487 88.2646C90.1889 88.0962 89.8941 88.0119 89.5641 88.0119C89.2552 88.0119 88.9779 88.0962 88.7322 88.2646C88.4935 88.4331 88.304 88.6683 88.1636 88.9702C88.0302 89.272 87.9635 89.616 87.9635 90.0022C87.9635 90.3883 88.0302 90.7323 88.1636 91.0341C88.304 91.336 88.4935 91.5712 88.7322 91.7397C88.9709 91.9082 89.2447 91.9924 89.5536 91.9924ZM93.6314 94.8672C93.498 94.8672 93.3436 94.8391 93.1681 94.783C92.9926 94.7338 92.8065 94.6671 92.61 94.5829L92.9259 93.8774C93.0874 93.9476 93.2278 94.0002 93.3471 94.0353C93.4735 94.0704 93.5718 94.088 93.642 94.088C93.8315 94.088 93.986 94.0353 94.1053 93.93C94.2317 93.8317 94.337 93.6878 94.4212 93.4983L95.0214 92.0661L96.9696 87.3696H97.8752L95.3479 93.3719C95.2145 93.6808 95.0741 93.9476 94.9267 94.1722C94.7863 94.3969 94.6143 94.5689 94.4107 94.6882C94.2071 94.8075 93.9473 94.8672 93.6314 94.8672ZM94.7898 92.6348L92.5152 87.3696H93.4103L95.369 92.0556L95.6217 92.6348H94.7898ZM103.398 92.7611C103.04 92.7611 102.713 92.7085 102.418 92.6032C102.131 92.4908 101.881 92.3469 101.671 92.1714C101.467 91.9959 101.306 91.8099 101.186 91.6133L101.923 91.2026C102.001 91.3009 102.095 91.4132 102.208 91.5396C102.327 91.6589 102.478 91.7607 102.661 91.845C102.843 91.9292 103.068 91.9713 103.335 91.9713C103.812 91.9713 104.195 91.8345 104.482 91.5607C104.77 91.2869 104.914 90.9429 104.914 90.5287C104.914 90.2128 104.826 89.946 104.651 89.7284C104.482 89.5107 104.237 89.3458 103.914 89.2334C103.591 89.1211 103.205 89.0649 102.755 89.0649H102.555V88.3699H102.734C103.177 88.3699 103.584 88.4191 103.956 88.5174C104.328 88.6157 104.651 88.7596 104.925 88.9491C105.205 89.1387 105.42 89.3703 105.567 89.6441C105.721 89.9179 105.799 90.2338 105.799 90.5919C105.799 91.0271 105.69 91.4097 105.472 91.7397C105.262 92.0626 104.974 92.3153 104.609 92.4979C104.244 92.6734 103.84 92.7611 103.398 92.7611ZM102.555 88.9912V88.3068H102.755C103.359 88.3068 103.837 88.205 104.188 88.0014C104.546 87.7908 104.725 87.4924 104.725 87.1063C104.725 86.8957 104.668 86.7026 104.556 86.5271C104.444 86.3446 104.279 86.2007 104.061 86.0954C103.851 85.983 103.605 85.9269 103.324 85.9269C103.134 85.9269 102.955 85.955 102.787 86.0111C102.626 86.0603 102.475 86.1375 102.334 86.2428C102.201 86.3411 102.078 86.4674 101.966 86.6219L101.271 86.2217C101.404 86.0041 101.572 85.8146 101.776 85.6531C101.987 85.4916 102.225 85.3653 102.492 85.274C102.759 85.1827 103.05 85.1371 103.366 85.1371C103.794 85.1371 104.177 85.2213 104.514 85.3898C104.858 85.5583 105.128 85.79 105.325 86.0848C105.521 86.3727 105.62 86.6991 105.62 87.0642C105.62 87.3731 105.546 87.6469 105.399 87.8855C105.251 88.1242 105.044 88.3278 104.777 88.4963C104.517 88.6648 104.212 88.7912 103.861 88.8754C103.517 88.9526 103.142 88.9912 102.734 88.9912H102.555ZM109.874 92.6348V85.2635H110.801L113.349 89.0334L115.898 85.2635H116.814V92.6348H115.929V86.6956L113.349 90.5392L110.769 86.7167V92.6348H109.874ZM120.865 92.7611C120.352 92.7611 119.896 92.6453 119.496 92.4136C119.103 92.1749 118.794 91.8485 118.569 91.4343C118.344 91.0201 118.232 90.5427 118.232 90.0022C118.232 89.4616 118.341 88.9842 118.559 88.57C118.783 88.1558 119.092 87.8329 119.485 87.6012C119.885 87.3625 120.338 87.2432 120.844 87.2432C121.363 87.2432 121.82 87.3625 122.213 87.6012C122.613 87.8329 122.922 88.1558 123.139 88.57C123.364 88.9842 123.476 89.4616 123.476 90.0022C123.476 90.5427 123.364 91.0201 123.139 91.4343C122.922 91.8485 122.616 92.1749 122.223 92.4136C121.83 92.6453 121.377 92.7611 120.865 92.7611ZM120.865 91.9819C121.216 91.9819 121.521 91.8976 121.781 91.7291C122.041 91.5607 122.244 91.329 122.392 91.0341C122.546 90.7393 122.623 90.3953 122.623 90.0022C122.623 89.609 122.546 89.265 122.392 88.9702C122.244 88.6753 122.037 88.4437 121.77 88.2752C121.504 88.1067 121.195 88.0224 120.844 88.0224C120.5 88.0224 120.194 88.1067 119.928 88.2752C119.668 88.4437 119.461 88.6753 119.306 88.9702C119.159 89.265 119.085 89.609 119.085 90.0022C119.085 90.3883 119.159 90.7323 119.306 91.0341C119.461 91.329 119.671 91.5607 119.938 91.7291C120.212 91.8976 120.521 91.9819 120.865 91.9819ZM124.646 92.6348V87.3696H125.436L125.488 88.3384V92.6348H124.646ZM128.342 92.6348V89.939H129.185V92.6348H128.342ZM128.342 89.939C128.342 89.4195 128.283 89.0228 128.163 88.749C128.044 88.4752 127.879 88.2892 127.668 88.1909C127.458 88.0856 127.219 88.033 126.952 88.033C126.489 88.033 126.127 88.1979 125.868 88.5279C125.615 88.8508 125.488 89.3107 125.488 89.9074H125.078C125.078 89.3528 125.158 88.8754 125.32 88.4752C125.481 88.0751 125.717 87.7697 126.025 87.5591C126.334 87.3485 126.706 87.2432 127.142 87.2432C127.556 87.2432 127.914 87.3274 128.216 87.4959C128.525 87.6574 128.763 87.9171 128.932 88.2752C129.107 88.6332 129.192 89.1036 129.185 89.6862V89.939H128.342ZM132.498 92.7611C131.985 92.7611 131.589 92.6277 131.308 92.361C131.027 92.0942 130.887 91.7186 130.887 91.2342V85.7268H131.729V91.15C131.729 91.4167 131.799 91.6238 131.94 91.7713C132.087 91.9117 132.291 91.9819 132.55 91.9819C132.635 91.9819 132.715 91.9713 132.793 91.9503C132.877 91.9222 132.986 91.859 133.119 91.7607L133.445 92.4452C133.263 92.5646 133.098 92.6453 132.95 92.6874C132.803 92.7366 132.652 92.7611 132.498 92.7611ZM129.97 88.1172V87.3696H133.309V88.1172H129.97ZM134.498 92.6348V85.2635H135.34V92.6348H134.498ZM138.204 92.6348V89.939H139.047V92.6348H138.204ZM138.204 89.939C138.204 89.4195 138.141 89.0228 138.015 88.749C137.896 88.4752 137.731 88.2892 137.52 88.1909C137.309 88.0856 137.071 88.033 136.804 88.033C136.341 88.033 135.979 88.1979 135.719 88.5279C135.467 88.8508 135.34 89.3107 135.34 89.9074H134.929C134.929 89.3528 135.01 88.8754 135.172 88.4752C135.34 88.0751 135.579 87.7697 135.888 87.5591C136.197 87.3485 136.569 87.2432 137.004 87.2432C137.411 87.2432 137.769 87.3274 138.078 87.4959C138.387 87.6574 138.626 87.9171 138.794 88.2752C138.97 88.6332 139.054 89.1036 139.047 89.6862V89.939H138.204ZM142.213 92.7611C141.826 92.7611 141.489 92.705 141.202 92.5926C140.914 92.4733 140.672 92.3189 140.475 92.1293C140.285 91.9398 140.149 91.7327 140.064 91.508L140.801 91.2026C140.921 91.4413 141.1 91.6344 141.338 91.7818C141.577 91.9292 141.84 92.0029 142.128 92.0029C142.458 92.0029 142.736 91.9398 142.96 91.8134C143.185 91.68 143.297 91.494 143.297 91.2553C143.297 91.0377 143.213 90.8621 143.044 90.7288C142.883 90.5954 142.641 90.4866 142.318 90.4023L141.812 90.2654C141.335 90.1391 140.963 89.9495 140.696 89.6968C140.429 89.437 140.296 89.1457 140.296 88.8227C140.296 88.3243 140.457 87.9382 140.78 87.6644C141.11 87.3836 141.598 87.2432 142.244 87.2432C142.553 87.2432 142.834 87.2888 143.087 87.3801C143.339 87.4713 143.557 87.6012 143.739 87.7697C143.922 87.9312 144.055 88.1242 144.14 88.3489L143.402 88.6753C143.311 88.4366 143.16 88.2646 142.95 88.1593C142.739 88.054 142.483 88.0014 142.181 88.0014C141.858 88.0014 141.605 88.0716 141.423 88.212C141.24 88.3454 141.149 88.5349 141.149 88.7806C141.149 88.921 141.223 89.0544 141.37 89.1808C141.525 89.3001 141.749 89.3984 142.044 89.4756L142.571 89.6125C142.915 89.6968 143.202 89.8231 143.434 89.9916C143.666 90.1531 143.841 90.3391 143.961 90.5497C144.08 90.7603 144.14 90.985 144.14 91.2237C144.14 91.5396 144.055 91.8134 143.887 92.0451C143.718 92.2767 143.49 92.4557 143.202 92.5821C142.915 92.7015 142.585 92.7611 142.213 92.7611ZM149.856 92.7611C149.344 92.7611 148.947 92.6277 148.666 92.361C148.386 92.0942 148.245 91.7186 148.245 91.2342V85.7268H149.088V91.15C149.088 91.4167 149.158 91.6238 149.298 91.7713C149.446 91.9117 149.649 91.9819 149.909 91.9819C149.993 91.9819 150.074 91.9713 150.151 91.9503C150.236 91.9222 150.344 91.859 150.478 91.7607L150.804 92.4452C150.622 92.5646 150.457 92.6453 150.309 92.6874C150.162 92.7366 150.011 92.7611 149.856 92.7611ZM147.329 88.1172V87.3696H150.667V88.1172H147.329ZM154.153 92.7611C153.64 92.7611 153.184 92.6453 152.784 92.4136C152.391 92.1749 152.082 91.8485 151.857 91.4343C151.633 91.0201 151.52 90.5427 151.52 90.0022C151.52 89.4616 151.629 88.9842 151.847 88.57C152.071 88.1558 152.38 87.8329 152.773 87.6012C153.174 87.3625 153.626 87.2432 154.132 87.2432C154.651 87.2432 155.108 87.3625 155.501 87.6012C155.901 87.8329 156.21 88.1558 156.427 88.57C156.652 88.9842 156.764 89.4616 156.764 90.0022C156.764 90.5427 156.652 91.0201 156.427 91.4343C156.21 91.8485 155.904 92.1749 155.511 92.4136C155.118 92.6453 154.665 92.7611 154.153 92.7611ZM154.153 91.9819C154.504 91.9819 154.809 91.8976 155.069 91.7291C155.329 91.5607 155.532 91.329 155.68 91.0341C155.834 90.7393 155.911 90.3953 155.911 90.0022C155.911 89.609 155.834 89.265 155.68 88.9702C155.532 88.6753 155.325 88.4437 155.058 88.2752C154.792 88.1067 154.483 88.0224 154.132 88.0224C153.788 88.0224 153.482 88.1067 153.216 88.2752C152.956 88.4437 152.749 88.6753 152.594 88.9702C152.447 89.265 152.373 89.609 152.373 90.0022C152.373 90.3883 152.447 90.7323 152.594 91.0341C152.749 91.329 152.959 91.5607 153.226 91.7291C153.5 91.8976 153.809 91.9819 154.153 91.9819ZM160.999 89.781C160.999 89.2124 161.108 88.7525 161.326 88.4015C161.543 88.0435 161.821 87.7802 162.158 87.6118C162.502 87.4362 162.863 87.3485 163.242 87.3485V88.1383C162.933 88.1383 162.635 88.1909 162.347 88.2962C162.066 88.3945 161.835 88.5595 161.652 88.7912C161.47 89.0228 161.378 89.3387 161.378 89.7389L160.999 89.781ZM160.536 92.6348V87.3696H161.378V92.6348H160.536ZM166.4 92.7611C165.888 92.7611 165.435 92.6453 165.042 92.4136C164.649 92.1749 164.34 91.8485 164.115 91.4343C163.897 91.0201 163.789 90.5427 163.789 90.0022C163.789 89.4616 163.897 88.9842 164.115 88.57C164.34 88.1558 164.645 87.8329 165.031 87.6012C165.424 87.3625 165.874 87.2432 166.379 87.2432C166.871 87.2432 167.295 87.366 167.653 87.6118C168.011 87.8504 168.289 88.1874 168.485 88.6227C168.682 89.0579 168.78 89.5704 168.78 90.1601H164.431L164.642 89.9811C164.642 90.4023 164.715 90.7639 164.863 91.0657C165.017 91.3676 165.231 91.5993 165.505 91.7607C165.779 91.9152 166.091 91.9924 166.442 91.9924C166.814 91.9924 167.127 91.9047 167.379 91.7291C167.639 91.5536 167.839 91.322 167.98 91.0341L168.706 91.4027C168.573 91.6765 168.394 91.9152 168.169 92.1188C167.952 92.3224 167.692 92.4803 167.39 92.5926C167.095 92.705 166.765 92.7611 166.4 92.7611ZM164.694 89.6231L164.473 89.4546H168.106L167.885 89.6336C167.885 89.2966 167.818 89.0053 167.685 88.7596C167.551 88.5139 167.372 88.3243 167.148 88.1909C166.923 88.0575 166.663 87.9908 166.369 87.9908C166.081 87.9908 165.807 88.0575 165.547 88.1909C165.294 88.3243 165.087 88.5139 164.926 88.7596C164.771 88.9983 164.694 89.2861 164.694 89.6231ZM173.086 92.6348L173.044 91.7713V89.8547C173.044 89.4405 172.998 89.1001 172.907 88.8333C172.816 88.5595 172.672 88.3524 172.475 88.212C172.279 88.0716 172.022 88.0014 171.706 88.0014C171.419 88.0014 171.169 88.061 170.959 88.1804C170.755 88.2927 170.587 88.4752 170.453 88.728L169.695 88.4331C169.828 88.1874 169.99 87.9768 170.18 87.8013C170.369 87.6188 170.59 87.4819 170.843 87.3906C171.096 87.2923 171.383 87.2432 171.706 87.2432C172.198 87.2432 172.602 87.3415 172.917 87.538C173.24 87.7276 173.483 88.0119 173.644 88.391C173.805 88.7631 173.883 89.2264 173.876 89.781L173.865 92.6348H173.086ZM171.506 92.7611C170.889 92.7611 170.404 92.6207 170.053 92.3399C169.709 92.0521 169.537 91.6554 169.537 91.15C169.537 90.6164 169.713 90.2093 170.064 89.9284C170.422 89.6406 170.92 89.4967 171.559 89.4967H173.065V90.2022H171.749C171.257 90.2022 170.906 90.283 170.696 90.4444C170.492 90.6059 170.39 90.8376 170.39 91.1394C170.39 91.4132 170.492 91.6309 170.696 91.7923C170.899 91.9468 171.183 92.024 171.548 92.024C171.85 92.024 172.114 91.9608 172.338 91.8345C172.563 91.7011 172.735 91.515 172.854 91.2763C172.981 91.0306 173.044 90.7428 173.044 90.4128H173.402C173.402 91.1289 173.24 91.7011 172.917 92.1293C172.594 92.5505 172.124 92.7611 171.506 92.7611ZM177.559 92.7611C177.039 92.7611 176.58 92.6453 176.179 92.4136C175.779 92.1749 175.467 91.8485 175.242 91.4343C175.018 91.0201 174.905 90.5427 174.905 90.0022C174.905 89.4616 175.014 88.9842 175.232 88.57C175.456 88.1558 175.769 87.8329 176.169 87.6012C176.569 87.3625 177.025 87.2432 177.538 87.2432C178.043 87.2432 178.496 87.359 178.896 87.5907C179.296 87.8224 179.602 88.1488 179.812 88.57L179.044 88.9175C178.903 88.6367 178.7 88.4191 178.433 88.2646C178.166 88.1032 177.861 88.0224 177.517 88.0224C177.173 88.0224 176.867 88.1067 176.601 88.2752C176.341 88.4437 176.134 88.6788 175.979 88.9807C175.832 89.2756 175.758 89.616 175.758 90.0022C175.758 90.3883 175.832 90.7323 175.979 91.0341C176.134 91.329 176.344 91.5607 176.611 91.7291C176.885 91.8976 177.194 91.9819 177.538 91.9819C177.882 91.9819 178.187 91.8941 178.454 91.7186C178.728 91.5431 178.935 91.2974 179.075 90.9815L179.844 91.329C179.633 91.7783 179.328 92.1293 178.928 92.382C178.528 92.6348 178.071 92.7611 177.559 92.7611ZM180.908 92.6348V85.2635H181.75V92.6348H180.908ZM184.614 92.6348V89.939H185.457V92.6348H184.614ZM184.614 89.939C184.614 89.4195 184.551 89.0228 184.425 88.749C184.306 88.4752 184.141 88.2892 183.93 88.1909C183.719 88.0856 183.481 88.033 183.214 88.033C182.751 88.033 182.389 88.1979 182.129 88.5279C181.877 88.8508 181.75 89.3107 181.75 89.9074H181.339C181.339 89.3528 181.42 88.8754 181.582 88.4752C181.75 88.0751 181.989 87.7697 182.298 87.5591C182.607 87.3485 182.979 87.2432 183.414 87.2432C183.821 87.2432 184.179 87.3274 184.488 87.4959C184.797 87.6574 185.036 87.9171 185.204 88.2752C185.38 88.6332 185.464 89.1036 185.457 89.6862V89.939H184.614ZM192.762 92.7611C192.053 92.7611 191.424 92.5997 190.877 92.2767C190.329 91.9538 189.901 91.5045 189.592 90.9288C189.283 90.3532 189.129 89.6933 189.129 88.9491C189.129 88.3875 189.216 87.875 189.392 87.4117C189.567 86.9413 189.813 86.5376 190.129 86.2007C190.452 85.8637 190.835 85.6039 191.277 85.4214C191.719 85.2319 192.204 85.1371 192.73 85.1371C193.439 85.1371 194.064 85.3021 194.605 85.632C195.152 85.955 195.577 86.4043 195.879 86.9799C196.181 87.5486 196.332 88.205 196.332 88.9491C196.332 89.6933 196.181 90.3532 195.879 90.9288C195.577 91.5045 195.156 91.9538 194.615 92.2767C194.081 92.5997 193.464 92.7611 192.762 92.7611ZM195.773 93.0455L193.141 90.3813L193.73 89.8231L196.342 92.4663L195.773 93.0455ZM192.762 91.9503C193.288 91.9503 193.752 91.8239 194.152 91.5712C194.552 91.3114 194.864 90.9569 195.089 90.5076C195.321 90.0583 195.436 89.5388 195.436 88.9491C195.436 88.3664 195.321 87.8504 195.089 87.4011C194.857 86.9448 194.538 86.5903 194.131 86.3376C193.73 86.0778 193.264 85.9479 192.73 85.9479C192.204 85.9479 191.737 86.0778 191.33 86.3376C190.922 86.5903 190.603 86.9448 190.371 87.4011C190.14 87.8504 190.024 88.3664 190.024 88.9491C190.024 89.5388 190.14 90.0583 190.371 90.5076C190.603 90.9569 190.926 91.3114 191.34 91.5712C191.754 91.8239 192.228 91.9503 192.762 91.9503ZM201.21 92.6348L201.157 91.666V87.3696H202V92.6348H201.21ZM197.461 90.0653V87.3696H198.304V90.0653H197.461ZM198.304 90.0653C198.304 90.5848 198.363 90.9815 198.483 91.2553C198.602 91.5291 198.767 91.7186 198.978 91.8239C199.195 91.9222 199.437 91.9713 199.704 91.9713C200.16 91.9713 200.515 91.8064 200.768 91.4764C201.027 91.1465 201.157 90.6866 201.157 90.0969H201.568C201.568 90.6515 201.487 91.1289 201.326 91.5291C201.164 91.9292 200.929 92.2346 200.62 92.4452C200.318 92.6558 199.946 92.7611 199.504 92.7611C199.097 92.7611 198.739 92.6804 198.43 92.5189C198.121 92.3504 197.882 92.0872 197.714 91.7291C197.545 91.3641 197.461 90.8937 197.461 90.3181V90.0653H198.304ZM205.776 92.7611C205.264 92.7611 204.811 92.6453 204.418 92.4136C204.025 92.1749 203.716 91.8485 203.491 91.4343C203.273 91.0201 203.165 90.5427 203.165 90.0022C203.165 89.4616 203.273 88.9842 203.491 88.57C203.716 88.1558 204.021 87.8329 204.407 87.6012C204.8 87.3625 205.25 87.2432 205.755 87.2432C206.247 87.2432 206.671 87.366 207.029 87.6118C207.387 87.8504 207.665 88.1874 207.861 88.6227C208.058 89.0579 208.156 89.5704 208.156 90.1601H203.807L204.018 89.9811C204.018 90.4023 204.091 90.7639 204.239 91.0657C204.393 91.3676 204.607 91.5993 204.881 91.7607C205.155 91.9152 205.467 91.9924 205.818 91.9924C206.19 91.9924 206.503 91.9047 206.755 91.7291C207.015 91.5536 207.215 91.322 207.356 91.0341L208.082 91.4027C207.949 91.6765 207.77 91.9152 207.545 92.1188C207.328 92.3224 207.068 92.4803 206.766 92.5926C206.471 92.705 206.141 92.7611 205.776 92.7611ZM204.07 89.6231L203.849 89.4546H207.482L207.261 89.6336C207.261 89.2966 207.194 89.0053 207.061 88.7596C206.927 88.5139 206.748 88.3243 206.524 88.1909C206.299 88.0575 206.039 87.9908 205.745 87.9908C205.457 87.9908 205.183 88.0575 204.923 88.1909C204.67 88.3243 204.463 88.5139 204.302 88.7596C204.147 88.9983 204.07 89.2861 204.07 89.6231ZM211.061 92.7611C210.675 92.7611 210.338 92.705 210.05 92.5926C209.763 92.4733 209.52 92.3189 209.324 92.1293C209.134 91.9398 208.997 91.7327 208.913 91.508L209.65 91.2026C209.77 91.4413 209.949 91.6344 210.187 91.7818C210.426 91.9292 210.689 92.0029 210.977 92.0029C211.307 92.0029 211.584 91.9398 211.809 91.8134C212.034 91.68 212.146 91.494 212.146 91.2553C212.146 91.0377 212.062 90.8621 211.893 90.7288C211.732 90.5954 211.49 90.4866 211.167 90.4023L210.661 90.2654C210.184 90.1391 209.812 89.9495 209.545 89.6968C209.278 89.437 209.145 89.1457 209.145 88.8227C209.145 88.3243 209.306 87.9382 209.629 87.6644C209.959 87.3836 210.447 87.2432 211.093 87.2432C211.402 87.2432 211.683 87.2888 211.935 87.3801C212.188 87.4713 212.406 87.6012 212.588 87.7697C212.771 87.9312 212.904 88.1242 212.988 88.3489L212.251 88.6753C212.16 88.4366 212.009 88.2646 211.798 88.1593C211.588 88.054 211.332 88.0014 211.03 88.0014C210.707 88.0014 210.454 88.0716 210.272 88.212C210.089 88.3454 209.998 88.5349 209.998 88.7806C209.998 88.921 210.071 89.0544 210.219 89.1808C210.373 89.3001 210.598 89.3984 210.893 89.4756L211.419 89.6125C211.763 89.6968 212.051 89.8231 212.283 89.9916C212.515 90.1531 212.69 90.3391 212.809 90.5497C212.929 90.7603 212.988 90.985 212.988 91.2237C212.988 91.5396 212.904 91.8134 212.736 92.0451C212.567 92.2767 212.339 92.4557 212.051 92.5821C211.763 92.7015 211.433 92.7611 211.061 92.7611ZM216.104 92.7611C215.591 92.7611 215.194 92.6277 214.914 92.361C214.633 92.0942 214.492 91.7186 214.492 91.2342V85.7268H215.335V91.15C215.335 91.4167 215.405 91.6238 215.545 91.7713C215.693 91.9117 215.896 91.9819 216.156 91.9819C216.24 91.9819 216.321 91.9713 216.398 91.9503C216.483 91.9222 216.591 91.859 216.725 91.7607L217.051 92.4452C216.869 92.5646 216.704 92.6453 216.556 92.6874C216.409 92.7366 216.258 92.7611 216.104 92.7611ZM213.576 88.1172V87.3696H216.914V88.1172H213.576ZM222.548 92.7611C222.162 92.7611 221.825 92.705 221.537 92.5926C221.249 92.4733 221.007 92.3189 220.811 92.1293C220.621 91.9398 220.484 91.7327 220.4 91.508L221.137 91.2026C221.256 91.4413 221.435 91.6344 221.674 91.7818C221.913 91.9292 222.176 92.0029 222.464 92.0029C222.794 92.0029 223.071 91.9398 223.296 91.8134C223.52 91.68 223.633 91.494 223.633 91.2553C223.633 91.0377 223.549 90.8621 223.38 90.7288C223.219 90.5954 222.976 90.4866 222.653 90.4023L222.148 90.2654C221.671 90.1391 221.299 89.9495 221.032 89.6968C220.765 89.437 220.632 89.1457 220.632 88.8227C220.632 88.3243 220.793 87.9382 221.116 87.6644C221.446 87.3836 221.934 87.2432 222.58 87.2432C222.889 87.2432 223.169 87.2888 223.422 87.3801C223.675 87.4713 223.893 87.6012 224.075 87.7697C224.258 87.9312 224.391 88.1242 224.475 88.3489L223.738 88.6753C223.647 88.4366 223.496 88.2646 223.285 88.1593C223.075 88.054 222.818 88.0014 222.517 88.0014C222.194 88.0014 221.941 88.0716 221.758 88.212C221.576 88.3454 221.485 88.5349 221.485 88.7806C221.485 88.921 221.558 89.0544 221.706 89.1808C221.86 89.3001 222.085 89.3984 222.38 89.4756L222.906 89.6125C223.25 89.6968 223.538 89.8231 223.77 89.9916C224.001 90.1531 224.177 90.3391 224.296 90.5497C224.416 90.7603 224.475 90.985 224.475 91.2237C224.475 91.5396 224.391 91.8134 224.222 92.0451C224.054 92.2767 223.826 92.4557 223.538 92.5821C223.25 92.7015 222.92 92.7611 222.548 92.7611ZM225.663 92.6348V87.3696H226.506V92.6348H225.663ZM226.095 86.148C225.955 86.148 225.832 86.0954 225.726 85.9901C225.621 85.8848 225.568 85.7619 225.568 85.6215C225.568 85.4741 225.621 85.3512 225.726 85.2529C225.832 85.1476 225.955 85.095 226.095 85.095C226.242 85.095 226.365 85.1476 226.464 85.2529C226.569 85.3512 226.622 85.4741 226.622 85.6215C226.622 85.7619 226.569 85.8848 226.464 85.9901C226.365 86.0954 226.242 86.148 226.095 86.148ZM228.058 92.6348V85.2635H228.901V92.6348H228.058ZM231.983 92.6348L234.131 87.3696H235.016L232.815 92.6348H231.983ZM231.93 92.6348L229.73 87.3696H230.604L232.752 92.6348H231.93ZM238.026 92.7611C237.513 92.7611 237.06 92.6453 236.667 92.4136C236.274 92.1749 235.965 91.8485 235.74 91.4343C235.523 91.0201 235.414 90.5427 235.414 90.0022C235.414 89.4616 235.523 88.9842 235.74 88.57C235.965 88.1558 236.271 87.8329 236.657 87.6012C237.05 87.3625 237.499 87.2432 238.005 87.2432C238.496 87.2432 238.921 87.366 239.279 87.6118C239.637 87.8504 239.914 88.1874 240.111 88.6227C240.307 89.0579 240.405 89.5704 240.405 90.1601H236.056L236.267 89.9811C236.267 90.4023 236.341 90.7639 236.488 91.0657C236.643 91.3676 236.857 91.5993 237.131 91.7607C237.404 91.9152 237.717 91.9924 238.068 91.9924C238.44 91.9924 238.752 91.9047 239.005 91.7291C239.265 91.5536 239.465 91.322 239.605 91.0341L240.332 91.4027C240.198 91.6765 240.019 91.9152 239.795 92.1188C239.577 92.3224 239.317 92.4803 239.015 92.5926C238.721 92.705 238.391 92.7611 238.026 92.7611ZM236.32 89.6231L236.099 89.4546H239.732L239.51 89.6336C239.51 89.2966 239.444 89.0053 239.31 88.7596C239.177 88.5139 238.998 88.3243 238.773 88.1909C238.549 88.0575 238.289 87.9908 237.994 87.9908C237.706 87.9908 237.432 88.0575 237.173 88.1909C236.92 88.3243 236.713 88.5139 236.551 88.7596C236.397 88.9983 236.32 89.2861 236.32 89.6231ZM241.931 89.781C241.931 89.2124 242.04 88.7525 242.258 88.4015C242.475 88.0435 242.753 87.7802 243.09 87.6118C243.434 87.4362 243.795 87.3485 244.174 87.3485V88.1383C243.865 88.1383 243.567 88.1909 243.279 88.2962C242.998 88.3945 242.767 88.5595 242.584 88.7912C242.402 89.0228 242.31 89.3387 242.31 89.7389L241.931 89.781ZM241.468 92.6348V87.3696H242.31V92.6348H241.468ZM30.6146 107.761C30.2285 107.761 29.8915 107.705 29.6037 107.593C29.3159 107.473 29.0737 107.319 28.8771 107.129C28.6876 106.94 28.5507 106.733 28.4664 106.508L29.2035 106.203C29.3229 106.441 29.5019 106.634 29.7406 106.782C29.9793 106.929 30.2425 107.003 30.5304 107.003C30.8603 107.003 31.1376 106.94 31.3623 106.813C31.5869 106.68 31.6993 106.494 31.6993 106.255C31.6993 106.038 31.615 105.862 31.4465 105.729C31.2851 105.595 31.0429 105.487 30.7199 105.402L30.2145 105.265C29.7371 105.139 29.365 104.95 29.0982 104.697C28.8315 104.437 28.6981 104.146 28.6981 103.823C28.6981 103.324 28.8596 102.938 29.1825 102.664C29.5124 102.384 30.0003 102.243 30.6462 102.243C30.9551 102.243 31.2359 102.289 31.4886 102.38C31.7414 102.471 31.959 102.601 32.1415 102.77C32.3241 102.931 32.4574 103.124 32.5417 103.349L31.8046 103.675C31.7133 103.437 31.5624 103.265 31.3518 103.159C31.1411 103.054 30.8849 103.001 30.583 103.001C30.2601 103.001 30.0074 103.072 29.8248 103.212C29.6423 103.345 29.551 103.535 29.551 103.781C29.551 103.921 29.6248 104.054 29.7722 104.181C29.9266 104.3 30.1513 104.398 30.4461 104.476L30.9727 104.613C31.3167 104.697 31.6045 104.823 31.8362 104.992C32.0678 105.153 32.2433 105.339 32.3627 105.55C32.482 105.76 32.5417 105.985 32.5417 106.224C32.5417 106.54 32.4574 106.813 32.289 107.045C32.1205 107.277 31.8923 107.456 31.6045 107.582C31.3167 107.701 30.9867 107.761 30.6146 107.761ZM35.6568 107.761C35.1443 107.761 34.7477 107.628 34.4669 107.361C34.1861 107.094 34.0457 106.719 34.0457 106.234V100.727H34.8881V106.15C34.8881 106.417 34.9583 106.624 35.0987 106.771C35.2461 106.912 35.4497 106.982 35.7095 106.982C35.7937 106.982 35.8744 106.971 35.9517 106.95C36.0359 106.922 36.1447 106.859 36.2781 106.761L36.6045 107.445C36.422 107.565 36.257 107.645 36.1096 107.687C35.9622 107.737 35.8113 107.761 35.6568 107.761ZM33.1295 103.117V102.37H36.4677V103.117H33.1295ZM39.9532 107.761C39.4407 107.761 38.9844 107.645 38.5843 107.414C38.1911 107.175 37.8822 106.848 37.6576 106.434C37.4329 106.02 37.3206 105.543 37.3206 105.002C37.3206 104.462 37.4294 103.984 37.6471 103.57C37.8717 103.156 38.1806 102.833 38.5737 102.601C38.9739 102.363 39.4267 102.243 39.9322 102.243C40.4517 102.243 40.908 102.363 41.3011 102.601C41.7013 102.833 42.0102 103.156 42.2278 103.57C42.4524 103.984 42.5648 104.462 42.5648 105.002C42.5648 105.543 42.4524 106.02 42.2278 106.434C42.0102 106.848 41.7048 107.175 41.3116 107.414C40.9185 107.645 40.4657 107.761 39.9532 107.761ZM39.9532 106.982C40.3042 106.982 40.6096 106.898 40.8694 106.729C41.1291 106.561 41.3327 106.329 41.4801 106.034C41.6346 105.739 41.7118 105.395 41.7118 105.002C41.7118 104.609 41.6346 104.265 41.4801 103.97C41.3327 103.675 41.1256 103.444 40.8588 103.275C40.5921 103.107 40.2832 103.022 39.9322 103.022C39.5882 103.022 39.2828 103.107 39.016 103.275C38.7563 103.444 38.5492 103.675 38.3947 103.97C38.2473 104.265 38.1736 104.609 38.1736 105.002C38.1736 105.388 38.2473 105.732 38.3947 106.034C38.5492 106.329 38.7598 106.561 39.0265 106.729C39.3003 106.898 39.6092 106.982 39.9532 106.982ZM43.7345 107.635V102.37H44.5243L44.5769 103.338V107.635H43.7345ZM47.4307 107.635V104.939H48.2731V107.635H47.4307ZM47.4307 104.939C47.4307 104.419 47.371 104.023 47.2516 103.749C47.1323 103.475 46.9673 103.289 46.7567 103.191C46.5461 103.086 46.3074 103.033 46.0406 103.033C45.5773 103.033 45.2157 103.198 44.956 103.528C44.7033 103.851 44.5769 104.311 44.5769 104.907H44.1662C44.1662 104.353 44.247 103.875 44.4084 103.475C44.5699 103.075 44.8051 102.77 45.114 102.559C45.4228 102.348 45.7949 102.243 46.2302 102.243C46.6444 102.243 47.0024 102.327 47.3043 102.496C47.6132 102.657 47.8519 102.917 48.0204 103.275C48.1959 103.633 48.2801 104.104 48.2731 104.686V104.939H47.4307ZM51.9126 107.761C51.4001 107.761 50.9473 107.645 50.5542 107.414C50.161 107.175 49.8521 106.848 49.6275 106.434C49.4098 106.02 49.301 105.543 49.301 105.002C49.301 104.462 49.4098 103.984 49.6275 103.57C49.8521 103.156 50.1575 102.833 50.5436 102.601C50.9368 102.363 51.3861 102.243 51.8915 102.243C52.3829 102.243 52.8077 102.366 53.1657 102.612C53.5237 102.85 53.801 103.187 53.9976 103.623C54.1942 104.058 54.2925 104.57 54.2925 105.16H49.9434L50.154 104.981C50.154 105.402 50.2277 105.764 50.3751 106.066C50.5296 106.368 50.7437 106.599 51.0175 106.761C51.2913 106.915 51.6037 106.992 51.9547 106.992C52.3268 106.992 52.6392 106.905 52.8919 106.729C53.1517 106.554 53.3517 106.322 53.4921 106.034L54.2187 106.403C54.0854 106.676 53.9063 106.915 53.6817 107.119C53.4641 107.322 53.2043 107.48 52.9024 107.593C52.6076 107.705 52.2776 107.761 51.9126 107.761ZM50.2067 104.623L49.9855 104.455H53.6185L53.3974 104.634C53.3974 104.297 53.3307 104.005 53.1973 103.76C53.0639 103.514 52.8849 103.324 52.6602 103.191C52.4356 103.058 52.1758 102.991 51.881 102.991C51.5932 102.991 51.3194 103.058 51.0596 103.191C50.8069 103.324 50.5998 103.514 50.4383 103.76C50.2839 103.998 50.2067 104.286 50.2067 104.623ZM55.713 107.782C55.5515 107.782 55.4111 107.726 55.2918 107.614C55.1795 107.494 55.1233 107.357 55.1233 107.203C55.1233 107.042 55.1795 106.905 55.2918 106.792C55.4111 106.673 55.5515 106.613 55.713 106.613C55.8745 106.613 56.0114 106.673 56.1237 106.792C56.236 106.905 56.2922 107.042 56.2922 107.203C56.2922 107.357 56.236 107.494 56.1237 107.614C56.0114 107.726 55.8745 107.782 55.713 107.782Z" fill="#939393"/>
</g>
<defs>
<filter id="filter0_d_8218_19592" x="0.956528" y="0" width="271.535" height="160.022" filterUnits="userSpaceOnUse" color-interpolation-filters="sRGB">
<feFlood flood-opacity="0" result="BackgroundImageFix"/>
<feColorMatrix in="SourceAlpha" type="matrix" values="0 0 0 0 0 0 0 0 0 0 0 0 0 0 0 0 0 0 127 0" result="hardAlpha"/>
<feOffset dy="20.3087"/>
<feGaussianBlur stdDeviation="7.52174"/>
<feComposite in2="hardAlpha" operator="out"/>
<feColorMatrix type="matrix" values="0 0 0 0 0 0 0 0 0 0 0 0 0 0 0 0 0 0 0.02 0"/>
<feBlend mode="normal" in2="BackgroundImageFix" result="effect1_dropShadow_8218_19592"/>
<feBlend mode="normal" in="SourceGraphic" in2="effect1_dropShadow_8218_19592" result="shape"/>
</filter>
<filter id="filter1_d_8218_19592" x="25.026" y="62.8304" width="108.313" height="10.5306" filterUnits="userSpaceOnUse" color-interpolation-filters="sRGB">
<feFlood flood-opacity="0" result="BackgroundImageFix"/>
<feColorMatrix in="SourceAlpha" type="matrix" values="0 0 0 0 0 0 0 0 0 0 0 0 0 0 0 0 0 0 127 0" result="hardAlpha"/>
<feOffset dy="0.752174"/>
<feGaussianBlur stdDeviation="1.50435"/>
<feComposite in2="hardAlpha" operator="out"/>
<feColorMatrix type="matrix" values="0 0 0 0 0 0 0 0 0 0 0 0 0 0 0 0 0 0 0.12 0"/>
<feBlend mode="normal" in2="BackgroundImageFix" result="effect1_dropShadow_8218_19592"/>
<feBlend mode="normal" in="SourceGraphic" in2="effect1_dropShadow_8218_19592" result="shape"/>
</filter>
</defs>
</svg>
