<svg xmlns="http://www.w3.org/2000/svg" width="16" height="16" viewBox="0 0 16 16" fill="none">
    <path
        d="M8.00016 1.33337C4.32016 1.33337 1.3335 4.32004 1.3335 8.00004C1.3335 11.68 4.32016 14.6667 8.00016 14.6667C11.6802 14.6667 14.6668 11.68 14.6668 8.00004C14.6668 4.32004 11.6802 1.33337 8.00016 1.33337ZM8.00016 13.3334C5.0535 13.3334 2.66683 10.9467 2.66683 8.00004C2.66683 5.05337 5.0535 2.66671 8.00016 2.66671C10.9468 2.66671 13.3335 5.05337 13.3335 8.00004C13.3335 10.9467 10.9468 13.3334 8.00016 13.3334Z"
        fill="#2C2C2C" />
    <path
        d="M8.00016 11.3334C9.84111 11.3334 11.3335 9.84099 11.3335 8.00004C11.3335 6.15909 9.84111 4.66671 8.00016 4.66671C6.15921 4.66671 4.66683 6.15909 4.66683 8.00004C4.66683 9.84099 6.15921 11.3334 8.00016 11.3334Z"
        fill="#2C2C2C" />
</svg>