<svg width="25" height="24" viewBox="0 0 25 24" fill="none" xmlns="http://www.w3.org/2000/svg">
<path fill-rule="evenodd" clip-rule="evenodd" d="M12.6246 2.25C12.0752 2.25 11.5383 2.41458 11.0833 2.72253C10.6283 3.03048 10.2759 3.46768 10.0717 3.97775C9.86744 4.48782 9.82067 5.04737 9.9374 5.58427C10.0541 6.12117 10.329 6.61079 10.7266 6.99L10.5266 7.346L8.72962 10.569C8.61505 10.7856 8.49058 10.9968 8.35662 11.202C8.33789 11.2286 8.31786 11.2543 8.29662 11.279C8.26901 11.261 8.24232 11.2416 8.21662 11.221C8.03127 11.0603 7.85342 10.8911 7.68362 10.714L7.60362 10.635C7.32011 10.3464 7.02936 10.0649 6.73162 9.791C6.88872 9.37227 6.91746 8.91623 6.81419 8.48109C6.71092 8.04595 6.48032 7.65146 6.15182 7.34798C5.82332 7.0445 5.41184 6.8458 4.9699 6.77724C4.52796 6.70869 4.07561 6.77339 3.67061 6.96309C3.26561 7.1528 2.92633 7.45889 2.69609 7.84229C2.46585 8.2257 2.35508 8.66902 2.37794 9.11566C2.4008 9.5623 2.55625 9.992 2.82443 10.3499C3.09261 10.7078 3.46137 10.9776 3.88362 11.125L3.89362 11.298C3.91762 11.623 3.95962 12.012 4.00662 12.456L4.19162 14.173L4.27862 15.003C4.39062 16.086 4.49862 17.121 4.65862 17.994C4.75862 18.546 4.88662 19.066 5.06262 19.517C5.23762 19.965 5.47962 20.392 5.83662 20.712C6.46662 21.276 7.22662 21.522 8.13262 21.638C9.00762 21.75 10.1106 21.75 11.4846 21.75H13.7646C15.1386 21.75 16.2416 21.75 17.1166 21.638C18.0236 21.522 18.7826 21.276 19.4126 20.712C19.7696 20.392 20.0116 19.965 20.1866 19.517C20.3626 19.066 20.4906 18.546 20.5916 17.994C20.7516 17.121 20.8586 16.086 20.9706 15.004L21.0576 14.174L21.2426 12.457C21.2896 12.012 21.3326 11.623 21.3546 11.298L21.3656 11.125C21.7879 10.9776 22.1566 10.7078 22.4248 10.3499C22.693 9.992 22.8484 9.5623 22.8713 9.11566C22.8942 8.66902 22.7834 8.2257 22.5532 7.84229C22.3229 7.45889 21.9836 7.1528 21.5786 6.96309C21.1736 6.77339 20.7213 6.70869 20.2793 6.77724C19.8374 6.8458 19.4259 7.0445 19.0974 7.34798C18.7689 7.65146 18.5383 8.04595 18.4351 8.48109C18.3318 8.91623 18.3605 9.37227 18.5176 9.791C18.2536 10.028 17.9636 10.317 17.6446 10.635L17.5656 10.714C17.3076 10.972 17.1536 11.124 17.0326 11.221C17.0069 11.2416 16.9802 11.261 16.9526 11.279C16.9314 11.2543 16.9114 11.2286 16.8926 11.202C16.7587 10.9968 16.6342 10.7856 16.5196 10.569L14.7226 7.346L14.5226 6.99C14.9202 6.61079 15.1951 6.12117 15.3118 5.58427C15.4286 5.04737 15.3818 4.48782 15.1776 3.97775C14.9733 3.46768 14.621 3.03048 14.1659 2.72253C13.7109 2.41458 13.1741 2.25 12.6246 2.25ZM11.3746 5C11.3746 4.66848 11.5063 4.35054 11.7407 4.11612C11.9752 3.8817 12.2931 3.75 12.6246 3.75C12.9561 3.75 13.2741 3.8817 13.5085 4.11612C13.7429 4.35054 13.8746 4.66848 13.8746 5C13.8746 5.33152 13.7429 5.64946 13.5085 5.88388C13.2741 6.1183 12.9561 6.25 12.6246 6.25C12.2931 6.25 11.9752 6.1183 11.7407 5.88388C11.5063 5.64946 11.3746 5.33152 11.3746 5ZM11.8296 8.09C11.9096 7.94533 11.9843 7.812 12.0536 7.69C12.4302 7.76845 12.819 7.76845 13.1956 7.69C13.265 7.812 13.3396 7.94533 13.4196 8.09L15.2266 11.33C15.3816 11.608 15.5246 11.865 15.6646 12.064C15.8136 12.275 16.0156 12.509 16.3266 12.646C16.5946 12.764 16.8906 12.805 17.1806 12.765C17.5166 12.718 17.7756 12.549 17.9766 12.387C18.1646 12.234 18.3736 12.026 18.6006 11.801L18.6246 11.777C18.9996 11.403 19.2746 11.132 19.4846 10.94C19.6046 11.0107 19.731 11.07 19.8636 11.118L19.8586 11.192C19.8386 11.486 19.7986 11.849 19.7486 12.308L19.5666 14.013L19.4746 14.883C19.4046 15.553 19.3406 16.178 19.2656 16.75H5.98362C5.9055 16.1283 5.83549 15.5056 5.77362 14.882L5.68362 14.012L5.49962 12.308C5.45465 11.912 5.41664 11.5153 5.38562 11.118C5.51895 11.0693 5.64562 11.01 5.76562 10.94C5.97562 11.132 6.24962 11.403 6.62562 11.777L6.64862 11.801C6.87562 12.026 7.08462 12.234 7.27262 12.387C7.47362 12.549 7.73262 12.718 8.06862 12.765C8.35862 12.805 8.65462 12.764 8.92262 12.645C9.23262 12.509 9.43662 12.275 9.58462 12.064C9.74219 11.8261 9.88836 11.5808 10.0226 11.329L11.8296 8.09ZM6.24262 18.25C6.30729 18.526 6.37962 18.766 6.45962 18.97C6.58962 19.3 6.72062 19.49 6.83662 19.594C7.15362 19.877 7.57562 20.054 8.32362 20.15C9.09162 20.249 10.0986 20.25 11.5366 20.25H13.7126C15.1506 20.25 16.1576 20.249 16.9256 20.15C17.6736 20.055 18.0956 19.877 18.4126 19.594C18.5286 19.49 18.6606 19.3 18.7896 18.971C18.8696 18.7663 18.942 18.526 19.0066 18.25H6.24262ZM3.87462 9C3.87463 8.85205 3.9184 8.70741 4.00042 8.58427C4.08244 8.46114 4.19905 8.36501 4.33557 8.30799C4.47209 8.25097 4.62243 8.2356 4.76766 8.26382C4.9129 8.29204 5.04654 8.36258 5.15178 8.46657C5.25702 8.57056 5.32915 8.70335 5.3591 8.84824C5.38904 8.99313 5.37547 9.14364 5.32008 9.28083C5.26469 9.41802 5.16997 9.53577 5.04782 9.61925C4.92567 9.70273 4.78156 9.74822 4.63362 9.75H4.62462C4.42571 9.75 4.23494 9.67098 4.09429 9.53033C3.95364 9.38968 3.87462 9.19891 3.87462 9ZM19.8746 9C19.8746 8.85166 19.9186 8.70666 20.001 8.58332C20.0834 8.45999 20.2006 8.36386 20.3376 8.30709C20.4747 8.25033 20.6255 8.23547 20.7709 8.26441C20.9164 8.29335 21.0501 8.36478 21.155 8.46967C21.2598 8.57456 21.3313 8.7082 21.3602 8.85368C21.3891 8.99917 21.3743 9.14997 21.3175 9.28701C21.2608 9.42406 21.1646 9.54119 21.0413 9.6236C20.918 9.70601 20.773 9.75 20.6246 9.75H20.6156C20.418 9.74841 20.2291 9.6686 20.0902 9.52804C19.9513 9.38747 19.8738 9.1976 19.8746 9Z" fill="#535353"/>
</svg>
