<svg width="16" height="16" viewBox="0 0 16 16" fill="none" xmlns="http://www.w3.org/2000/svg">
<path d="M14.9733 4.00008C14.4599 4.23341 13.9066 4.38675 13.3333 4.46008C13.9199 4.10675 14.3733 3.54675 14.5866 2.87341C14.0333 3.20675 13.4199 3.44008 12.7733 3.57341C12.2466 3.00008 11.5066 2.66675 10.6666 2.66675C9.09995 2.66675 7.81994 3.94675 7.81994 5.52675C7.81994 5.75341 7.84661 5.97342 7.89328 6.18008C5.51995 6.06008 3.40661 4.92008 1.99994 3.19341C1.75328 3.61341 1.61328 4.10675 1.61328 4.62675C1.61328 5.62008 2.11328 6.50008 2.88661 7.00008C2.41328 7.00008 1.97328 6.86675 1.58661 6.66675V6.68675C1.58661 8.07341 2.57328 9.23341 3.87994 9.49341C3.46043 9.60822 3.02001 9.62419 2.59328 9.54008C2.77435 10.1084 3.12897 10.6057 3.60729 10.962C4.08561 11.3184 4.66358 11.5159 5.25994 11.5267C4.24903 12.327 2.99594 12.7596 1.70661 12.7534C1.47994 12.7534 1.25328 12.7401 1.02661 12.7134C2.29328 13.5267 3.79994 14.0001 5.41328 14.0001C10.6666 14.0001 13.5533 9.64008 13.5533 5.86008C13.5533 5.73341 13.5533 5.61341 13.5466 5.48675C14.1066 5.08675 14.5866 4.58008 14.9733 4.00008Z" fill="#2C2C2C"/>
</svg>
