<svg width="25" height="24" fill="none" xmlns="http://www.w3.org/2000/svg"><path fill-rule="evenodd" clip-rule="evenodd" d="M12.644 3c-2.258 0-4.316.746-5.533 1.356a9.081 9.081 0 0 0-.786.444L7.71 6.839l.652.26c2.548 1.285 5.965 1.285 8.513 0l.74-.385 1.31-1.914a8.006 8.006 0 0 0-.845-.478C16.87 3.719 14.86 3 12.645 3M9.424 5.308c-.49-.092-.975-.214-1.45-.364 1.14-.506 2.84-1.044 4.67-1.044 1.27 0 2.469.258 3.46.585a26.469 26.469 0 0 0-3.584.782c-.93.27-2.017.24-3.096.041Zm7.98 2.532-.123.062c-2.803 1.414-6.521 1.414-9.324 0l-.117-.059c-4.21 4.62-7.426 13.155 4.804 13.155s8.938-8.693 4.76-13.158ZM12.124 12a1 1 0 0 0 0 2v-2Zm1-1v-.5h-1v.5a2 2 0 1 0 0 4v2a1 1 0 0 1-.943-.666.5.5 0 1 0-.942.332A2 2 0 0 0 12.125 18v.5h1V18a2 2 0 0 0 0-4v-2a1 1 0 0 1 .943.666.5.5 0 1 0 .943-.332A2 2 0 0 0 13.125 11Zm0 4v2a1 1 0 0 0 0-2Z" fill="#9035FF"/></svg>