<svg xmlns="http://www.w3.org/2000/svg" width="28" height="28" fill="none"><path opacity=".1" d="M28 14c0 7.732-6.268 14-14 14S0 21.732 0 14 6.268 0 14 0s14 6.268 14 14ZM3.773 14c0 5.648 4.579 10.227 10.227 10.227 5.648 0 10.227-4.579 10.227-10.227 0-5.648-4.579-10.227-10.227-10.227C8.352 3.773 3.773 8.352 3.773 14Z" fill="#A558FF"/><path d="M14 1.887c0-1.042.848-1.9 1.88-1.76a13.999 13.999 0 0 1 12.11 14.4c-.04 1.042-1.03 1.73-2.056 1.552-1.027-.18-1.695-1.16-1.708-2.202a10.226 10.226 0 0 0-8.35-9.93C14.852 3.756 14 2.929 14 1.887Z" fill="#A558FF"/></svg>