<svg xmlns="http://www.w3.org/2000/svg" width="8" height="16" viewBox="0 0 16 16" fill="none"><g clip-path="url(#a)"><path d="M10.267 2a8.1 8.1 0 0 0-.424.878 11.708 11.708 0 0 0-3.657 0A8.099 8.099 0 0 0 5.762 2a12.778 12.778 0 0 0-3.298 1.038 13.84 13.84 0 0 0-2.396 9.256c1.22.918 2.59 1.617 4.05 2.069a10.3 10.3 0 0 0 .886-1.39 7.705 7.705 0 0 1-1.366-.663 2.84 2.84 0 0 0 .336-.263 9.312 9.312 0 0 0 8.082 0c.111.095.223.183.335.263a8.654 8.654 0 0 1-1.366.671c.248.497.536.973.863 1.421a13.13 13.13 0 0 0 4.04-2.068 13.752 13.752 0 0 0-2.395-9.256A12.85 12.85 0 0 0 10.267 2Zm-4.904 8.425a1.55 1.55 0 0 1-1.437-1.597 1.541 1.541 0 0 1 1.437-1.597 1.541 1.541 0 0 1 1.438 1.597 1.541 1.541 0 0 1-1.438 1.597Zm5.303 0a1.55 1.55 0 0 1-1.438-1.597 1.541 1.541 0 0 1 1.438-1.597 1.533 1.533 0 0 1 1.438 1.597 1.533 1.533 0 0 1-1.438 1.597Z" fill="#9035FF"/></g><defs><clipPath id="a"><path fill="#fff" d="M0 0h16v16H0z"/></clipPath></defs></svg>