<svg width="32" height="32" fill="none" xmlns="http://www.w3.org/2000/svg"><rect width="32" height="32" rx="16" fill="#F4EBFF"/><g clip-path="url(#a)"><path d="M13.333 18C16.583 18 18 16.633 18 13.334 18 16.633 19.407 18 22.667 18 19.407 18 18 19.407 18 22.667 18 19.407 16.583 18 13.333 18Zm-4-5.666c2.09 0 3-.88 3-3 0 2.12.905 3 3 3-2.095 0-3 .904-3 3 0-2.096-.91-3-3-3Z" fill="#9035FF" stroke="#9035FF" stroke-linejoin="round"/></g><defs><clipPath id="a"><path fill="#fff" transform="translate(8 8)" d="M0 0h16v16H0z"/></clipPath></defs></svg>