<svg width="25" height="24" fill="none" xmlns="http://www.w3.org/2000/svg"><path fill-rule="evenodd" clip-rule="evenodd" d="M2.71 7.875c-.54 1.127-.35 2.446.03 5.083l.278 1.937c.487 3.388.731 5.081 1.906 6.093C6.099 22 7.822 22 11.269 22h2.212c3.447 0 5.17 0 6.345-1.012 1.175-1.012 1.419-2.705 1.906-6.093l.279-1.937c.38-2.637.57-3.956.029-5.083-.541-1.127-1.691-1.813-3.992-3.183l-1.385-.825C14.575 2.622 13.529 2 12.375 2c-1.154 0-2.199.622-4.288 1.867l-1.385.825c-2.3 1.37-3.451 2.056-3.992 3.183ZM8.625 18a.75.75 0 0 1 .75-.75h6a.75.75 0 1 1 0 1.5h-6a.75.75 0 0 1-.75-.75Z" fill="#9035FF"/></svg>