<svg width="25" height="24" fill="none" xmlns="http://www.w3.org/2000/svg"><g clip-path="url(#a)"><path d="M21.875 11.25v8.25a1.5 1.5 0 0 1-1.5 1.5H6.125a1.5 1.5 0 0 1-1.5-1.5v-8.25m8.25-6.375A2.625 2.625 0 1 0 10.25 7.5h2.625m0-2.625V7.5m0-2.625A2.625 2.625 0 1 1 15.5 7.5h-2.625m0 0V21M4.25 11.25h18c.621 0 1.125-.504 1.125-1.125v-1.5c0-.621-.504-1.125-1.125-1.125h-18c-.621 0-1.125.504-1.125 1.125v1.5c0 .621.504 1.125 1.125 1.125Z" stroke="#535353" stroke-width="1.5" stroke-linecap="round" stroke-linejoin="round"/></g><defs><clipPath id="a"><path fill="#fff" transform="translate(.875)" d="M0 0h24v24H0z"/></clipPath></defs></svg>