<svg width="32" height="32" fill="none" xmlns="http://www.w3.org/2000/svg"><rect width="32" height="32" rx="16" fill="#F4EBFF"/><circle cx="16" cy="12" fill="#9035FF" stroke="#9035FF" stroke-width="1.5" r="2.667"/><path fill-rule="evenodd" clip-rule="evenodd" d="M19 22.667c-1.1 0-1.65 0-1.992-.342-.341-.342-.341-.892-.341-1.992s0-1.65.341-1.991C17.35 18 17.9 18 19 18s1.65 0 1.992.342c.341.341.341.891.341 1.991s0 1.65-.341 1.992c-.342.342-.892.342-1.992.342Zm.389-3.37a.389.389 0 1 0-.778 0v.647h-.648a.389.389 0 0 0 0 .778h.648v.648a.389.389 0 0 0 .778 0v-.648h.648a.389.389 0 1 0 0-.778h-.648v-.648Z" fill="#9035FF"/><path d="M18.276 17.005A7.525 7.525 0 0 0 16 16.667c-2.577 0-4.667 1.193-4.667 2.666 0 1.427 1.962 2.592 4.428 2.663a3.235 3.235 0 0 1-.043-.25c-.052-.385-.051-.855-.051-1.355v-.115c0-.5 0-.971.051-1.356.058-.429.196-.898.583-1.286.388-.387.857-.525 1.286-.582.208-.029.44-.041.69-.047Z" fill="#9035FF"/></svg>