<svg width="25" height="24" fill="none" xmlns="http://www.w3.org/2000/svg"><path fill-rule="evenodd" clip-rule="evenodd" d="M5.75 5.25c0 .845.279 1.623.75 2.25H3.125a1.5 1.5 0 0 0 0 3H11v-3h2.25v3h7.875a1.5 1.5 0 1 0 0-3H17.75a3.75 3.75 0 0 0-5.625-4.929A3.75 3.75 0 0 0 5.75 5.25Zm5.248 0v-.057A1.5 1.5 0 1 0 9.5 6.75H11l-.002-1.5Zm3.75-1.5a1.5 1.5 0 0 0-1.5 1.443l.002.057v1.5h1.498a1.5 1.5 0 0 0 0-3Z" fill="#9035FF"/><path d="M11 12.75H3.125V18a3 3 0 0 0 3 3H11v-8.25ZM13.25 21v-8.25h7.875V18a3 3 0 0 1-3 3H13.25Z" fill="#9035FF"/></svg>