<svg width="25" height="24" fill="none" xmlns="http://www.w3.org/2000/svg"><path fill-rule="evenodd" clip-rule="evenodd" d="M12.625 2.25a2.75 2.75 0 0 0-1.898 4.74l-.2.356-1.797 3.223a8.004 8.004 0 0 1-.373.633 1.012 1.012 0 0 1-.06.077 1.008 1.008 0 0 1-.08-.058 7.986 7.986 0 0 1-.533-.507l-.08-.079c-.283-.289-.574-.57-.872-.844a2.25 2.25 0 1 0-2.848 1.334l.01.173c.024.325.066.714.113 1.158l.185 1.717.087.83c.112 1.083.22 2.118.38 2.991.1.552.228 1.072.404 1.523.175.448.417.875.774 1.195.63.564 1.39.81 2.296.926.875.112 1.978.112 3.352.112h2.28c1.374 0 2.477 0 3.352-.112.907-.116 1.666-.362 2.296-.926.357-.32.6-.747.774-1.195.176-.451.304-.971.405-1.523.16-.873.267-1.908.38-2.99l.086-.83.185-1.717c.047-.445.09-.834.112-1.159l.011-.173a2.25 2.25 0 1 0-2.848-1.334c-.264.237-.554.526-.873.844l-.079.079c-.258.258-.412.41-.533.507-.026.02-.052.04-.08.058a1.012 1.012 0 0 1-.06-.077 8.001 8.001 0 0 1-.373-.633l-1.797-3.223-.2-.356a2.75 2.75 0 0 0-1.898-4.74ZM11.375 5a1.25 1.25 0 1 1 2.5 0 1.25 1.25 0 0 1-2.5 0Zm.455 3.09c.08-.145.155-.278.224-.4a2.8 2.8 0 0 0 1.142 0c.07.122.144.255.224.4l1.807 3.24c.155.278.298.535.438.734.15.211.351.445.662.582.268.118.564.159.854.119.336-.047.595-.216.796-.378.188-.153.397-.361.624-.586l.024-.024c.375-.374.65-.645.86-.837.12.07.246.13.38.178l-.006.074c-.02.294-.06.657-.11 1.116l-.182 1.705-.092.87c-.07.67-.134 1.295-.209 1.867H5.984a71.952 71.952 0 0 1-.21-1.868l-.09-.87-.184-1.704a34.003 34.003 0 0 1-.114-1.19c.133-.049.26-.108.38-.178.21.192.484.463.86.837l.023.024c.227.225.436.433.624.586.201.162.46.331.796.378.29.04.586-.001.854-.12.31-.136.514-.37.662-.581.158-.238.304-.483.438-.735L11.83 8.09ZM6.243 18.25c.065.276.137.516.217.72.13.33.261.52.377.624.317.283.74.46 1.487.556.768.099 1.775.1 3.213.1h2.176c1.438 0 2.445-.001 3.213-.1.748-.095 1.17-.273 1.487-.556.116-.104.248-.294.377-.623.08-.205.152-.445.217-.721H6.243ZM3.875 9a.75.75 0 1 1 .76.75h-.01a.75.75 0 0 1-.75-.75Zm16 0a.75.75 0 1 1 .75.75h-.009a.747.747 0 0 1-.74-.75Z" fill="#535353"/></svg>