<svg width="25" height="24" fill="none" xmlns="http://www.w3.org/2000/svg"><path fill-rule="evenodd" clip-rule="evenodd" d="M14.511 12.334A2 2 0 0 0 12.625 11v-.5h-1v.5a2 2 0 0 0 0 4v2c-.435 0-.806-.277-.944-.666a.502.502 0 0 0-.812-.217.499.499 0 0 0-.13.55A2 2 0 0 0 11.625 18v.5h1V18a2 2 0 0 0 0-4v-2a1 1 0 0 1 .943.666.5.5 0 0 0 .943-.332ZM11.625 12a1 1 0 0 0 0 2v-2Zm1 5a1 1 0 0 0 0-2v2Z" fill="#535353" stroke="#535353" stroke-width=".5"/><path fill-rule="evenodd" clip-rule="evenodd" d="M6.702 4.31C7.928 3.71 9.942 3 12.145 3c2.157 0 4.117.68 5.337 1.273l.069.034c.368.181.665.353.874.493l-1.847 2.7c4.258 4.353 7.547 13.498-4.433 13.498-11.981 0-8.78-8.979-4.485-13.498L5.824 4.8a8.307 8.307 0 0 1 .878-.489Zm8.689 3.155 1.478-2.162c-1.374.099-3.01.422-4.585.878-1.126.325-2.376.276-3.533.062a12.501 12.501 0 0 1-.868-.193l.96 1.413c2.057.733 4.49.733 6.548.002Zm-7.126.85c2.407.93 5.301.93 7.708-.001a14.65 14.65 0 0 1 2.495 3.572c.675 1.379 1.044 2.757.983 3.945-.058 1.146-.509 2.126-1.538 2.854-1.074.759-2.88 1.314-5.769 1.314-2.893 0-4.707-.546-5.79-1.296-1.038-.718-1.493-1.685-1.558-2.816-.067-1.175.293-2.546.966-3.935a15.32 15.32 0 0 1 2.503-3.637ZM7.69 4.958c.4.119.818.223 1.242.301 1.075.198 2.153.227 3.073-.04a27 27 0 0 1 3.265-.735A10.945 10.945 0 0 0 12.144 4c-1.723 0-3.329.48-4.454.958Z" fill="#535353" stroke="#535353" stroke-width=".5"/></svg>