<svg width="32" height="32" fill="none" xmlns="http://www.w3.org/2000/svg"><rect width="32" height="32" rx="16" fill="#F4EBFF"/><path fill-rule="evenodd" clip-rule="evenodd" d="m17.086 21.648-.362.61a.847.847 0 0 1-1.449 0l-.36-.61c-.281-.474-.421-.71-.646-.841-.226-.131-.51-.136-1.076-.146-.837-.014-1.362-.066-1.802-.248a3.333 3.333 0 0 1-1.804-1.804c-.254-.613-.254-1.389-.254-2.942V15c0-2.182 0-3.273.492-4.075a3.332 3.332 0 0 1 1.1-1.1c.802-.491 1.893-.491 4.075-.491h2c2.182 0 3.273 0 4.075.49.448.276.826.653 1.1 1.101.492.802.492 1.893.492 4.075v.667c0 1.553 0 2.33-.254 2.942a3.333 3.333 0 0 1-1.804 1.804c-.44.182-.965.234-1.802.248-.567.01-.85.015-1.076.146-.225.13-.365.367-.645.841Zm-3.753-5.814a.5.5 0 0 0 0 1H17a.5.5 0 0 0 0-1h-3.667Zm-.5-1.834a.5.5 0 0 1 .5-.5h5.334a.5.5 0 1 1 0 1h-5.334a.5.5 0 0 1-.5-.5Z" fill="#9035FF"/></svg>