<svg width="16" height="16" fill="none" xmlns="http://www.w3.org/2000/svg"><path fill-rule="evenodd" clip-rule="evenodd" d="M10 .833H7.296C6.07.833 5.1.833 4.34.935c-.782.106-1.415.327-1.913.826-.5.499-.72 1.131-.826 1.913-.102.76-.102 1.73-.102 2.955v4.038a2.5 2.5 0 0 0 2.11 2.47c.092.509.268.944.622 1.297.402.402.907.574 1.507.655.578.078 1.313.078 2.224.078h2.074c.911 0 1.646 0 2.224-.078.6-.08 1.106-.253 1.507-.655.401-.4.574-.906.654-1.506.078-.578.078-1.313.078-2.225V7.297c0-.912 0-1.647-.078-2.225-.08-.6-.253-1.105-.654-1.506-.354-.354-.789-.53-1.298-.622A2.5 2.5 0 0 0 10 .834Zm1.42 2.014A1.5 1.5 0 0 0 10 1.833H7.333c-1.27 0-2.174.001-2.86.094-.67.09-1.056.259-1.338.541-.283.282-.452.669-.542 1.34-.092.684-.093 1.587-.093 2.859v4a1.5 1.5 0 0 0 1.014 1.42 41.659 41.659 0 0 1-.014-1.384V7.297c0-.912 0-1.647.078-2.225.08-.6.253-1.105.654-1.506.402-.402.907-.574 1.507-.655.578-.078 1.313-.078 2.224-.078h2.074c.516 0 .976 0 1.383.014ZM4.94 4.273c.184-.185.443-.305.932-.37.504-.069 1.171-.07 2.128-.07h2c.957 0 1.624.001 2.128.07.49.065.748.185.933.37.184.184.305.443.37.932.068.504.069 1.171.069 2.128v3.334c0 .957-.001 1.624-.069 2.128-.065.489-.186.748-.37.932-.185.185-.444.305-.933.37-.504.069-1.171.07-2.128.07H8c-.957 0-1.624-.001-2.128-.07-.49-.065-.748-.185-.933-.37-.184-.184-.304-.443-.37-.932-.068-.504-.069-1.171-.069-2.128V7.333c0-.957.001-1.624.069-2.128.066-.489.186-.748.37-.932Z" fill="#6E6E6E"/></svg>