<svg xmlns="http://www.w3.org/2000/svg" width="28" height="28" fill="none"><path opacity=".1" d="M28 14c0 7.732-6.268 14-14 14S0 21.732 0 14 6.268 0 14 0s14 6.268 14 14ZM3.773 14c0 5.648 4.579 10.227 10.227 10.227 5.648 0 10.227-4.579 10.227-10.227 0-5.648-4.579-10.227-10.227-10.227C8.352 3.773 3.773 8.352 3.773 14Z" fill="#A558FF"/><path d="M14 1.887c0-1.042.848-1.9 1.88-1.76A14 14 0 1 1 2.949 22.593c-.64-.822-.324-1.987.577-2.51.9-.523 2.044-.202 2.723.588a10.226 10.226 0 1 0 9.628-16.724C14.852 3.756 14 2.929 14 1.887Z" fill="#A558FF"/></svg>